<?xml version="1.0" standalone="no"?>
<!DOCTYPE svg PUBLIC "-//W3C//DTD SVG 1.1//EN" "http://www.w3.org/Graphics/SVG/1.1/DTD/svg11.dtd" >
<svg xmlns="http://www.w3.org/2000/svg">
<metadata></metadata>
<defs>
<font id="hammo_markerregular" horiz-adv-x="1483" >
<font-face units-per-em="2048" ascent="1638" descent="-410" />
<missing-glyph horiz-adv-x="826" />
<glyph horiz-adv-x="2048" />
<glyph horiz-adv-x="2048" />
<glyph unicode="&#xd;" horiz-adv-x="550" />
<glyph unicode=" "  horiz-adv-x="826" />
<glyph unicode="&#x09;" horiz-adv-x="826" />
<glyph unicode="&#xa0;" horiz-adv-x="826" />
<glyph unicode="!" horiz-adv-x="920" d="M132 -22q0 151 260 195h22q0 -35 216 -173v-152q-224 -87 -281 -87q-209 101 -217 217zM197 520q43 316 65 389q-22 42 -22 65l130 802q0 22 -21 22q43 325 108 325h130q170 -94 195 -152v-43l-217 -1517l-151 -43q-217 31 -217 152z" />
<glyph unicode="&#x22;" horiz-adv-x="1297" d="M147 1906q43 130 152 130q238 0 238 -195v-585q0 -195 -152 -195h-65q-101 0 -151 758q-22 0 -22 87zM710 1949q51 130 152 130q238 -37 238 -238v-130l-22 -130q0 -22 22 -22q-12 -455 -152 -455q0 -21 -21 -21h-65q-130 0 -130 650v86z" />
<glyph unicode="#" horiz-adv-x="2113" d="M19 368v22q0 151 325 151q152 0 152 152q0 65 -22 65q-65 0 -65 22q-22 0 -22 -22q-346 80 -346 281q0 109 130 109q235 -65 281 -65h65q0 43 22 43l-22 217v86q0 34 87 87h22q259 0 259 -260v-87q282 11 282 65v109q0 90 -22 238q45 130 174 130q195 -65 195 -217v-238 q123 0 260 43q195 -143 195 -238q-30 -217 -195 -217q-141 87 -239 87q-21 0 -43 -346q163 -65 238 -65l152 21q152 -136 152 -238q-59 -144 -130 -173q-49 0 -87 21q-22 0 -22 -21q-162 21 -238 86h-87l-21 -108v-520q0 -151 -152 -151q-152 37 -152 194v607q0 43 -43 43 h-217l-108 -21v-455q-55 -109 -173 -109q-152 37 -152 239v281l-151 -21h-22q-180 0 -260 173zM820 606q22 0 22 -21l43 21h260l22 109v151h-22q-136 0 -303 -65v-43z" />
<glyph unicode="$" horiz-adv-x="1299" d="M21 173v130q0 31 65 65h65q94 0 173 -43q22 292 22 433q-252 230 -260 390l22 43q-22 42 -22 65q130 217 368 433q0 22 -21 22q21 303 86 303h152q130 -65 130 -195v-108q325 -66 325 -325q0 -76 -174 -130q-33 0 -151 108h-44l-64 -433q498 -344 498 -780 q0 -234 -152 -325q0 -43 -152 -43h-43l-216 22v-152q0 -29 -109 -108q-238 0 -238 303v108q0 25 -173 130zM628 130l194 -22q22 108 44 108q-65 265 -195 347q-12 -260 -43 -260q0 -22 21 -22l-21 -108v-43z" />
<glyph unicode="%" horiz-adv-x="2300" d="M-40 1191q0 419 347 563h21q498 -130 498 -390q28 0 44 -130q-151 -411 -455 -411q-433 0 -433 325q-22 0 -22 43zM328 1148l44 -22l108 130v22l-22 108h-43q-87 -22 -87 -238zM372 -44q0 97 173 195q293 380 650 737l715 693q10 0 86 22q186 -79 238 -174 q0 -123 -411 -390q0 -31 -303 -281q-509 -552 -759 -932l-108 -21q-192 0 -281 108v43zM1325 21v174q120 476 346 476q520 -166 520 -390q0 -342 -390 -606q-72 0 -108 -22q-368 41 -368 368zM1693 21h22q108 184 108 260v22h-65q-65 -211 -65 -260v-22z" />
<glyph unicode="&#x26;" horiz-adv-x="1636" d="M31 433q0 110 368 455q0 49 -65 260h22l-22 43q0 455 130 455q0 83 325 195q126 0 347 -217q108 -203 108 -281q0 -178 -217 -390l-195 -217q0 -74 87 -281v-22h22q252 159 346 368q53 43 87 43q195 -129 195 -238q0 -259 -455 -476q173 -210 173 -239v-43 q-90 -87 -216 -87q-115 0 -239 174q-102 -38 -259 -65q-325 0 -499 303q-43 172 -43 260zM486 346q26 -21 130 -21q-65 108 -65 151h-43q-22 -113 -22 -130z" />
<glyph unicode="'" horiz-adv-x="752" d="M190 1473v606q0 130 130 130q195 -37 195 -195q0 -203 22 -411q-46 -434 -152 -434l-43 -21h-44q-108 0 -108 325z" />
<glyph unicode="(" horiz-adv-x="1027" d="M157 585v195q0 750 542 1104h130q173 0 173 -173q0 -175 -238 -238q-260 -343 -260 -715q108 -672 281 -672q108 -99 108 -281l-129 -87h-130q-278 152 -434 650q-43 174 -43 217z" />
<glyph unicode=")" horiz-adv-x="982" d="M-75 1668v151q0 56 195 87q276 0 563 -867q65 -297 65 -433v-173q-45 -888 -281 -888h-65q-145 0 -195 238q216 297 216 693q0 460 -281 975q0 30 -217 217z" />
<glyph unicode="*" horiz-adv-x="1682" d="M37 520v21q0 157 368 303q152 79 152 109q-399 502 -455 628q0 70 152 152q254 0 368 -304l65 -43h22q0 23 21 65q-43 163 -43 303q76 130 108 130h130q118 0 173 -108v-325l-21 -152h21q157 195 325 195h22q118 0 173 -108v-65q0 -152 -260 -260q-260 -173 -260 -238 q282 -328 282 -412v-130q-65 -108 -152 -108q-143 0 -151 87h-44q0 -260 -195 -260h-86q-29 0 -108 108q0 50 43 477q-100 0 -390 -239h-22q-157 44 -238 174z" />
<glyph unicode="+" horiz-adv-x="1590" d="M17 541v65q0 160 65 174h238l152 21v152q-43 313 -43 325q0 86 86 130h65q190 0 217 -282v-260h21q95 0 520 65q217 0 217 -173v-22q0 -216 -238 -216q-71 43 -130 43h-22q-253 0 -347 -43q22 -42 22 -65q0 -85 43 -694q-115 -108 -173 -108q-173 59 -173 217v86 q0 499 -65 499l-108 -22v22q-42 -22 -65 -22q-122 0 -282 108z" />
<glyph unicode="," horiz-adv-x="839" d="M117 -520q0 114 152 671q0 96 108 152q238 -56 238 -130v-87q-174 -628 -303 -628q0 -43 -108 -43q-53 43 -87 43v22z" />
<glyph unicode="-" d="M123 628v22q42 98 87 108h238q22 0 22 -22l476 87h43q217 -101 217 -217q-61 -216 -130 -216h-65q-20 0 -173 43h-217l-216 -22v22l-44 -22q-122 0 -238 217z" />
<glyph unicode="." horiz-adv-x="892" d="M224 130v151q87 109 195 109q195 -28 195 -195q0 -195 -173 -195q-142 0 -217 130z" />
<glyph unicode="/" horiz-adv-x="1589" d="M23 86q182 290 823 975q279 245 368 433l152 22h22q216 0 216 -238q0 -66 -238 -195q-901 -881 -975 -1170q-154 -65 -173 -65q-180 0 -195 238z" />
<glyph unicode="0" horiz-adv-x="1490" d="M136 909q22 42 22 65l-22 87q91 364 173 412q0 201 434 303q359 0 606 -628q0 -98 22 -130q-22 -38 -22 -87l22 -108q-38 -6 -174 -477q-266 -390 -476 -390h-87q-223 0 -411 369q-87 547 -87 584zM461 628q78 -368 152 -368q296 0 433 779q-72 390 -260 390 q-325 -140 -325 -541v-22q0 -78 22 -195z" />
<glyph unicode="1" horiz-adv-x="810" d="M184 1603q0 91 152 130q238 0 238 -499q0 -889 43 -1234l-108 -87h-87q-151 0 -151 477v65l-22 108h22q-22 42 -22 65q0 724 -65 975z" />
<glyph unicode="2" horiz-adv-x="1423" d="M43 173q758 772 758 1061q22 0 43 152l-43 22q-282 -107 -368 -260l-108 -22q-132 0 -195 152q0 193 498 433q192 43 260 43q281 0 281 -455q-106 -497 -519 -931q0 -65 -65 -65v-65l108 -22h130q65 0 65 22l108 -22h217q216 -29 216 -216q0 -152 -151 -152l-390 87 l-44 -22h-86q-22 0 -22 22q-42 -22 -65 -22q-117 0 -411 -22q-217 82 -217 282z" />
<glyph unicode="3" horiz-adv-x="1417" d="M20 303q0 31 65 65q153 0 412 -195q140 -65 259 -65l152 43v22q0 231 -433 412q0 43 -173 173v238q263 0 628 368v22q-318 0 -542 -152q-238 44 -238 217q0 260 823 260q347 0 347 -325q0 -234 -542 -563v-65q455 -252 455 -693q0 -260 -455 -260q-208 0 -715 303 q-43 141 -43 195z" />
<glyph unicode="4" horiz-adv-x="1564" d="M-41 541v109q124 220 672 866l194 390q38 22 87 22q238 -58 238 -239q-95 -137 -173 -866l43 -22q185 22 282 22q282 -71 282 -130v-108q-168 -44 -434 -65v21q-121 -30 -173 -65q0 -100 65 -476v-22q-22 -173 -152 -173q-216 0 -216 455v130q0 43 -43 43 q-288 -65 -369 -108l-43 21l-43 -21q-217 64 -217 216zM457 736q223 0 238 130l-21 43l21 130q-29 0 -238 -259v-44z" />
<glyph unicode="5" horiz-adv-x="1549" d="M81 303v43q0 31 65 65l303 -238h130q50 0 65 108q-446 490 -455 628l-21 44q25 155 238 498q0 62 173 195h87l195 -108h260q48 0 86 21q38 -21 87 -21h282q86 -114 86 -152v-43q0 -70 -216 -130v21q-42 -21 -65 -21l-44 21q-38 -21 -86 -21v21l-44 -21h-130q-21 0 -21 21 l-44 -21h-86l-217 21q-173 -208 -173 -325q118 -186 346 -411q65 -108 87 -260q0 -390 -303 -390q-585 78 -585 455z" />
<glyph unicode="6" horiz-adv-x="1209" d="M69 195v86q65 79 65 152v130q0 521 390 953q215 108 325 108h21q260 -72 260 -173v-65q-40 -78 -130 -108l-108 21q-264 0 -433 -671h22q151 87 216 87q368 -58 368 -347v-130q-216 -433 -476 -433q-236 0 -433 325q-87 0 -87 65zM481 151h86q93 0 152 217 q-144 -58 -238 -195v-22z" />
<glyph unicode="7" horiz-adv-x="1259" d="M47 1408q0 125 368 173q47 37 585 152q260 -60 260 -239q-238 -505 -238 -693q-190 -580 -282 -996q-79 -65 -151 -65h-22q-65 13 -65 173v43q65 470 281 1365q-21 0 -21 22l-433 -130h-44q-238 14 -238 195z" />
<glyph unicode="8" horiz-adv-x="1254" d="M87 476q0 172 173 412q-43 277 -43 325q0 430 563 541h22q412 -213 455 -325v-108q0 -171 -607 -585q173 -352 173 -476v-65q-43 -369 -303 -369q-202 57 -325 239q-108 210 -108 411zM325 455q34 -260 109 -260h65l21 86q0 48 -108 260h-22q-21 0 -65 -86zM542 1061 q187 106 281 217v21q-54 0 -173 22q-108 -41 -108 -173v-87z" />
<glyph unicode="9" horiz-adv-x="1327" d="M59 931v108q0 410 801 737h130q151 -74 195 -173q0 -160 -21 -239q21 -142 21 -281q0 -684 -498 -1018l-108 -22h-87q-107 57 -108 87v43q385 359 433 650h-22q-250 -195 -411 -195q-22 0 -22 22l-43 -22q-164 0 -260 303zM406 996h21q236 150 304 347 q-325 -184 -325 -347z" />
<glyph unicode=":" horiz-adv-x="732" d="M140 216v109q35 86 152 86h65q151 -90 151 -130v-65q0 -132 -173 -195q-195 57 -195 195zM140 1018v86q87 109 195 109v-22l43 22q174 0 174 -217q0 -99 -109 -173h-173q-130 65 -130 195z" />
<glyph unicode=";" horiz-adv-x="738" d="M20 -499q108 451 130 672q79 65 152 65q195 -37 195 -195v-22q-188 -584 -325 -584h-87q-31 0 -65 64zM215 1061v43q43 109 152 109h21q217 0 217 -239v-21q-60 -130 -173 -130q-217 28 -217 238z" />
<glyph unicode="&#x3c;" horiz-adv-x="1310" d="M38 455q0 21 22 21l-22 44q0 162 282 389q316 347 433 347q216 -61 216 -130q0 -174 -238 -303l-216 -238v-44q526 -108 736 -173q0 -66 22 -152q-109 -65 -174 -65h-86q-491 0 -672 130l-43 -21q-217 65 -260 195z" />
<glyph unicode="=" horiz-adv-x="1423" d="M84 736v108q0 34 87 87h260q48 0 86 22q42 -22 65 -22l455 65q195 -58 195 -216v-65q0 -34 -87 -87h-43q-433 0 -563 -43q-38 21 -87 21l-43 -21l-43 21q-23 0 -65 -21q-136 0 -217 151zM149 151v65q0 118 108 174h44q289 0 714 108q239 -73 239 -260q0 -173 -390 -173 v21q-50 -21 -520 -65q-168 60 -195 130z" />
<glyph unicode="&#x3e;" horiz-adv-x="1236" d="M82 303l455 347l87 108q-542 150 -542 390q0 173 130 173q92 -9 325 -195q210 -81 498 -130q130 -75 130 -173v-22q0 -175 -780 -671h-130q-173 0 -173 173z" />
<glyph unicode="?" horiz-adv-x="1307" d="M-149 1603q369 380 823 498q18 51 347 65q433 -108 433 -433q0 -234 -498 -715q-176 -181 -304 -347q44 -88 44 -130q-102 -195 -238 -195q-22 0 -22 22q-22 0 -22 -22q-238 50 -238 195q0 245 736 997q130 160 130 238v22q0 43 -43 43h-43q-468 -113 -693 -390 q-50 -65 -152 -65h-87q-173 61 -173 217zM284 -22q0 126 152 195h22q176 0 259 -260v-22q-62 -108 -130 -108q-35 0 -259 22l-44 151v22z" />
<glyph unicode="@" horiz-adv-x="2319" d="M92 498q0 566 347 1105q350 455 931 455q89 0 173 21q672 -90 672 -823q-90 -953 -455 -953q-256 0 -390 347l-260 -325l-217 -44q-216 82 -216 282v217q147 671 498 671q92 0 238 43q195 0 217 -303q0 -309 87 -498h43l130 498l-22 43l22 87q0 394 -325 498 q-945 0 -1126 -1169l21 -44l-21 -108l21 -43l-21 -44q0 -638 519 -823q278 39 672 455l152 43q130 0 151 -130q0 -261 -715 -628h-21v22q-79 -43 -174 -43h-130q-377 0 -693 541q-65 195 -108 650z" />
<glyph unicode="A" horiz-adv-x="1679" d="M26 65v21q130 499 585 1777q0 195 130 195q260 0 303 -239q0 -52 130 -498q108 -541 173 -541q210 0 239 -195v-22q-38 -81 -174 -152v-21q0 -149 152 -347q0 -195 -325 -217q-108 89 -173 542l-44 22h-21q-650 -102 -650 -195q0 -239 -108 -239q-23 0 -65 -21 q-152 0 -152 130zM459 606h22l498 109q-108 512 -195 758h-22q-134 -246 -303 -867z" />
<glyph unicode="B" horiz-adv-x="1728" d="M118 931q43 174 43 217v303q0 19 -43 173v44q0 216 260 216q90 0 238 22v-22q22 0 22 22q529 -49 606 -390v-87q0 -207 -303 -325v-43h22q435 0 628 -368q22 -84 22 -173v-109q0 -254 -325 -411q-351 -109 -758 -109h-174q-158 0 -216 239q21 216 21 325v303 q0 20 -43 173zM508 433q0 -282 130 -282q254 22 520 130q108 87 108 347q-94 152 -282 152q-476 0 -476 -65v-282zM508 1603l22 -217v-152h21q347 109 347 217q0 130 -238 195z" />
<glyph unicode="C" horiz-adv-x="1469" d="M50 780q0 277 152 671q223 347 541 347q117 -22 195 -22h130q197 -97 217 -173v-44q-47 -75 -217 -130q-106 65 -282 65h-43q-325 -235 -325 -671q0 -370 433 -498h22q194 12 347 195q238 -51 238 -217q-142 -260 -520 -260h-43q-411 58 -650 238q-164 202 -195 499z" />
<glyph unicode="D" horiz-adv-x="1774" d="M85 108v22q0 89 108 173v282q0 90 22 238q0 21 -22 21l22 109v476q0 42 -130 347q30 152 87 152q201 0 498 -260q594 -353 866 -694q87 -273 87 -324q22 -118 22 -195q0 -412 -953 -412l-325 -108q-282 0 -282 173zM562 303q714 0 714 173v65q0 447 -671 802 q-17 -46 -43 -239q0 -21 21 -21l-21 -109v-671z" />
<glyph unicode="E" horiz-adv-x="1771" d="M91 0q0 21 22 21l-22 44q54 0 130 1256q-87 130 -108 217q21 108 86 151v22h174q154 -43 173 -43q215 0 866 86h44q216 0 325 -195v-21q-103 -130 -217 -130h-43q-22 0 -22 21q-22 0 -22 -21l-108 21q-58 0 -455 -65v22q-57 -17 -260 -43v21q-38 -21 -86 -21v-65 q0 -152 -22 -477l43 22h22q22 0 22 -22q291 43 498 130q303 -80 303 -173v-43q0 -123 -736 -174q-195 -48 -195 -86v-239l21 -43q385 87 867 152q303 -39 303 -239q-80 -70 -195 -108q-148 22 -238 22h-22q-559 -109 -845 -217v22l-43 -22h-65q-195 42 -195 217z" />
<glyph unicode="F" horiz-adv-x="1588" d="M19 1451q135 303 303 303q0 -24 174 -108h21q750 217 953 217q75 0 282 -130v-152q-29 -87 -195 -87h-22q-119 0 -303 22q-625 -195 -671 -195v-22q0 -48 21 -86q0 -22 -21 -22l21 -108v-87q0 -22 -21 -22q0 -21 21 -21l-21 -109v-129h21q149 43 607 108q206 0 325 -173 v-44q-82 -130 -195 -130q-36 0 -260 22q-498 -103 -498 -173v-282q0 -49 21 -87q-43 -145 -130 -173h-108q-130 0 -130 130v975q0 49 22 86q0 369 -174 369z" />
<glyph unicode="G" horiz-adv-x="1518" d="M0 563q38 488 433 996q294 282 563 282q325 -44 325 -217v-65q-56 0 -151 -65h-44q-48 0 -86 22q-239 0 -498 -412q-174 -349 -174 -476v-130q2 -30 109 -87h21q389 0 455 195v87l-43 22l-152 -44v22l-43 -22q-238 0 -238 173q0 126 346 174l217 151h86q260 -59 260 -238 q0 -130 -43 -130q0 -21 22 -21l-152 -889l22 -43v-173l-22 -109h-22q-48 0 -86 22q-42 -22 -65 -22q-138 0 -152 325v260q-227 -43 -346 -43q-542 0 -542 455z" />
<glyph unicode="H" horiz-adv-x="1756" d="M112 0v173q0 488 43 607l-21 86q21 294 21 412q0 94 -43 195q65 100 65 130q246 0 325 -130q43 -85 43 -239v-21q0 -22 -21 -22q0 -22 21 -22l-21 -108v-173q0 -22 -22 -22q22 -42 22 -65h21q607 106 607 195q43 0 43 43v347q0 22 22 22l-22 43v22q0 65 22 65l-22 108 v130q0 34 87 87h130q173 -82 173 -325q-65 -832 -65 -1365q43 -368 43 -412q0 -40 -130 -108h-86q-195 0 -195 520v412q-109 0 -109 21q-584 -118 -584 -260l21 -43v-390q-156 -65 -195 -65h-65q-108 43 -108 152z" />
<glyph unicode="I" horiz-adv-x="764" d="M89 -22q60 0 87 1040l-22 216q0 109 195 109q149 -61 195 -152v-152q0 -48 22 -86q-22 -38 -22 -87v-173q0 -22 -22 -22q0 -21 22 -21q-43 -217 -43 -390v-109q0 -90 21 -238q-61 -195 -281 -195h-44q-108 105 -108 260zM197 1646v108q0 29 109 109h21q220 0 304 -195 q21 -42 21 -65q-76 -152 -195 -152q-260 0 -260 195z" />
<glyph unicode="J" horiz-adv-x="1301" d="M-48 108q0 130 195 195q86 0 325 -217q37 -5 173 -108q91 0 130 520q-28 574 -65 758q0 22 22 22l-22 151v65q0 117 87 152h43q260 0 260 -303q0 -90 -22 -174q22 -291 22 -498v-108q0 -433 -43 -433q0 -22 21 -22q0 -455 -238 -455h-65q-206 6 -801 368z" />
<glyph unicode="K" horiz-adv-x="1650" d="M129 86v564q0 216 22 649h21q0 22 -21 22l21 108q0 53 -43 369q42 98 87 108h65q238 -29 238 -195q65 -50 65 -65q-30 0 -65 -130l22 -43q0 -23 -22 -65l22 -109l-22 -108q463 268 758 542q0 65 130 130q238 0 238 -174q0 -81 -325 -368q-218 -80 -606 -433v-22 q330 -394 693 -628q165 -87 217 -195v-43q0 -17 -152 -152h-87q-176 0 -346 260q-166 86 -498 412q-22 0 -22 43q-43 -7 -43 -43v-87q0 -49 21 -87l-21 -43q21 -117 21 -195v-22q-103 -130 -281 -130z" />
<glyph unicode="L" horiz-adv-x="1388" d="M77 -22q108 530 152 1495q-22 84 -22 173q0 130 130 130q238 0 238 -303v-87q0 -49 -21 -87q0 -21 21 -21q-17 -239 -43 -239q0 -21 22 -21q-65 -741 -65 -888q42 -22 65 -22q470 37 671 108q217 -43 217 -130v-130q-77 -130 -152 -130q-157 0 -282 44 q-357 -65 -649 -152q-282 0 -282 260z" />
<glyph unicode="M" horiz-adv-x="2117" d="M101 -44q65 774 65 1322l-22 216q33 87 65 87h152q117 0 260 -260q144 -152 346 -541h22q43 21 368 801q0 173 174 173h21q260 -38 260 -281q109 -1156 152 -1430l22 -87h-22l22 -43q0 -96 -217 -152q-195 0 -195 195q-22 0 -22 87v87q0 356 -43 606q0 22 22 22 q-22 216 -65 216l-152 -454q22 -42 22 -65h-22l22 -44v-21q0 -195 -260 -195v21l-44 -21q-137 0 -195 238l-324 411l-65 -801q21 -117 21 -195l-86 -87q-282 0 -282 195z" />
<glyph unicode="N" horiz-adv-x="1831" d="M84 173q0 23 22 65l-22 152q43 551 43 693h22q-43 86 -43 151q0 239 173 239q195 0 260 -217q115 0 715 -736v758q0 48 -22 86q22 38 22 87v390q37 217 151 217q190 -93 195 -130v-542q0 -119 22 -303q0 -22 -22 -22l22 -108v-607q0 -48 -22 -86q22 -38 22 -87 q-58 -73 -238 -173q-335 0 -520 455q-274 350 -347 389h-21v-21q0 -48 -44 -325q0 -22 22 -22l-22 -108q22 -192 22 -238q-143 -87 -217 -87q-97 22 -173 130z" />
<glyph unicode="O" horiz-adv-x="1875" d="M48 1039q129 597 368 759q205 143 368 173q277 -152 477 -195q455 -312 455 -693v-325q0 -121 -390 -607q-78 -54 -238 -108v22q-42 -22 -65 -22l-44 22q-21 0 -21 -22q-453 0 -607 195q-281 319 -281 542zM460 801q0 -177 281 -411h152q216 0 411 390q34 54 65 238 q0 447 -476 541q-33 22 -130 22q-303 -189 -303 -585v-195z" />
<glyph unicode="P" horiz-adv-x="1654" d="M51 1668v21q0 21 217 195h21q162 0 369 -151q461 -81 779 -369q174 -210 174 -303v-87q0 -281 -737 -346q-112 22 -260 22q-65 -80 -65 -304q0 -216 44 -433q-52 -152 -87 -152h-130q-195 0 -195 304v216l22 130l-22 44q22 42 22 65l-22 43q22 42 22 65q-44 71 -44 130 v22q0 69 65 194q0 22 -21 22l21 108v325q-173 121 -173 239zM571 1018q0 -109 173 -109h152q188 30 303 130v109q-270 281 -520 281h-43q-43 -6 -43 -43v-347q0 -21 -22 -21z" />
<glyph unicode="Q" horiz-adv-x="1826" d="M48 801q0 445 238 802q-21 119 -21 173q124 108 216 108q518 0 1018 -628l22 -152v-86q0 -350 -195 -585q0 -60 347 -303l216 -195v-109q-43 -52 -43 -86h-238q-117 51 -260 238q-191 152 -239 152q-176 -152 -411 -152h-87q-200 0 -411 238q-152 351 -152 585zM416 823 q0 -442 239 -585q112 32 216 130q-173 210 -173 238v65q86 102 86 130q260 0 260 -86h65q65 230 65 346v43q0 159 -346 412h-65q-347 -205 -347 -693z" />
<glyph unicode="R" horiz-adv-x="1620" d="M16 1711q0 108 130 173q1365 -377 1365 -845q0 -186 -715 -324q151 -174 520 -434q68 -3 195 -151l21 -44v-86q-35 -87 -151 -87h-87q-106 0 -325 238q-346 258 -346 282q-65 0 -87 -152q0 -21 22 -21q0 -282 -152 -282h-87q-156 0 -173 130l87 801q0 23 -22 65 q22 149 22 239v281l-195 152q0 23 -22 65zM601 1104l22 -108q476 103 476 173q-138 140 -476 260l-22 -195l22 -43q-22 -38 -22 -87z" />
<glyph unicode="S" horiz-adv-x="1638" d="M31 1018v130q13 164 173 281q174 152 347 152q476 0 736 -195q58 0 239 -217v-43q0 -173 -217 -173h-22q-281 107 -281 238q-44 0 -44 43h-65q-48 0 -86 22l-44 -22l-108 22q-117 -39 -195 -195v-43q17 -106 498 -217q542 -321 542 -585v-130q0 -158 -498 -346 q0 -22 -87 -22h-108q-506 0 -672 542v21q0 117 87 152q265 0 368 -303q0 -33 130 -109h43q325 112 325 195v65q-85 205 -671 369q-244 0 -390 368z" />
<glyph unicode="T" horiz-adv-x="1944" d="M-58 1299v44q26 161 87 173h108l152 -65q21 0 21 22l109 -22q297 0 389 108h22q54 0 195 -43q650 27 650 65q325 -113 325 -282q-38 -108 -217 -108q-158 43 -325 43l-43 -21l-43 21q-42 -21 -65 -21l-44 21q-32 -21 -130 -21q-21 -624 -21 -802q0 -157 65 -671 q-70 -35 -195 -65q-188 36 -260 173q0 98 21 130q-21 452 -21 737v454l-108 -21q-22 0 -22 21l-43 -21h-44q-469 0 -520 108q-43 0 -43 43z" />
<glyph unicode="U" horiz-adv-x="1592" d="M66 1603q32 86 65 86h238q0 -43 109 -108v-477q43 -893 324 -1039h44q238 444 238 1126v43l-22 109h22q0 67 -152 325v21q0 130 130 130h22q325 0 325 -411q22 -94 22 -325v-195q0 -22 -22 -22l22 -43l-130 -585q-159 -498 -412 -498h-108q-418 0 -628 845 q-65 389 -87 1018z" />
<glyph unicode="V" horiz-adv-x="1593" d="M-22 1473q44 130 87 130h108q238 0 347 -477q144 -412 303 -606l368 1234q22 87 152 87q87 0 281 -108v-174q-204 0 -498 -1473q0 -281 -130 -281h-260q-73 90 -151 368q-299 487 -520 1126q-48 8 -87 174z" />
<glyph unicode="W" horiz-adv-x="2441" d="M-7 1386v87q65 83 65 108h260q238 -341 238 -607l87 -476q152 168 260 433q34 0 86 43h65q211 0 369 -281q260 -378 260 -455h21l282 1386q54 174 151 174q282 -81 282 -195l-130 -282q-108 -263 -217 -1083h-21l21 -43q0 -41 -43 -260l22 -109q-29 -173 -260 -173 q-238 71 -238 217q-225 246 -434 606q-92 -17 -260 -563l22 -43v-44q-27 -75 -195 -130q-42 22 -65 22l-43 -22q-237 0 -303 737q-130 718 -282 953z" />
<glyph unicode="X" horiz-adv-x="1989" d="M10 1559v130q35 87 152 87h43q204 -83 282 -260q346 -654 411 -693q214 192 650 520q88 151 260 151q140 -62 217 -173l21 -43q0 -110 -368 -260q-278 -213 -585 -520q159 -310 433 -563v-109q-75 -108 -195 -108v22l-43 -22q-189 0 -260 195q-195 277 -195 325h-22 q-232 -227 -368 -303q-325 0 -325 195q93 173 217 173l282 260q-458 826 -607 996z" />
<glyph unicode="Y" horiz-adv-x="1429" d="M28 1581q45 130 173 130h65q152 -201 152 -282q0 -182 303 -411q263 320 368 606l44 22q21 0 21 -22l44 22q260 -22 260 -217q-369 -575 -369 -628q0 -144 -173 -260q-182 -215 -390 -780q-116 -43 -130 -43q-146 0 -216 108v87q0 110 368 802v21q-406 452 -455 563 q-65 185 -65 282z" />
<glyph unicode="Z" horiz-adv-x="1740" d="M-19 0q0 86 195 260q323 468 758 996v22q-267 -87 -585 -130q-216 66 -216 195v65q0 86 368 108q0 43 866 173q260 -95 260 -260v-43q-10 -53 -195 -173q-226 -226 -823 -953q44 0 44 -22q154 43 368 43q18 0 520 -21q172 -170 173 -195v-109q0 -35 -130 -86 q-253 29 -325 108h-260q-650 -100 -650 -195h-173q-173 61 -173 87z" />
<glyph unicode="[" horiz-adv-x="1245" d="M60 -65q43 199 43 238q22 975 22 1213q0 47 -65 282q0 85 195 151l43 -21q38 21 87 21l65 -43h238q22 0 22 -22l43 22q152 -64 152 -195v-22q-50 -108 -195 -108q-19 0 -173 22q-65 -58 -65 -520v-368q0 -22 -22 -22q22 -42 22 -65l-22 -195l22 -43q-22 -38 -22 -87v-22 q0 -65 87 -65l86 22q22 0 22 -22q193 27 238 44q282 0 282 -195q0 -129 -130 -174q-13 0 -282 22q-65 0 -173 -43q-22 0 -22 21q-190 -43 -303 -43q-195 43 -195 217z" />
<glyph unicode="\" horiz-adv-x="1375" d="M60 1343q0 130 130 130h43q196 0 434 -455q365 -672 606 -823q22 -38 22 -87v-22q-28 -195 -195 -195h-22q-192 0 -650 910q-176 269 -346 412z" />
<glyph unicode="]" horiz-adv-x="1331" d="M60 1624q0 87 108 130q185 -21 282 -21q64 0 455 108h86q175 0 217 -195v-43q0 -103 -65 -152q0 -22 22 -22l-22 -151v-239q0 -48 22 -86l-22 -44q108 -902 108 -1018q-119 -151 -130 -151h-65q-953 94 -953 260v21q0 152 152 152h130q298 -65 433 -65l22 43v217l-22 217 h22q-44 111 -44 498v346l-21 44q-230 -65 -347 -65h-130q-181 0 -238 216z" />
<glyph unicode="^" horiz-adv-x="8220" d="M60 736q53 173 108 173h130v109l22 130q-22 42 -22 65h22l-22 43v477l22 108h108q130 0 195 -130v-845h65q347 65 347 108v217q0 125 21 347q-21 38 -21 86h21l-21 44v21q0 65 21 65q0 27 -65 412q44 108 152 108q217 0 217 -368q0 -124 21 -152q-21 -38 -21 -86v-65 q0 -73 21 -109l-21 -130v-303q6 -43 43 -43q15 0 693 195h43q260 0 260 -282l-21 -108v-65l21 -152h22q260 650 455 650h22q216 -22 216 -217q-21 -42 -21 -65h43q167 369 368 369q217 0 217 -282q-22 0 -22 -22h43q0 147 304 369h43q260 0 260 -434l-22 -108v-411 q37 14 239 628q155 260 216 260l44 21q180 0 238 -173q-44 -195 -44 -282v-21h22q245 476 455 476q166 0 195 -238h22q139 325 325 325h65q151 -87 151 -173q-43 -540 -43 -650q-22 0 -22 -22h44q362 780 606 780h22q48 0 86 -22q71 44 130 44h22q477 -194 477 -390 q27 -28 43 -303q0 -333 -412 -737h-195q-361 0 -433 607h-22q-247 -542 -433 -542q-260 0 -260 498l22 217v22h-22q-232 -663 -303 -694q-38 -21 -87 -21h-65q-130 86 -130 173q22 327 22 455v22h-22q-130 -260 -281 -780q-92 -87 -173 -87q-195 0 -195 390h-22 q-111 -455 -390 -455q-195 93 -195 672q-22 50 -22 389q-96 -89 -281 -779l-174 -65q-164 0 -194 346q21 117 21 195v130q0 44 -43 44q-203 -629 -260 -672l-87 -65q-238 0 -238 433v109h-22q-230 -650 -368 -650h-65q-238 0 -238 585h-22q-216 -585 -325 -585 q0 -44 -43 -44h-22q-128 0 -216 130v174q80 402 238 606v22q-188 0 -325 -108v-109q0 -49 22 -86q-22 -38 -22 -87v-65l22 -152h-22l22 -43v-87q0 -514 65 -649l-22 -130v-44q-34 0 -87 -43h-43q-238 0 -238 845v606q-433 0 -433 -151q0 -22 21 -22q-55 -628 -108 -628 q-23 0 -65 -22l-43 22q-42 -22 -65 -22q-65 108 -65 173v260q0 22 21 22q0 22 -21 22l21 151v109q-238 56 -238 216zM1880 -542q0 59 43 130q292 -22 433 -22h152q48 0 86 22l44 -22q42 22 65 22v-22l43 22q22 0 22 -22l43 22h801q22 0 22 -22q22 0 22 22l260 -22h433 q22 0 22 -21q21 0 21 21l87 -21q1819 -65 2773 -65q21 65 130 65h86q59 0 130 -238v-22q0 -119 -130 -195h-151q0 54 -607 87q-22 0 -22 -22q-23 0 -65 22q-157 0 -1841 65v21q-21 0 -21 -21q-23 0 -65 21q-964 22 -1473 22q-524 0 -1019 -65q-21 0 -21 22l-108 -22 q-159 0 -195 217v21zM6905 520q56 -207 130 -239h22q260 202 260 542q0 195 -130 195l-130 -22h-22l-43 22q-87 -94 -87 -498zM7750 -563q0 60 86 194h22q238 0 282 -324q-44 -118 -130 -152h-65q-195 28 -195 195v87z" />
<glyph unicode="_" horiz-adv-x="2090" d="M60 21q0 23 108 87q49 0 87 -22q1451 56 1451 130v-21l44 21q260 -90 260 -303q-111 -96 -174 -108q-65 0 -151 21q-838 -21 -1452 -65q-173 63 -173 195v65z" />
<glyph unicode="`" horiz-adv-x="601" d="M60 1363q0 31 20.5 51t53.5 20q20 0 40.5 -12t55.5 -47l291 -296h-69l-330 202q-31 20 -46.5 40t-15.5 42z" />
<glyph unicode="a" horiz-adv-x="1196" d="M76 433q0 330 303 650q158 93 260 216q109 44 109 65q137 0 259 -216q-21 -255 -21 -368v-564q43 -210 43 -238v-22q0 -29 -108 -108h-44q-194 28 -194 195v65q0 22 21 22l-21 43l21 43h-21q-151 -195 -325 -195q-196 0 -282 412zM379 368h44q173 325 173 368v108h-22 q-195 -184 -195 -476z" />
<glyph unicode="b" horiz-adv-x="1284" d="M123 1798l87 65q281 0 281 -715h-21q0 -239 108 -239q650 -155 650 -476q0 -387 -650 -455q0 -148 -87 -195h-130q-173 95 -173 368q14 195 43 195l-21 44v195q0 109 -44 259q0 28 22 217zM513 411l22 -108h86q224 0 303 152q0 81 -346 151v22q-42 -22 -65 -22v-195z" />
<glyph unicode="c" horiz-adv-x="1121" d="M103 346q27 286 303 542q213 130 412 130q99 0 195 -195q-53 -130 -130 -130q-22 0 -22 22q-337 0 -433 -412q41 -152 347 -152l43 22q238 -62 238 -130v-65q0 -65 -303 -108h-173q-477 56 -477 476z" />
<glyph unicode="d" horiz-adv-x="1275" d="M31 346v44q0 420 433 628q48 32 282 65v281q0 358 65 542h21q195 0 260 -173q-43 -217 -43 -390v-802q0 -72 22 -108l-22 -130v-650q0 -43 -173 -87q-152 76 -152 195v239q-236 -65 -303 -65q-390 133 -390 411zM356 411q30 -151 87 -151q265 80 303 173v260q0 31 -65 65 q-325 -157 -325 -347z" />
<glyph unicode="e" horiz-adv-x="1471" d="M37 498v22q144 443 520 693q1 30 260 151h108q325 0 325 -563q34 -108 65 -108q0 -303 -173 -303q-105 43 -260 43q-327 -43 -347 -43q57 -260 217 -260q96 0 368 195h108l44 -152v-65q-156 -282 -585 -282q-230 48 -433 325q0 104 -217 347zM514 715q21 0 21 -22 q149 43 412 87v151l-22 108q-169 0 -411 -324z" />
<glyph unicode="f" horiz-adv-x="1153" d="M89 1213v238q0 260 888 498h65q282 0 282 -238v-65q-44 -108 -152 -108h-65q-87 37 -87 86q-606 -135 -606 -325l-22 -86q0 -35 87 -520q418 65 498 65q130 -142 130 -238q0 -31 -130 -130h-260l-108 -22q0 -60 216 -455v-65q-35 -87 -151 -87h-43q-141 0 -174 217 q-34 0 -173 303q-99 0 -152 217q0 87 65 87q-108 482 -108 628z" />
<glyph unicode="g" horiz-adv-x="1447" d="M-49 -304q0 32 65 65h65q282 -238 563 -238h22q49 0 86 22l44 -22q216 0 216 303q0 102 -65 369q-250 -152 -368 -152h-21q-332 0 -434 260l-21 130v43q0 538 649 758h87l43 -21q65 0 65 65h44q159 0 238 -195l-22 -130q0 -252 109 -1148v-87q0 -433 -325 -433 q0 -43 -260 -43h-65q-715 74 -715 346v108zM406 433q32 -87 65 -87h22q368 98 368 304v108l-65 86q-320 0 -390 -411z" />
<glyph unicode="h" horiz-adv-x="1415" d="M117 1798q0 86 108 130q239 0 239 -434q21 -476 43 -476q290 173 390 173h43q303 0 303 -347h-21q0 -21 21 -21l-21 -108v-650l21 -109q-91 -86 -173 -86q-103 0 -173 130v433q0 78 -22 195q17 87 43 87l-21 43v22l21 43q-41 21 -65 21q-244 -98 -346 -238v-260 q0 -48 22 -86l-22 -44q22 -184 22 -303l-65 -43h-174q-38 0 -108 151l22 152v347q0 866 -87 1278z" />
<glyph unicode="i" horiz-adv-x="721" d="M141 0q43 372 43 606q-21 269 -21 282q27 130 195 130q151 -98 151 -347q-28 -780 -151 -780h-130q-45 10 -87 109zM184 1429q44 152 174 152h43q124 -70 173 -152v-65q0 -151 -173 -151q-217 50 -217 216z" />
<glyph unicode="j" horiz-adv-x="788" d="M-416 -325q0 31 65 65h22q176 -157 238 -368q65 0 65 -87h173q71 13 109 368q-22 184 -22 303v455l-22 217h22l-22 43v303q0 32 65 65h130q152 -81 152 -173q-22 -126 -44 -715l22 -43q-22 -38 -22 -87v-43l22 -108h-22l22 -44v-238q-30 -585 -217 -585q0 -43 -151 -43 q-447 0 -585 520v195zM407 1299q22 195 173 195h22q173 0 195 -173v-87q-55 -130 -173 -130h-109q-59 0 -108 195z" />
<glyph unicode="k" horiz-adv-x="1365" d="M145 1668q13 86 173 86q174 -71 174 -195l-22 -108v-217q0 -48 22 -86l-22 -44q22 -282 22 -454v-87h21q470 368 585 368q173 -49 173 -195q-27 -104 -303 -216q-146 -152 -195 -152v-43q3 -65 477 -217q108 -125 108 -217q-76 -130 -108 -130h-87q-52 0 -260 130 q-362 174 -390 174v-22q0 -73 22 -368q-69 -61 -173 -87q-103 0 -174 173q0 73 22 109q-22 935 -65 1798z" />
<glyph unicode="l" horiz-adv-x="714" d="M123 1581q14 65 130 108q238 -51 238 -238q0 -195 22 -195l-22 -108v-455q0 -78 22 -195q0 -22 -22 -22l22 -108v-542q0 -151 -152 -151h-43q-130 51 -130 303v737l-22 129q22 42 22 65q-22 402 -65 672z" />
<glyph unicode="m" horiz-adv-x="2118" d="M131 931v22l43 151q283 0 304 -260q147 143 303 239h86q268 0 347 -217q144 173 260 173q414 0 455 -541l43 -520l-108 -87h-43q-217 0 -217 477q0 217 -43 325q-95 0 -239 -585v-43q0 -23 22 -65q0 -239 -217 -239h-65q-151 82 -151 174q21 216 21 325v303l-21 152h-65 q-65 -11 -303 -369q26 -437 65 -563q-30 -89 -109 -130q-260 0 -260 433q0 161 -65 542h22q-65 253 -65 303z" />
<glyph unicode="n" horiz-adv-x="1559" d="M89 996l87 65h43q152 0 238 -195q0 -22 -21 -22q21 -41 21 -64q287 476 477 476q303 0 303 -195q60 0 152 -1105q0 -108 -109 -173h-65q-181 0 -195 303q0 22 22 22q-50 801 -108 801q-301 -366 -368 -953q-92 -86 -174 -86q-216 0 -216 585q0 156 -87 541z" />
<glyph unicode="o" horiz-adv-x="1209" d="M116 368q0 352 260 780l152 43q541 -185 541 -498v-65q0 -310 -303 -628q-115 -130 -260 -130h-65q-286 0 -325 498zM441 325q13 -130 65 -130q260 279 260 476q-44 135 -108 152q-217 -157 -217 -477v-21z" />
<glyph unicode="p" horiz-adv-x="1236" d="M152 281v44l43 151q0 174 -43 628l87 87h86q130 -36 195 -238q500 0 628 -303v-87q0 -222 -216 -455q-11 -40 -217 -87l-43 -43l-108 22h-22q-43 -7 -43 -44v-216q0 -387 43 -498q-45 -130 -173 -130h-44q-130 77 -130 260v736q0 20 -43 173zM499 303q23 0 65 -22 q230 0 260 304v21q-251 44 -304 44l-21 -109v-238z" />
<glyph unicode="q" horiz-adv-x="1414" d="M91 303q0 584 390 758q79 43 173 43q130 -21 195 -21q16 151 87 151h21q126 0 195 -151q0 -672 -43 -975q22 -42 22 -65h-22q0 -22 22 -22l-22 -260v-151h22q206 108 390 108q25 0 86 -173q-400 -270 -563 -433q-43 0 -43 -44h-109q-173 109 -173 217v87q54 0 87 606h-43 q0 -93 -282 -130h-22q-310 0 -346 368q-22 0 -22 87zM416 260l43 -87q282 139 282 325v108q0 117 -87 152q-173 0 -238 -498z" />
<glyph unicode="r" horiz-adv-x="1312" d="M121 1061v43q43 53 43 87h152q32 0 152 -152q137 122 628 174v-22l43 22q173 -119 173 -152v-65q0 -128 -130 -173q-84 43 -238 43h-22q-287 0 -411 -346l43 -347h-21q21 -22 43 -325q-79 -65 -152 -65h-21q-174 0 -174 412q0 252 -65 541l22 44z" />
<glyph unicode="s" horiz-adv-x="1127" d="M127 173v65l43 65q82 0 347 -130l22 43q-23 0 -217 304q-195 309 -195 389v87q0 180 217 195q649 -152 649 -433q-31 -173 -173 -173h-86q-134 237 -239 281h-21q0 -139 454 -715v-65q0 -205 -389 -238q-412 81 -412 325z" />
<glyph unicode="t" horiz-adv-x="1155" d="M-18 1061v87q0 31 65 65h65q11 0 260 -65l22 108v455q0 130 130 130q194 -52 194 -195v-412q155 65 174 65q238 -58 238 -216q0 -195 -260 -217h-173q0 -270 -22 -498q43 -344 43 -433q-4 -48 -129 -130h-22q-238 0 -238 411l21 44q0 21 -21 21l21 109v325q0 21 22 21 l-22 44q22 41 22 64h-65q-242 0 -325 217z" />
<glyph unicode="u" horiz-adv-x="1231" d="M85 974q43 71 43 109h65q260 0 260 -347q22 0 22 -21l-22 -87q136 -433 239 -433q43 79 43 173v303q0 278 -87 498q0 130 130 130h108q0 -59 109 -130q0 -255 65 -736q0 -399 -195 -563l-108 -22q-306 85 -477 368q-195 569 -195 758z" />
<glyph unicode="v" horiz-adv-x="1403" d="M22 953v21q44 136 108 152h22q249 0 477 -693h21q233 718 282 758q90 65 216 65q174 -123 174 -260q0 -71 -217 -260q-173 -636 -195 -650l22 -43v-65q0 -139 -152 -217h-43q-206 0 -303 369q-205 511 -412 823z" />
<glyph unicode="w" horiz-adv-x="1802" d="M91 909q0 174 87 174q281 0 281 -390q22 -192 22 -238q40 9 238 368l108 21h65q193 -75 347 -368h22q95 910 151 910h44q173 -152 173 -433q-29 -383 -43 -412q21 -42 21 -65q-43 -177 -65 -346l22 -44q-54 -168 -130 -195h-65q-147 0 -347 347l-151 152h-22 q-93 -151 -260 -607q-55 -65 -130 -65q-205 0 -238 325q0 235 -130 866z" />
<glyph unicode="x" horiz-adv-x="1452" d="M65 216q0 174 238 304l130 130q-260 342 -260 433v43q42 99 87 108h65q152 0 368 -390q163 82 390 282q38 22 87 22h65q86 -146 86 -239q-319 -303 -368 -303q0 -21 -22 -21q0 -41 304 -304v-43q0 -238 -195 -238q-55 1 -368 346h-44q-117 -78 -281 -260q-23 0 -65 -21 q-217 77 -217 151z" />
<glyph unicode="y" horiz-adv-x="1348" d="M-153 -174l87 22q82 -29 390 -368q146 -87 303 -87q195 0 195 412v390h-22l-65 -44h-195q-368 199 -368 693q-38 0 -43 109q38 195 130 195q260 -68 260 -239h-22l22 -43l-22 -130q82 -213 130 -216h21l130 346q-43 209 -43 412q87 44 87 108h216q0 -12 109 -195 q-22 -184 -22 -303v-44q0 -125 22 -346q-22 -42 -22 -65q22 -114 22 -130q0 -66 -22 -152q22 -237 22 -411q0 -542 -130 -542q0 -65 -217 -108h-43q-612 0 -802 411q-108 133 -108 260v65z" />
<glyph unicode="z" horiz-adv-x="1349" d="M69 1083v21q0 130 390 130q0 35 476 44q129 -86 152 -152q0 -103 -303 -520q-152 -298 -152 -346q715 -65 715 -174v-108q-35 -87 -152 -87q-48 0 -86 22q-22 0 -22 -22q-249 44 -390 44q-325 -22 -325 -65q-238 74 -238 238q0 116 152 260q0 23 281 541h-21 q-37 0 -282 -65q-195 66 -195 239z" />
<glyph unicode="{" horiz-adv-x="1201" d="M60 606q0 180 173 217l44 -22q216 0 216 173v22q0 69 -216 650q-22 76 -22 217q0 198 390 389q36 22 108 22q238 -33 238 -108v-152q0 -28 -303 -151q-43 -71 -43 -130q0 -70 173 -607q0 -66 22 -152l-65 -368q89 -41 151 -238q-8 -279 -324 -715v-22q0 -150 216 -216 q19 0 173 22q98 0 130 -195q-108 -152 -281 -152q-455 92 -455 217q-117 0 -152 259v109q0 102 304 520v173q-44 0 -44 22l-43 -22q-87 17 -87 43q-21 0 -21 -21q-225 0 -282 216z" />
<glyph unicode="|" horiz-adv-x="617" d="M60 21q87 139 87 455v953l-22 152h22l-22 43v44q0 21 22 21q-22 53 -44 217q0 130 195 130q126 0 239 -152l-22 -108v-650q0 -49 22 -87q-22 -37 -22 -86v-44q0 -48 22 -86q-22 -38 -22 -87l22 -195l-22 -43q0 -22 22 -22l-22 -108v-238q0 -22 -22 -22l22 -43 q0 -22 -22 -22l22 -43v-22q0 -165 -217 -195h-43q-195 29 -195 238z" />
<glyph unicode="}" horiz-adv-x="1071" d="M60 2101v22q19 108 260 108h152q317 0 519 -368v-239q0 -190 -368 -736q0 -38 -43 -108q35 -152 108 -152q0 22 22 22q195 -116 195 -260q-43 -142 -325 -239v-21q303 -393 303 -564v-43q0 -168 -455 -411q-202 0 -346 130v108q0 54 238 87q152 75 152 194 q-282 406 -282 542v22q0 47 108 260q-86 155 -86 325q0 157 390 758q0 16 43 195q0 113 -152 173q-268 -22 -281 -22q-152 102 -152 217z" />
<glyph unicode="~" horiz-adv-x="2025" d="M60 563q195 541 672 541q176 -24 411 -216q34 -104 217 -195h43q120 82 217 368q10 0 86 22q239 -57 239 -217q-277 -520 -499 -520q-290 0 -628 412h-108q-203 0 -303 -325q-92 -87 -174 -87q-173 72 -173 217z" />
<glyph unicode="&#xa2;" horiz-adv-x="1136" d="M60 563q137 585 325 585q152 90 152 151q0 412 108 412q238 -33 238 -108v-412q65 -49 65 -152q0 -47 -152 -259q0 -22 22 -22l-22 -108v-260h22l152 43q86 -22 86 -130v-43q0 -148 -260 -217q0 -43 -21 -43l21 -130q0 -217 -129 -325v-22h-22q-87 0 -152 455 q-189 0 -368 303q-38 93 -65 282zM428 520q0 -160 65 -174v390h-21q0 -54 -44 -108v-108z" />
<glyph unicode="&#xa3;" horiz-adv-x="1418" d="M60 43v65q130 303 238 650q-43 79 -43 173v22q0 95 108 151q63 802 347 802h151q175 -81 282 -195v-87q-13 -65 -173 -65l-152 22q-65 -85 -130 -455h303q282 -27 282 -217v-21q0 -67 -671 -152q0 -86 -130 -476l108 -22h65l108 22q0 -44 65 -44q303 31 303 87 q151 -65 217 -195v-22q0 -173 -238 -173h-585q-20 0 -173 -43q-182 0 -282 173z" />
<glyph unicode="&#xa8;" horiz-adv-x="721" d="M60 1263q0 13 14 26l71 72q13 12 25 12q11 0 27 -14l69 -73q10 -14 10 -25q0 -13 -12 -27l-69 -75q-17 -17 -25 -17q-14 0 -25 12l-76 86q-9 12 -9 23zM425 1263q0 13 14 26l71 72q13 12 25 12q11 0 27 -13l69 -74q10 -14 10 -25q0 -13 -12 -26l-69 -76q-17 -17 -25 -17 q-14 0 -25 12l-76 87q-9 11 -9 22z" />
<glyph unicode="&#xa9;" horiz-adv-x="2352" d="M161 974q82 902 650 1084q103 0 281 -152h195q670 0 802 -693q65 -157 65 -325v-22q0 -692 -650 -975q-235 -65 -455 -65h-87q-21 0 -21 22q-22 0 -22 -22q-303 0 -585 390q-173 287 -173 758zM486 974q0 -639 390 -844q16 0 130 -22q550 0 780 520q21 38 21 87v173 q0 21 22 21q-119 672 -368 672l-130 22l-44 -22l-130 22l-130 -22l-43 22q-411 -97 -411 -304q-22 0 -87 -325zM638 931q0 353 368 563h173q129 0 217 -130v-86q-18 -48 -325 -195q0 -34 -44 -87v-43q0 -118 130 -152q135 43 217 43q58 -14 108 -108v-65q-64 -173 -260 -173 h-130q-293 0 -433 325z" />
<glyph unicode="&#xad;" d="M123 628v22q42 98 87 108h238q22 0 22 -22l476 87h43q217 -101 217 -217q-61 -216 -130 -216h-65q-20 0 -173 43h-217l-216 -22v22l-44 -22q-122 0 -238 217z" />
<glyph unicode="&#xae;" horiz-adv-x="2371" d="M60 801h22q0 22 -22 22q113 1278 628 1278h65q0 -94 737 -130q338 -87 498 -282q303 -689 303 -1039q-43 -388 -173 -672q-494 -693 -1083 -693q-417 0 -758 606q-217 469 -217 910zM407 736q0 -366 173 -693q210 -455 498 -455h87q392 129 650 542q130 270 130 541 q-122 997 -499 997q-325 15 -325 43q-21 0 -21 -22l-87 22q-238 0 -476 -173q-130 -451 -130 -650v-152zM710 1321h22l-22 43v130q0 94 303 109v-22q22 0 22 22q650 0 650 -412q0 -175 -369 -455q58 -70 455 -325l22 -86q-43 -152 -173 -152h-109q-65 123 -433 282v-239 q-59 -151 -87 -151h-108q-151 0 -151 216v888zM1078 996h22q148 65 195 173v109q-23 0 -65 21q-38 -21 -87 -21q0 21 -22 21q-43 -79 -43 -173v-130z" />
<glyph unicode="&#xb1;" horiz-adv-x="1851" d="M60 21q0 195 433 195h174q65 22 65 130v239q-49 0 -87 21q-42 -21 -65 -21q-132 0 -238 151v22q0 173 216 173q139 0 152 65q0 110 -65 347q56 139 108 151h108q195 -58 195 -216v-239l217 22q22 0 22 -22q21 0 21 22q239 -21 239 -217v-21q0 -173 -174 -173h-43 q-28 0 -238 43h-22v-347l-22 -43q42 -22 65 -22q95 0 412 87q238 0 238 -217q0 -108 -195 -173q-86 22 -151 22q-81 -61 -975 -130v21l-43 -21h-174q-60 0 -173 86v65z" />
<glyph unicode="&#xb4;" horiz-adv-x="601" d="M60 1078l291 297q35 35 55.5 47t40.5 12q33 0 53.5 -20t20.5 -51q0 -22 -15.5 -42t-46.5 -40l-330 -203h-69z" />
<glyph unicode="&#xb8;" horiz-adv-x="548" d="M60 -290q85 -52 152 -52q66 0 94.5 21.5t28.5 66.5t-49 64q-40 16 -102 16q-16 0 -34 -2l48 176h63l-37 -104q32 4 62 5q86 0 134 -40.5t48 -113.5q0 -76 -58.5 -120.5t-160.5 -44.5q-109 0 -189 32v96z" />
<glyph unicode="&#x2c6;" horiz-adv-x="722" d="M60 1079l232 355h118l232 -355h-58l-233 216l-233 -216h-58z" />
<glyph unicode="&#x2dc;" horiz-adv-x="714" d="M60 1132q19 106 68 158.5t129 52.5q46 -1 113 -24q64 -23 112 -23h4q36 0 58 20t36 66h54q-20 -103 -68.5 -154t-126.5 -51h-4q-50 0 -113 23q-66 24 -114 24q-39 0 -60.5 -20.5t-33.5 -71.5h-54z" />
<glyph unicode="&#x2000;" horiz-adv-x="1137" />
<glyph unicode="&#x2001;" horiz-adv-x="2274" />
<glyph unicode="&#x2002;" horiz-adv-x="1137" />
<glyph unicode="&#x2003;" horiz-adv-x="2274" />
<glyph unicode="&#x2004;" horiz-adv-x="758" />
<glyph unicode="&#x2005;" horiz-adv-x="568" />
<glyph unicode="&#x2006;" horiz-adv-x="379" />
<glyph unicode="&#x2007;" horiz-adv-x="379" />
<glyph unicode="&#x2008;" horiz-adv-x="284" />
<glyph unicode="&#x2009;" horiz-adv-x="454" />
<glyph unicode="&#x200a;" horiz-adv-x="126" />
<glyph unicode="&#x2010;" d="M123 628v22q42 98 87 108h238q22 0 22 -22l476 87h43q217 -101 217 -217q-61 -216 -130 -216h-65q-20 0 -173 43h-217l-216 -22v22l-44 -22q-122 0 -238 217z" />
<glyph unicode="&#x2011;" d="M123 628v22q42 98 87 108h238q22 0 22 -22l476 87h43q217 -101 217 -217q-61 -216 -130 -216h-65q-20 0 -173 43h-217l-216 -22v22l-44 -22q-122 0 -238 217z" />
<glyph unicode="&#x2012;" d="M123 628v22q42 98 87 108h238q22 0 22 -22l476 87h43q217 -101 217 -217q-61 -216 -130 -216h-65q-20 0 -173 43h-217l-216 -22v22l-44 -22q-122 0 -238 217z" />
<glyph unicode="&#x2013;" horiz-adv-x="1424" d="M123 628v22q40 98 82 108h225q21 0 21 -22l450 87h41q205 -101 205 -217q-58 -216 -123 -216h-61q-19 0 -164 43h-205l-204 -22v22l-42 -22q-115 0 -225 217z" />
<glyph unicode="&#x2014;" horiz-adv-x="2448" d="M123 628v22q79 98 165 108h450q41 0 41 -22l900 87h82q410 -101 410 -217q-115 -216 -246 -216h-123q-38 0 -327 43h-410l-409 -22v22l-83 -22q-231 0 -450 217z" />
<glyph unicode="&#x2018;" horiz-adv-x="638" d="M60 1283v87q174 628 303 628q0 43 108 43q53 -43 87 -43v-22q0 -114 -152 -671q0 -96 -108 -152q-238 56 -238 130z" />
<glyph unicode="&#x2019;" horiz-adv-x="638" d="M60 1196v22q0 114 152 671q0 96 108 152q238 -56 238 -130v-87q-174 -628 -303 -628q0 -43 -108 -43q-53 43 -87 43z" />
<glyph unicode="&#x201c;" horiz-adv-x="1335" d="M60 1283v87q174 628 303 628q0 43 108 43q53 -43 87 -43v-22q0 -114 -152 -671q0 -96 -108 -152q-238 56 -238 130zM757 1283v87q174 628 303 628q0 43 108 43q53 -43 87 -43v-22q0 -114 -152 -671q0 -96 -108 -152q-238 56 -238 130z" />
<glyph unicode="&#x201d;" horiz-adv-x="1335" d="M60 1196v22q0 114 152 671q0 96 108 152q238 -56 238 -130v-87q-174 -628 -303 -628q0 -43 -108 -43q-53 43 -87 43zM757 1196v22q0 114 152 671q0 96 108 152q238 -56 238 -130v-87q-174 -628 -303 -628q0 -43 -108 -43q-53 43 -87 43z" />
<glyph unicode="&#x2022;" horiz-adv-x="747" d="M60 780q0 324 282 324q325 -96 325 -324v-44q0 -175 -260 -325h-152q-195 132 -195 369z" />
<glyph unicode="&#x2026;" horiz-adv-x="1810" d="M60 236l75 131q63 25 118 25q58 0 106 -28q100 -79 100 -168q0 -48 -29 -98q-65 -112 -152 -112q-45 0 -95 29q-123 71 -123 221zM695 236l75 131q63 25 118 25q58 0 106 -28q101 -79 101 -167q0 -48 -30 -99q-64 -112 -152 -112q-44 0 -95 29q-123 71 -123 221z M1330 236l76 131q63 25 117 25q58 0 106 -28q101 -79 101 -168q0 -48 -29 -98q-65 -112 -153 -112q-44 0 -95 29q-123 71 -123 221z" />
<glyph unicode="&#x202f;" horiz-adv-x="454" />
<glyph unicode="&#x205f;" horiz-adv-x="568" />
<glyph unicode="&#x20ac;" horiz-adv-x="1292" d="M81 650q182 410 260 498q0 124 541 216h44q180 0 195 -238q-45 -130 -174 -130l-43 22q-22 0 -22 -22l-108 22h-43q-173 -119 -173 -238h173l216 21q65 -79 65 -151v-44q0 -108 -411 -151q0 -51 195 -87q102 38 238 65q130 0 152 -173v-44q0 -98 -433 -173h-65 q-355 0 -564 455q-36 0 -43 152z" />
<glyph unicode="&#x2122;" horiz-adv-x="2263" d="M60 1603v130q0 54 87 65q153 0 303 -44q425 87 498 87h65q166 0 195 -238q137 0 217 -217q55 -108 86 -108q152 455 282 455h22q281 0 281 -824q16 -6 87 -281q0 -152 -152 -152h-21q-22 0 -22 22l-43 -22q-130 0 -174 455q-94 -153 -173 -173q-260 28 -260 151h-22v-86 l22 -152q0 -151 -282 -151q-42 21 -65 21q-15 347 -43 347l22 108v498q-65 0 -65 22q-130 -14 -130 -87q0 -117 43 -325l-22 -43q22 -148 22 -238q0 -368 -238 -368q-87 21 -87 86q0 910 -130 910q-197 0 -303 152z" />
<glyph unicode="&#xe000;" horiz-adv-x="1235" d="M0 0v1235h1235v-1235h-1235z" />
</font>
</defs>
</svg>
