<?xml version="1.0" standalone="no"?>
<!DOCTYPE svg PUBLIC "-//W3C//DTD SVG 1.1//EN" "http://www.w3.org/Graphics/SVG/1.1/DTD/svg11.dtd" >
<svg xmlns="http://www.w3.org/2000/svg">
<metadata>
Created by FontPrep 20130207 at Fri Oct 18 12:16:33 2013
 By Tom Taylor
[c] Copyright 2011, BaseLab. All rights reserved.
</metadata>
<defs>
<font id="3717f59c18d9849aeebd58c21494f055" horiz-adv-x='1024' >
  <font-face 
    font-family="adiNeue-Bold"
    font-weight="700"
    font-stretch="normal"
    units-per-em="2048"
    panose-1="2 11 8 3 2 2 1 6 0 4"
    ascent="1556"
    descent="-492"
    x-height="1047"
    cap-height="1401"
    bbox="-227 -471 2204 1812"
    underline-thickness="237"
    underline-position="-8"
    unicode-range="U+0020-FB02"
  />
<missing-glyph horiz-adv-x="819" 
d="M0 0v1401h819v-1401h-819zM238 195h186v186h-186v-186zM238 451h186v127q129 10 215 101t86 223t-95 225t-235 94q-98 -1 -178 -51t-121 -132l156 -86q16 43 55 71t95 28t102 -44q46 -45 45 -107q0 -62 -43 -107t-105 -45h-163v-297z" />
    <glyph glyph-name=".notdef" horiz-adv-x="819" 
d="M0 0v1401h819v-1401h-819zM238 195h186v186h-186v-186zM238 451h186v127q129 10 215 101t86 223t-95 225t-235 94q-98 -1 -178 -51t-121 -132l156 -86q16 43 55 71t95 28t102 -44q46 -45 45 -107q0 -62 -43 -107t-105 -45h-163v-297z" />
    <glyph glyph-name=".null" horiz-adv-x="0" 
 />
    <glyph glyph-name="nonmarkingreturn" horiz-adv-x="681" 
 />
    <glyph glyph-name="space" unicode=" " horiz-adv-x="409" 
 />
    <glyph glyph-name="exclam" unicode="!" horiz-adv-x="438" 
d="M90 354v1047h258v-1047h-258zM90 0v258h258v-258h-258z" />
    <glyph glyph-name="quotedbl" unicode="&#x22;" horiz-adv-x="712" 
d="M401 850v551h258l-36 -551h-222zM66 850v551h258l-37 -551h-221z" />
    <glyph glyph-name="numbersign" unicode="#" horiz-adv-x="1228" 
d="M496 502h217l18 209h-217zM66 272v230h196l19 209h-215v229h233l25 272h233l-25 -272h218l24 272h234l-25 -272h180v-229h-198l-19 -209h217v-230h-235l-23 -272h-233l22 272h-217l-22 -272h-234l23 272h-178z" />
    <glyph glyph-name="dollar" unicode="$" horiz-adv-x="987" 
d="M330 852q0 -57 96 -86v166q-96 -18 -96 -80zM682 377q0 68 -117 92v-201q55 12 86 42t31 67zM426 -82v150q-186 16 -289 109q-102 93 -108 247h272q0 -47 32 -89t93 -61v213q-373 49 -373 318q1 141 99 232t274 106v149h139v-151q164 -17 259 -107t106 -231h-262
q-12 104 -103 127v-191q175 -27 281 -87q126 -72 125 -236q0 -164 -111 -250t-295 -98v-150h-139z" />
    <glyph glyph-name="percent" unicode="%" horiz-adv-x="1609" 
d="M399 0l574 1401h246l-574 -1401h-246zM1247 162q45 0 76 33t31 75v207q0 47 -31 78t-76 31t-76 -31t-30 -78v-207q1 -44 31 -76t75 -32zM1247 -23q-127 0 -212 86t-85 207v207q0 123 85 208t212 85t212 -85t85 -208v-207q0 -121 -85 -207t-212 -86zM362 803q45 0 76 33
t31 75v207q0 47 -31 78t-76 31q-46 0 -76 -31t-30 -78v-207q0 -43 30 -75t76 -33zM362 618q-128 0 -212 86t-84 207v207q0 123 85 208t211 85t212 -85q85 -85 85 -208v-207q0 -121 -85 -207t-212 -86z" />
    <glyph glyph-name="ampersand" unicode="&#x26;" horiz-adv-x="1175" 
d="M471 1006q-45 0 -70 -26t-25 -72t75 -136q115 63 114 143q0 39 -24 65q-25 26 -70 26zM443 207q85 0 169 74q-139 109 -243 219q-98 -59 -99 -144q0 -61 44 -105t129 -44zM438 -23q-188 -1 -301 101t-112 260q0 211 206 326q-90 136 -90 260t93 218t239 93q146 0 237 -89
t91 -231q0 -180 -199 -303q90 -84 172 -149l146 186l182 -143l-139 -184q90 -63 204 -138l-129 -209q-156 102 -229 156q-84 -84 -169 -119t-202 -35z" />
    <glyph glyph-name="quotesingle" unicode="'" horiz-adv-x="376" 
d="M66 850v551h258l-37 -551h-221z" />
    <glyph glyph-name="parenleft" unicode="(" horiz-adv-x="610" 
d="M49 654q0 472 328 810l182 -161q-264 -271 -264 -651t266 -652l-182 -160q-330 342 -330 814z" />
    <glyph glyph-name="parenright" unicode=")" horiz-adv-x="610" 
d="M315 652q0 380 -264 651l182 161q328 -338 328 -810t-330 -814l-182 160q266 272 266 652z" />
    <glyph glyph-name="asterisk" unicode="*" horiz-adv-x="671" 
d="M254 772v176l-152 -88l-77 139l151 88l-151 89l77 139l152 -88v174h164v-174l151 88l78 -139l-153 -89l153 -88l-78 -139l-151 88v-176h-164z" />
    <glyph glyph-name="plus" unicode="+" horiz-adv-x="868" 
d="M305 184v295h-280v254h280v295h258v-295h281v-254h-281v-295h-258z" />
    <glyph glyph-name="comma" unicode="," horiz-adv-x="389" 
d="M66 0v270h258v-258l-43 -139h-152l18 127h-81z" />
    <glyph glyph-name="hyphen" unicode="-" horiz-adv-x="729" 
d="M66 401v242h598v-242h-598z" />
    <glyph glyph-name="period" unicode="." horiz-adv-x="389" 
d="M66 0v270h258v-270h-258z" />
    <glyph glyph-name="slash" unicode="/" horiz-adv-x="667" 
d="M16 0l369 1401h266l-368 -1401h-267z" />
    <glyph glyph-name="zero" unicode="0" horiz-adv-x="1019" 
d="M510 215q94 0 161 67t66 160v328q0 94 -66 161q-67 67 -161 67t-161 -68q-67 -66 -66 -160v-328q1 -94 67 -160t160 -67zM510 -23q-203 -1 -338 135t-135 330v328q0 195 135 330t338 135t338 -135t135 -330v-328q0 -195 -135 -330t-338 -135z" />
    <glyph glyph-name="one" unicode="1" horiz-adv-x="503" 
d="M180 0v973h-151v239h409v-1212h-258z" />
    <glyph glyph-name="two" unicode="2" horiz-adv-x="866" 
d="M37 0v238l483 436q82 74 82 148t-52 126q-52 51 -120 51t-116 -35q-48 -36 -62 -90l-227 66q47 139 157 217q111 78 240 78q174 0 295 -120t121 -290q0 -104 -38 -180t-130 -156l-297 -251h465v-238h-801z" />
    <glyph glyph-name="three" unicode="3" horiz-adv-x="913" 
d="M881 428q-1 -186 -135 -318t-324 -133q-137 0 -248 70t-166 184l217 121q23 -61 77 -99t131 -38q77 1 139 63t63 150t-61 148t-143 61q-81 0 -140 -39l-111 197l254 180h-348v237h727v-237l-195 -139q119 -55 191 -165t72 -243z" />
    <glyph glyph-name="four" unicode="4" horiz-adv-x="950" 
d="M555 410v368l-248 -368h248zM555 0v172h-539v238l539 802h258v-802h117v-238h-117v-172h-258z" />
    <glyph glyph-name="five" unicode="5" horiz-adv-x="937" 
d="M446 -23q-138 0 -248 69t-165 183l217 123q23 -61 77 -99q55 -38 131 -38q76 1 138 63t63 150q0 88 -61 148t-152 61q-125 0 -186 -109l-201 115l68 569h670v-237h-461l-12 -117q61 16 122 16q193 0 326 -130t133 -316q-1 -186 -135 -318t-324 -133z" />
    <glyph glyph-name="six" unicode="6" horiz-adv-x="983" 
d="M492 215q88 1 150 63t63 150t-61 148t-151 61q-89 0 -151 -60q-62 -61 -61 -149q-1 -88 61 -150t150 -63zM492 -23q-193 1 -326 131t-133 318q0 106 61 225l293 561h277l-179 -338q203 0 334 -130t131 -316t-132 -318t-326 -133z" />
    <glyph glyph-name="seven" unicode="7" horiz-adv-x="843" 
d="M12 975v237h815v-237l-454 -975h-275l455 975h-541z" />
    <glyph glyph-name="eight" unicode="8" horiz-adv-x="892" 
d="M346 903q0 -41 30 -71t69 -31q40 1 71 31t31 71t-31 72t-71 31q-39 0 -69 -31t-30 -72zM268 391q0 -74 52 -126t126 -52t126 52t53 126q-1 74 -53 124t-127 50t-126 -50t-51 -124zM446 -23q-172 0 -292 121t-121 301q0 180 143 301q-66 88 -66 215t98 223q97 96 237 97
q141 0 239 -96q98 -95 98 -223t-67 -214q145 -123 145 -303t-121 -301t-293 -121z" />
    <glyph glyph-name="nine" unicode="9" horiz-adv-x="983" 
d="M492 997q-88 0 -150 -62q-62 -63 -63 -151t61 -148t151 -61q89 1 150 61t61 148t-61 150t-149 63zM33 784q0 186 133 318t326 133q194 0 326 -130t132 -319q0 -106 -61 -225l-293 -561h-277l179 338q-203 0 -334 130t-131 316z" />
    <glyph glyph-name="colon" unicode=":" horiz-adv-x="389" 
d="M66 633v270h258v-270h-258zM66 141v271h258v-271h-258z" />
    <glyph glyph-name="semicolon" unicode=";" horiz-adv-x="389" 
d="M66 633v270h258v-270h-258zM66 143v271h258v-258l-43 -140h-152l18 127h-81z" />
    <glyph glyph-name="less" unicode="&#x3c;" horiz-adv-x="868" 
d="M844 168l-819 332v217l819 330v-275l-449 -166l449 -162v-276z" />
    <glyph glyph-name="equal" unicode="=" horiz-adv-x="868" 
d="M25 664v254h819v-254h-819zM25 295v254h819v-254h-819z" />
    <glyph glyph-name="greater" unicode="&#x3e;" horiz-adv-x="868" 
d="M25 168v276l448 162l-448 166v275l819 -330v-217z" />
    <glyph glyph-name="question" unicode="?" horiz-adv-x="909" 
d="M276 0v258h259v-258h-259zM276 354v396q150 8 210 23t104 73q45 58 45 138q1 81 -61 141q-62 61 -141 61t-133 -38t-77 -97l-215 118q57 115 168 185t246 69q193 0 326 -130t133 -302q1 -172 -97 -293t-249 -157v-187h-259z" />
    <glyph glyph-name="at" unicode="@" horiz-adv-x="1708" 
d="M815 291q94 -1 166 69t72 163t-72 163t-166 70t-164 -70q-69 -70 -69 -163t69 -163q70 -69 164 -69zM868 -272q-346 0 -582 232t-237 565q0 333 238 562t599 229t567 -223q206 -224 206 -556q0 -197 -80 -323t-251 -126t-228 123q-84 -123 -276 -123t-321 127
q-128 127 -128 308t129 307t313 126q147 0 236 -75v67h213v-555q0 -111 106 -110q70 0 104 56t33 183q0 285 -159 470q-160 186 -462 186t-495 -188t-193 -464t192 -468t458 -191q266 0 444 141l76 -121q-211 -159 -502 -159z" />
    <glyph glyph-name="A" unicode="A" horiz-adv-x="1202" 
d="M565 217q123 0 213 90t90 211t-90 211t-213 90t-213 -90t-90 -211t90 -211t213 -90zM565 -23q-227 0 -388 159t-161 383t160 381t389 157q170 0 303 -94v84h256v-1047h-256v70q-135 -93 -303 -93z" />
    <glyph glyph-name="B" unicode="B" horiz-adv-x="1202" 
d="M625 217q125 0 214 90t89 211t-89 211t-214 90t-214 -90t-89 -211t89 -211t214 -90zM625 -23q-168 0 -303 93v-70h-256v1401h256v-438q133 94 303 94q229 0 389 -157t160 -381t-161 -383t-388 -159z" />
    <glyph glyph-name="C" unicode="C" horiz-adv-x="1056" 
d="M569 -23q-227 0 -388 159t-161 383t160 381t389 157q307 0 467 -252l-217 -121q-96 135 -250 135q-123 0 -213 -90t-90 -211t90 -211t213 -90q158 0 250 133l215 -119q-162 -254 -465 -254z" />
    <glyph glyph-name="D" unicode="D" horiz-adv-x="1202" 
d="M569 217q123 0 213 90t90 211t-90 211t-213 90t-213 -90t-90 -211t90 -211t213 -90zM569 -23q-227 0 -388 159t-161 383t160 381t389 157q170 0 303 -94v438h256v-1401h-256v70q-135 -93 -303 -93z" />
    <glyph glyph-name="E" unicode="E" horiz-adv-x="1155" 
d="M569 819q-91 0 -167 -51t-113 -133h557q-78 184 -277 184zM590 -23q-246 0 -408 154t-162 383t160 386t396 157t389 -162q154 -162 153 -393q0 -25 -4 -70h-831q33 -102 111 -159q80 -56 186 -56t171 32t115 101l215 -119q-167 -254 -491 -254z" />
    <glyph glyph-name="F" unicode="F" horiz-adv-x="702" 
d="M141 0v694h-104v238h104v45q0 246 132 346t419 90l-18 -250q-176 0 -225 -38t-50 -148v-45h236v-238h-236v-694h-258z" />
    <glyph glyph-name="G" unicode="G" horiz-adv-x="1202" 
d="M569 217q123 0 213 90t90 211t-90 211t-213 90t-213 -90t-90 -211t90 -211t213 -90zM1128 127q0 -238 -142 -372t-401 -134q-258 0 -454 105l92 221q179 -88 321 -88t235 62t93 165q-133 -106 -303 -106q-229 0 -389 156t-160 381q0 226 160 383t389 157q170 0 303 -94
v84h256v-920z" />
    <glyph glyph-name="H" unicode="H" horiz-adv-x="1095" 
d="M66 0v1401h256v-438q111 94 282 94q430 0 430 -508v-549h-256v483q0 180 -45 258t-167 78t-182 -63q-62 -63 -62 -176v-580h-256z" />
    <glyph glyph-name="I" unicode="I" horiz-adv-x="389" 
d="M66 1143v258h258v-258h-258zM66 0v1047h258v-1047h-258z" />
    <glyph glyph-name="J" unicode="J" horiz-adv-x="389" 
d="M66 1143v258h258v-258h-258zM66 80v967h258v-967q0 -236 -116 -335t-333 -99l19 248q94 14 133 52t39 134z" />
    <glyph glyph-name="K" unicode="K" horiz-adv-x="997" 
d="M66 0v1401h258v-680l327 326h310l-390 -400l428 -647h-307l-309 453l-59 -62v-391h-258z" />
    <glyph glyph-name="L" unicode="L" horiz-adv-x="389" 
d="M66 0v1401h258v-1401h-258z" />
    <glyph glyph-name="M" unicode="M" horiz-adv-x="1726" 
d="M66 0v1047h256v-84q104 94 262 94q221 0 323 -148q133 147 348 148q410 0 410 -508v-549h-256v483q0 180 -41 258q-40 78 -152 78t-167 -63t-56 -176v-580h-256v483q0 180 -41 258q-40 78 -152 78t-167 -63t-55 -176v-580h-256z" />
    <glyph glyph-name="N" unicode="N" horiz-adv-x="1095" 
d="M66 0v1047h256v-84q111 94 282 94q430 0 430 -508v-549h-256v483q0 180 -45 258t-167 78t-182 -63q-62 -63 -62 -176v-580h-256z" />
    <glyph glyph-name="O" unicode="O" horiz-adv-x="1155" 
d="M569 217q123 0 213 90t90 211t-90 211t-213 90t-213 -90t-90 -211t90 -211t213 -90zM569 -23q-227 0 -388 159t-161 383t160 381t389 157t389 -157t160 -381t-161 -383t-388 -159z" />
    <glyph glyph-name="P" unicode="P" horiz-adv-x="1202" 
d="M625 217q125 0 214 90t89 211t-89 211t-214 90t-214 -90t-89 -211t89 -211t214 -90zM66 -354v1401h256v-84q133 94 303 94q229 0 389 -157t160 -381t-161 -383t-388 -159q-168 0 -303 93v-424h-256z" />
    <glyph glyph-name="Q" unicode="Q" horiz-adv-x="1202" 
d="M569 217q123 0 213 90t90 211t-90 211t-213 90t-213 -90t-90 -211t90 -211t213 -90zM872 -354v424q-135 -92 -303 -93q-227 0 -388 159t-161 383t160 381t389 157q170 0 303 -94v84h256v-1401h-256z" />
    <glyph glyph-name="R" unicode="R" horiz-adv-x="657" 
d="M66 0v1047h258v-101q109 109 309 111l-17 -273q-170 0 -231 -59t-61 -193v-532h-258z" />
    <glyph glyph-name="S" unicode="S" horiz-adv-x="987" 
d="M967 324q0 -172 -127 -260t-343 -87t-340 95t-132 264h272q6 -68 57 -112q50 -44 140 -44t136 32t46 69t-22 62t-81 36q-59 10 -112 16q-208 24 -304 94q-42 31 -75 91t-33 137q0 154 115 247q116 93 316 93t317 -92t129 -250h-262q-4 39 -14 65t-52 50q-41 24 -113 24
q-73 0 -115 -25t-42 -60t14 -47q14 -13 36 -29t80 -25q57 -9 131 -21q280 -46 348 -180q30 -59 30 -143z" />
    <glyph glyph-name="T" unicode="T" horiz-adv-x="698" 
d="M623 -6q-238 0 -362 94t-124 342v379h-125v238h125v274h258v-274h236v-238h-236v-379q0 -108 48 -146t219 -40l16 -250h-55z" />
    <glyph glyph-name="U" unicode="U" horiz-adv-x="1087" 
d="M492 -10q-430 0 -431 508v549h256v-484q0 -180 45 -258t167 -78q121 -1 183 63t62 177v580h256v-1047h-256v84q-110 -94 -282 -94z" />
    <glyph glyph-name="V" unicode="V" horiz-adv-x="1021" 
d="M350 0l-338 1047h269l231 -730l236 730h262l-338 -1047h-322z" />
    <glyph glyph-name="W" unicode="W" horiz-adv-x="1552" 
d="M309 0l-297 1047h258l189 -678l190 678h264l189 -678l190 678h248l-297 -1047h-297l-172 623l-172 -623h-293z" />
    <glyph glyph-name="X" unicode="X" horiz-adv-x="1044" 
d="M4 0l363 557l-318 490h307l166 -261l166 261h307l-317 -490l362 -557h-307l-211 326l-211 -326h-307z" />
    <glyph glyph-name="Y" unicode="Y" horiz-adv-x="1005" 
d="M313 -379q-129 0 -202 29l36 239q49 -10 95 -10q106 0 106 92q0 39 -47 189l-289 887h271l221 -717l225 717h264l-313 -979q-82 -256 -160 -352t-207 -95z" />
    <glyph glyph-name="Z" unicode="Z" horiz-adv-x="974" 
d="M29 0v227l555 590h-529v230h867v-230l-555 -590h591v-227h-929z" />
    <glyph glyph-name="bracketleft" unicode="[" horiz-adv-x="595" 
d="M66 -354v1755h493v-238h-235v-1280h235v-237h-493z" />
    <glyph glyph-name="backslash" unicode="\" horiz-adv-x="667" 
d="M385 0l-369 1401h267l368 -1401h-266z" />
    <glyph glyph-name="bracketright" unicode="]" horiz-adv-x="595" 
d="M37 -354v237h235v1280h-235v238h493v-1755h-493z" />
    <glyph glyph-name="asciicircum" unicode="^" horiz-adv-x="868" 
d="M156 752l-131 217l409 338l410 -338l-131 -217l-279 243z" />
    <glyph glyph-name="underscore" unicode="_" horiz-adv-x="688" 
d="M-16 -242v242h721v-242h-721z" />
    <glyph glyph-name="grave" unicode="`" horiz-adv-x="819" 
d="M588 1020l-441 113l58 229l434 -139z" />
    <glyph glyph-name="a" unicode="a" horiz-adv-x="1202" 
d="M578 217q123 0 213 90t90 211t-90 211t-213 90t-213 -90q-91 -90 -91 -211t90 -211t214 -90zM578 -23q-227 0 -389 159q-161 159 -161 383t160 381t390 157q170 0 303 -94v84h256v-1047h-256v70q-135 -93 -303 -93z" />
    <glyph glyph-name="b" unicode="b" horiz-adv-x="1202" 
d="M625 217q125 0 214 90t89 211t-89 211t-214 90t-214 -90t-89 -211t89 -211t214 -90zM625 -23q-168 0 -303 93v-70h-256v1401h256v-438q133 94 303 94q229 0 389 -157t160 -381t-161 -383t-388 -159z" />
    <glyph glyph-name="c" unicode="c" horiz-adv-x="1060" 
d="M578 -23q-227 0 -389 159q-161 159 -161 383t160 381t390 157q307 0 466 -252l-217 -121q-96 135 -249 135q-123 0 -213 -90q-91 -90 -91 -211t90 -211t214 -90q158 0 249 133l215 -119q-161 -254 -464 -254z" />
    <glyph glyph-name="d" unicode="d" horiz-adv-x="1202" 
d="M578 217q123 0 213 90t90 211t-90 211t-213 90t-213 -90q-91 -90 -91 -211t90 -211t214 -90zM578 -23q-227 0 -389 159q-161 159 -161 383t160 381t390 157q170 0 303 -94v438h256v-1401h-256v70q-135 -93 -303 -93z" />
    <glyph glyph-name="e" unicode="e" horiz-adv-x="1159" 
d="M578 819q-92 0 -168 -51t-113 -133h557q-78 184 -276 184zM598 -23q-246 0 -408 154t-162 383t160 386t396 157t390 -162t152 -393q0 -25 -4 -70h-831q33 -102 111 -159q80 -56 186 -56t171 32t115 101l216 -119q-168 -254 -492 -254z" />
    <glyph glyph-name="f" unicode="f" horiz-adv-x="702" 
d="M141 0v694h-104v238h104v45q0 246 132 346t419 90l-18 -250q-176 0 -225 -38t-50 -148v-45h236v-238h-236v-694h-258z" />
    <glyph glyph-name="g" unicode="g" horiz-adv-x="1202" 
d="M578 217q123 0 213 90t90 211t-90 211t-213 90t-213 -90q-91 -90 -91 -211t90 -211t214 -90zM1137 127q-1 -238 -143 -372t-400 -134t-455 105l92 221q180 -88 322 -88q143 0 235 62t93 165q-133 -106 -303 -106q-229 0 -390 155q-160 156 -160 382t160 383t390 157
q170 0 303 -94v84h256v-920z" />
    <glyph glyph-name="h" unicode="h" horiz-adv-x="1095" 
d="M66 0v1401h256v-438q111 94 282 94q430 0 430 -508v-549h-256v483q0 180 -45 258t-167 78t-182 -63q-62 -63 -62 -176v-580h-256z" />
    <glyph glyph-name="i" unicode="i" horiz-adv-x="389" 
d="M66 1143v258h258v-258h-258zM66 0v1047h258v-1047h-258z" />
    <glyph glyph-name="j" unicode="j" horiz-adv-x="389" 
d="M66 1143v258h258v-258h-258zM66 80v967h258v-967q0 -236 -116 -335t-333 -99l19 248q94 14 133 52t39 134z" />
    <glyph glyph-name="k" unicode="k" horiz-adv-x="997" 
d="M66 0v1401h258v-680l327 326h310l-390 -400l428 -647h-307l-309 453l-59 -62v-391h-258z" />
    <glyph glyph-name="l" unicode="l" horiz-adv-x="389" 
d="M66 0v1401h258v-1401h-258z" />
    <glyph glyph-name="m" unicode="m" horiz-adv-x="1726" 
d="M66 0v1047h256v-84q104 94 262 94q221 0 323 -148q133 147 348 148q410 0 410 -508v-549h-256v483q0 180 -41 258q-40 78 -152 78t-167 -63t-56 -176v-580h-256v483q0 180 -41 258q-40 78 -152 78t-167 -63t-55 -176v-580h-256z" />
    <glyph glyph-name="n" unicode="n" horiz-adv-x="1095" 
d="M66 0v1047h256v-84q111 94 282 94q430 0 430 -508v-549h-256v483q0 180 -45 258t-167 78t-182 -63q-62 -63 -62 -176v-580h-256z" />
    <glyph glyph-name="o" unicode="o" horiz-adv-x="1155" 
d="M578 217q123 0 213 90t90 211t-90 211t-213 90t-213 -90q-91 -90 -91 -211t90 -211t214 -90zM578 -23q-227 0 -389 159q-161 159 -161 383t160 381t390 157t389 -157t159 -381t-160 -383t-388 -159z" />
    <glyph glyph-name="p" unicode="p" horiz-adv-x="1202" 
d="M625 217q125 0 214 90t89 211t-89 211t-214 90t-214 -90t-89 -211t89 -211t214 -90zM66 -354v1401h256v-84q133 94 303 94q229 0 389 -157t160 -381t-161 -383t-388 -159q-168 0 -303 93v-424h-256z" />
    <glyph glyph-name="q" unicode="q" horiz-adv-x="1202" 
d="M578 217q123 0 213 90t90 211t-90 211t-213 90t-213 -90q-91 -90 -91 -211t90 -211t214 -90zM881 -354v424q-135 -92 -303 -93q-227 0 -389 159q-161 159 -161 383t160 381t390 157q170 0 303 -94v84h256v-1401h-256z" />
    <glyph glyph-name="r" unicode="r" horiz-adv-x="657" 
d="M66 0v1047h258v-101q109 109 309 111l-17 -273q-170 0 -231 -59t-61 -193v-532h-258z" />
    <glyph glyph-name="s" unicode="s" horiz-adv-x="987" 
d="M967 324q0 -172 -127 -260t-343 -87t-340 95t-132 264h272q6 -68 57 -112q50 -44 140 -44t136 32t46 69t-22 62t-81 36q-59 10 -112 16q-208 24 -304 94q-42 31 -75 91t-33 137q0 154 115 247q116 93 316 93t317 -92t129 -250h-262q-4 39 -14 65t-52 50q-41 24 -113 24
q-73 0 -115 -25t-42 -60t14 -47q14 -13 36 -29t80 -25q57 -9 131 -21q280 -46 348 -180q30 -59 30 -143z" />
    <glyph glyph-name="t" unicode="t" horiz-adv-x="698" 
d="M623 -6q-238 0 -362 94t-124 342v379h-125v238h125v274h258v-274h236v-238h-236v-379q0 -108 48 -146t219 -40l16 -250h-55z" />
    <glyph glyph-name="u" unicode="u" horiz-adv-x="1095" 
d="M492 -10q-430 0 -431 508v549h256v-484q0 -180 45 -258t167 -78q121 -1 183 63t62 177v580h256v-1047h-256v84q-110 -94 -282 -94z" />
    <glyph glyph-name="v" unicode="v" horiz-adv-x="1021" 
d="M350 0l-338 1047h269l231 -730l236 730h262l-338 -1047h-322z" />
    <glyph glyph-name="w" unicode="w" horiz-adv-x="1552" 
d="M309 0l-297 1047h258l189 -678l190 678h264l189 -678l190 678h248l-297 -1047h-297l-172 623l-172 -623h-293z" />
    <glyph glyph-name="x" unicode="x" horiz-adv-x="1044" 
d="M4 0l363 557l-318 490h307l166 -261l166 261h307l-317 -490l362 -557h-307l-211 326l-211 -326h-307z" />
    <glyph glyph-name="y" unicode="y" horiz-adv-x="1005" 
d="M313 -379q-129 0 -202 29l36 239q49 -10 95 -10q106 0 106 92q0 39 -47 189l-289 887h271l221 -717l225 717h264l-313 -979q-82 -256 -160 -352t-207 -95z" />
    <glyph glyph-name="z" unicode="z" horiz-adv-x="974" 
d="M29 0v227l555 590h-529v230h867v-230l-555 -590h591v-227h-929z" />
    <glyph glyph-name="braceleft" unicode="{" horiz-adv-x="763" 
d="M229 74v143q0 94 -32 134q-33 40 -148 52v244q115 12 148 52t32 135v143q0 269 142 357q74 46 164 62t225 17l-19 -250q-161 0 -207 -38t-47 -148v-143q0 -188 -145 -310q145 -121 145 -307v-143q1 -111 47 -149t207 -38l19 -249q-279 0 -405 90t-126 346z" />
    <glyph glyph-name="bar" unicode="|" horiz-adv-x="389" 
d="M66 -293v1694h258v-1694h-258z" />
    <glyph glyph-name="braceright" unicode="}" horiz-adv-x="763" 
d="M276 74v143q0 186 146 307q-145 121 -146 310v143q0 111 -46 149t-207 37l-19 250q135 0 225 -16q90 -17 164 -63q142 -89 142 -357v-143q0 -94 32 -135q33 -40 148 -52v-244q-115 -12 -148 -52t-32 -134v-143q0 -256 -126 -346t-405 -90l19 249q161 0 207 38t46 149z
" />
    <glyph glyph-name="asciitilde" unicode="~" horiz-adv-x="819" 
d="M268 1311q49 0 134 -34q84 -34 140 -34t138 66l70 -181q-76 -88 -189 -88q-49 0 -131 33t-129 33q-99 0 -160 -66l-73 181q98 90 200 90z" />
    <glyph glyph-name="uni00A0" unicode="&#xa0;" horiz-adv-x="409" 
 />
    <glyph glyph-name="exclamdown" unicode="&#xa1;" horiz-adv-x="438" 
d="M90 1143v258h258v-258h-258zM90 0v1047h258v-1047h-258z" />
    <glyph glyph-name="cent" unicode="&#xa2;" horiz-adv-x="1060" 
d="M270 606q0 -80 41 -148t109 -110v516q-68 -42 -109 -110t-41 -148zM420 -82v168q-174 50 -285 194t-111 327t111 326q111 142 285 191v168h258v-155q233 -41 362 -244l-217 -121q-61 84 -145 117v-567q84 31 145 116l215 -119q-133 -209 -360 -245v-156h-258z" />
    <glyph glyph-name="sterling" unicode="&#xa3;" horiz-adv-x="1095" 
d="M57 526v176h115q-14 55 -14 123q0 178 117 295q118 117 325 117q272 0 410 -211l-209 -129q-68 102 -201 102q-90 0 -143 -51q-84 -81 -39 -246h317v-176h-254q72 -170 78 -297q61 -14 103 -14q133 0 200 102l209 -129q-63 -98 -165 -154t-188 -56q-87 0 -203 28t-205 28
t-193 -61l-19 265q90 49 209 51q-14 98 -71 237h-179z" />
    <glyph glyph-name="yen" unicode="&#xa5;" horiz-adv-x="1060" 
d="M401 0v150h-290v176h290v92h-290v176h208l-307 618h279l239 -497l240 497h279l-308 -618h211v-176h-293v-92h293v-176h-293v-150h-258z" />
    <glyph glyph-name="brokenbar" unicode="&#xa6;" horiz-adv-x="389" 
d="M66 739v662h258v-662h-258zM66 -293v662h258v-662h-258z" />
    <glyph glyph-name="section" unicode="&#xa7;" horiz-adv-x="1007" 
d="M653 686q1 102 -153 102t-154 -76t141 -98q42 -4 60 -4q106 0 106 76zM942 288q0 -148 -118 -230q-118 -81 -319 -81q-202 1 -317 89t-122 245h253q1 -57 51 -103t134 -46t127 31t43 75t-49 66q-49 20 -128 30q-224 27 -318 98q-38 30 -64 83q-27 53 -27 123
q0 131 100 221q-100 76 -100 215t106 225t293 86q186 0 296 -85t120 -232h-244q-7 92 -80 114q-33 10 -93 10t-100 -21t-40 -53q0 -60 81 -84q60 -16 143 -27q156 -21 252 -72q120 -64 120 -220q0 -155 -96 -235q96 -74 96 -222z" />
    <glyph glyph-name="dieresis" unicode="&#xa8;" horiz-adv-x="819" 
d="M451 1057v237h237v-237h-237zM131 1057v237h238v-237h-238z" />
    <glyph glyph-name="copyright" unicode="&#xa9;" horiz-adv-x="1284" 
d="M170 826q0 -188 139 -328t333 -140t334 140t140 327t-140 327t-334 140t-333 -139t-139 -327zM642 227q-255 0 -432 174t-177 424t177 424t432 174t432 -174t177 -424t-177 -424t-432 -174zM659 510q-137 0 -230 91t-93 224t93 225t230 91q180 0 275 -146l-152 -96
q-50 57 -116 57t-103 -38t-37 -92q0 -56 37 -94t103 -38t116 58l152 -97q-95 -145 -275 -145z" />
    <glyph glyph-name="ordfeminine" unicode="&#xaa;" horiz-adv-x="690" 
d="M344 1010q53 0 91 38t38 91t-38 91t-91 38t-91 -38t-38 -91t38 -91t91 -38zM344 864q-115 0 -197 81q-81 81 -81 195t82 194t196 79q66 0 131 -31v25h150v-535h-150v23q-57 -31 -131 -31z" />
    <glyph glyph-name="guillemotleft" unicode="&#xab;" horiz-adv-x="1038" 
d="M735 78l-246 440l246 443h226l-246 -443l246 -440h-226zM344 78l-246 440l246 443h225l-245 -443l245 -440h-225z" />
    <glyph glyph-name="registered" unicode="&#xae;" horiz-adv-x="1267" 
d="M162 826q0 -188 139 -328t333 -140t334 140t140 327t-140 327t-334 140t-333 -139t-139 -327zM634 227q-255 0 -432 174t-177 424t177 424t432 174t432 -174t177 -424t-177 -424t-432 -174zM436 516v610h191v-82q78 84 227 89l-8 -187q-129 0 -174 -30t-45 -111v-289
h-191z" />
    <glyph glyph-name="macron" unicode="&#xaf;" horiz-adv-x="819" 
d="M131 1061v229h557v-229h-557z" />
    <glyph glyph-name="degree" unicode="&#xb0;" horiz-adv-x="890" 
d="M444 721q53 0 93 39q39 39 38 92v76q0 53 -38 92q-39 39 -93 39t-91 -39q-38 -39 -38 -92v-76q0 -53 38 -92t91 -39zM444 543q-135 0 -224 90t-89 219v76q0 129 89 219t224 90q136 0 226 -90t90 -219v-76q0 -129 -90 -219t-226 -90z" />
    <glyph glyph-name="plusminus" unicode="&#xb1;" horiz-adv-x="868" 
d="M25 33v254h819v-254h-819zM305 336v295h-280v254h280v295h258v-295h281v-254h-281v-295h-258z" />
    <glyph glyph-name="acute" unicode="&#xb4;" horiz-adv-x="819" 
d="M231 1020l-51 203l434 139l58 -229z" />
    <glyph glyph-name="paragraph" unicode="&#xb6;" horiz-adv-x="958" 
d="M750 0v1401h143v-1401h-143zM483 0v504q-193 0 -325 130t-133 317q0 187 134 319t324 131h144v-1401h-144z" />
    <glyph glyph-name="periodcentered" unicode="&#xb7;" horiz-adv-x="389" 
d="M66 393v258h258v-258h-258z" />
    <glyph glyph-name="cedilla" unicode="&#xb8;" horiz-adv-x="819" 
d="M416 -414q-74 0 -126 52t-52 124q0 74 52 125t126 52v71h119v-184h-119q-25 0 -42 -18q-18 -18 -18 -45q0 -26 18 -43t42 -17q25 0 42 17t17 42h119q0 -74 -52 -125t-126 -51z" />
    <glyph glyph-name="ordmasculine" unicode="&#xba;" horiz-adv-x="690" 
d="M344 1008q53 0 92 39t39 91t-39 91t-92 39t-92 -39t-39 -91t39 -91t92 -39zM345 864q-116 0 -198 81q-81 81 -81 195t82 194t197 79q116 0 198 -80q82 -81 82 -195t-82 -194t-198 -80z" />
    <glyph glyph-name="guillemotright" unicode="&#xbb;" horiz-adv-x="1038" 
d="M549 518l-246 -440h-225l246 440l-246 443h225zM940 518l-246 -440h-225l246 440l-246 443h225z" />
    <glyph glyph-name="questiondown" unicode="&#xbf;" horiz-adv-x="909" 
d="M375 1143v258h258v-258h-258zM487 -23q-193 1 -325 131t-133 302q0 172 97 292t249 158v187h258v-396q-149 -8 -209 -23q-60 -14 -105 -72t-45 -139t62 -141t140 -61q79 0 133 38t77 97l215 -119q-57 -115 -168 -185t-246 -69z" />
    <glyph glyph-name="Agrave" unicode="&#xc0;" horiz-adv-x="1206" 
d="M715 1116l-441 113l58 229l434 -139zM569 217q123 0 213 90t90 211t-90 211t-213 90t-213 -90t-90 -211t90 -211t213 -90zM569 -23q-227 0 -388 159t-161 383t160 381t389 157q170 0 303 -94v84h256v-1047h-256v70q-135 -93 -303 -93z" />
    <glyph glyph-name="Aacute" unicode="&#xc1;" horiz-adv-x="1206" 
d="M449 1116l-52 203l434 139l58 -229zM569 217q123 0 213 90t90 211t-90 211t-213 90t-213 -90t-90 -211t90 -211t213 -90zM569 -23q-227 0 -388 159t-161 383t160 381t389 157q170 0 303 -94v84h256v-1047h-256v70q-135 -93 -303 -93z" />
    <glyph glyph-name="Acircumflex" unicode="&#xc2;" horiz-adv-x="1206" 
d="M342 1130l-70 181l310 153l309 -153l-70 -181l-239 101zM569 217q123 0 213 90t90 211t-90 211t-213 90t-213 -90t-90 -211t90 -211t213 -90zM569 -23q-227 0 -388 159t-161 383t160 381t389 157q170 0 303 -94v84h256v-1047h-256v70q-135 -93 -303 -93z" />
    <glyph glyph-name="Atilde" unicode="&#xc3;" horiz-adv-x="1206" 
d="M440 1407q49 0 134 -34t142 -34t136 58l70 -172q-76 -88 -189 -88q-49 1 -131 33t-129 32q-99 0 -160 -57l-73 172q98 90 200 90zM569 217q123 0 213 90t90 211t-90 211t-213 90t-213 -90t-90 -211t90 -211t213 -90zM569 -23q-227 0 -388 159t-161 383t160 381t389 157
q170 0 303 -94v84h256v-1047h-256v70q-135 -93 -303 -93z" />
    <glyph glyph-name="Adieresis" unicode="&#xc4;" horiz-adv-x="1206" 
d="M623 1153v238h237v-238h-237zM303 1153v238h238v-238h-238zM569 217q123 0 213 90t90 211t-90 211t-213 90t-213 -90t-90 -211t90 -211t213 -90zM569 -23q-227 0 -388 159t-161 383t160 381t389 157q170 0 303 -94v84h256v-1047h-256v70q-135 -93 -303 -93z" />
    <glyph glyph-name="Aring" unicode="&#xc5;" horiz-adv-x="1206" 
d="M582 1190q32 0 56 24t24 58q0 36 -24 60t-56 24t-57 -25q-23 -25 -23 -59t23 -59q24 -23 57 -23zM582 1094q-74 0 -126 52t-53 126q1 74 53 125t126 51t126 -51t52 -125t-52 -126t-126 -52zM569 217q123 0 213 90t90 211t-90 211t-213 90t-213 -90t-90 -211t90 -211
t213 -90zM569 -23q-227 0 -388 159t-161 383t160 381t389 157q170 0 303 -94v84h256v-1047h-256v70q-135 -93 -303 -93z" />
    <glyph glyph-name="AE" unicode="&#xc6;" horiz-adv-x="2007" 
d="M1430 819q-92 0 -168 -51t-113 -133h557q-78 184 -276 184zM578 217q123 0 213 90t90 211t-90 211t-213 90t-213 -90q-91 -90 -91 -211t90 -211t214 -90zM578 -23q-227 0 -389 159q-161 159 -161 383t160 381t390 157q170 0 303 -94v84h256v-72q135 82 293 82
q242 0 396 -162t152 -393q0 -25 -4 -70h-831q33 -102 111 -159q80 -56 186 -56t171 32t115 101l216 -119q-168 -254 -492 -254q-172 0 -313 82v-59h-256v70q-135 -93 -303 -93z" />
    <glyph glyph-name="Ccedilla" unicode="&#xc7;" horiz-adv-x="1052" 
d="M516 -414q-74 0 -126 52t-52 124q0 74 52 125t126 52v43q-209 20 -350 174t-141 370t159 374q160 157 389 157q307 0 467 -252l-217 -121q-96 135 -250 135q-123 0 -213 -90t-90 -211t90 -211t213 -90q158 0 250 133l215 -119q-143 -225 -403 -249v-156h-119
q-25 0 -42 -18t-17 -45q0 -26 17 -43t42 -17t42 17t17 42h119q0 -74 -52 -125t-126 -51z" />
    <glyph glyph-name="Egrave" unicode="&#xc8;" horiz-adv-x="1155" 
d="M715 1116l-441 113l58 229l434 -139zM573 819q-91 0 -167 -51t-113 -133h557q-78 184 -277 184zM594 -23q-246 0 -408 154t-162 383t160 386t396 157t389 -162q154 -162 153 -393q0 -25 -4 -70h-831q33 -102 111 -159q80 -56 186 -56t171 32t115 101l215 -119
q-167 -254 -491 -254z" />
    <glyph glyph-name="Eacute" unicode="&#xc9;" horiz-adv-x="1155" 
d="M449 1116l-52 203l434 139l58 -229zM573 819q-91 0 -167 -51t-113 -133h557q-78 184 -277 184zM594 -23q-246 0 -408 154t-162 383t160 386t396 157t389 -162q154 -162 153 -393q0 -25 -4 -70h-831q33 -102 111 -159q80 -56 186 -56t171 32t115 101l215 -119
q-167 -254 -491 -254z" />
    <glyph glyph-name="Ecircumflex" unicode="&#xca;" horiz-adv-x="1155" 
d="M342 1130l-70 181l310 153l309 -153l-70 -181l-239 101zM573 819q-91 0 -167 -51t-113 -133h557q-78 184 -277 184zM594 -23q-246 0 -408 154t-162 383t160 386t396 157t389 -162q154 -162 153 -393q0 -25 -4 -70h-831q33 -102 111 -159q80 -56 186 -56t171 32t115 101
l215 -119q-167 -254 -491 -254z" />
    <glyph glyph-name="Edieresis" unicode="&#xcb;" horiz-adv-x="1155" 
d="M623 1153v238h237v-238h-237zM303 1153v238h238v-238h-238zM573 819q-91 0 -167 -51t-113 -133h557q-78 184 -277 184zM594 -23q-246 0 -408 154t-162 383t160 386t396 157t389 -162q154 -162 153 -393q0 -25 -4 -70h-831q33 -102 111 -159q80 -56 186 -56t171 32
t115 101l215 -119q-167 -254 -491 -254z" />
    <glyph glyph-name="Igrave" unicode="&#xcc;" horiz-adv-x="389" 
d="M328 1116l-441 113l58 229l434 -139zM66 0v1047h258v-1047h-258z" />
    <glyph glyph-name="Iacute" unicode="&#xcd;" horiz-adv-x="389" 
d="M61 1116l-51 203l434 139l58 -229zM66 0v1047h258v-1047h-258z" />
    <glyph glyph-name="Icircumflex" unicode="&#xce;" horiz-adv-x="389" 
d="M-45 1130l-70 181l310 153l309 -153l-70 -181l-239 101zM66 0v1047h258v-1047h-258z" />
    <glyph glyph-name="Idieresis" unicode="&#xcf;" horiz-adv-x="389" 
d="M236 1153v238h237v-238h-237zM-84 1153v238h238v-238h-238zM66 0v1047h258v-1047h-258z" />
    <glyph glyph-name="Eth" unicode="&#xd0;" horiz-adv-x="1153" 
d="M582 217q123 0 213 90t90 211t-90 211t-213 90t-213 -90t-90 -211t90 -211t213 -90zM582 -23q-227 0 -388 159t-161 383t160 381t389 157q25 0 65 -4l-33 63l-155 -20v176l71 10l-59 119h270l43 -84l185 26v-176l-101 -14l195 -377q66 -125 65 -258q0 -223 -160 -382
t-386 -159z" />
    <glyph glyph-name="Ntilde" unicode="&#xd1;" horiz-adv-x="1095" 
d="M410 1407q49 0 134 -34q86 -34 142 -34t135 58l70 -172q-76 -88 -189 -88q-49 1 -131 33t-129 32q-98 0 -159 -57l-74 172q98 90 201 90zM66 0v1047h256v-84q111 94 282 94q430 0 430 -508v-549h-256v483q0 180 -45 258t-167 78t-182 -63q-62 -63 -62 -176v-580h-256z
" />
    <glyph glyph-name="Ograve" unicode="&#xd2;" horiz-adv-x="1163" 
d="M715 1116l-441 113l58 229l434 -139zM573 217q123 0 213 90t91 211q-1 121 -91 211t-213 90t-213 -90t-90 -211t90 -211t213 -90zM573 -23q-227 0 -388 159t-161 383t160 381t389 157t389 -157t160 -381t-161 -383t-388 -159z" />
    <glyph glyph-name="Oacute" unicode="&#xd3;" horiz-adv-x="1163" 
d="M449 1116l-52 203l434 139l58 -229zM573 217q123 0 213 90t91 211q-1 121 -91 211t-213 90t-213 -90t-90 -211t90 -211t213 -90zM573 -23q-227 0 -388 159t-161 383t160 381t389 157t389 -157t160 -381t-161 -383t-388 -159z" />
    <glyph glyph-name="Ocircumflex" unicode="&#xd4;" horiz-adv-x="1163" 
d="M342 1130l-70 181l310 153l309 -153l-70 -181l-239 101zM573 217q123 0 213 90t91 211q-1 121 -91 211t-213 90t-213 -90t-90 -211t90 -211t213 -90zM573 -23q-227 0 -388 159t-161 383t160 381t389 157t389 -157t160 -381t-161 -383t-388 -159z" />
    <glyph glyph-name="Otilde" unicode="&#xd5;" horiz-adv-x="1163" 
d="M440 1407q49 0 134 -34t142 -34t136 58l70 -172q-76 -88 -189 -88q-49 1 -131 33t-129 32q-99 0 -160 -57l-73 172q98 90 200 90zM573 217q123 0 213 90t91 211q-1 121 -91 211t-213 90t-213 -90t-90 -211t90 -211t213 -90zM573 -23q-227 0 -388 159t-161 383t160 381
t389 157t389 -157t160 -381t-161 -383t-388 -159z" />
    <glyph glyph-name="Odieresis" unicode="&#xd6;" horiz-adv-x="1163" 
d="M623 1153v238h237v-238h-237zM303 1153v238h238v-238h-238zM573 217q123 0 213 90t91 211q-1 121 -91 211t-213 90t-213 -90t-90 -211t90 -211t213 -90zM573 -23q-227 0 -388 159t-161 383t160 381t389 157t389 -157t160 -381t-161 -383t-388 -159z" />
    <glyph glyph-name="multiply" unicode="&#xd7;" horiz-adv-x="868" 
d="M227 197l-182 184l211 227l-211 228l184 182l205 -219l205 219l184 -182l-213 -228l213 -227l-182 -184l-207 221z" />
    <glyph glyph-name="Oslash" unicode="&#xd8;" horiz-adv-x="1155" 
d="M582 819q-123 0 -213 -90q-90 -91 -90 -201t61 -190l342 463q-45 18 -100 18zM582 217q123 0 213 90q90 89 90 201t-66 194l-346 -466q52 -19 109 -19zM582 -23q-135 0 -254 62l-29 -39h-209l100 137q-158 158 -158 382t161 381q160 157 389 157q129 0 247 -58l35 48h209
l-106 -144q163 -158 163 -383t-160 -384t-388 -159z" />
    <glyph glyph-name="Ugrave" unicode="&#xd9;" horiz-adv-x="1087" 
d="M680 1116l-440 113l57 229l434 -139zM492 -10q-430 0 -431 508v549h256v-484q0 -180 45 -258t167 -78q121 -1 183 63t62 177v580h256v-1047h-256v84q-110 -94 -282 -94z" />
    <glyph glyph-name="Uacute" unicode="&#xda;" horiz-adv-x="1087" 
d="M414 1116l-52 203l435 139l57 -229zM492 -10q-430 0 -431 508v549h256v-484q0 -180 45 -258t167 -78q121 -1 183 63t62 177v580h256v-1047h-256v84q-110 -94 -282 -94z" />
    <glyph glyph-name="Ucircumflex" unicode="&#xdb;" horiz-adv-x="1087" 
d="M307 1130l-69 181l309 153l309 -153l-70 -181l-239 101zM492 -10q-430 0 -431 508v549h256v-484q0 -180 45 -258t167 -78q121 -1 183 63t62 177v580h256v-1047h-256v84q-110 -94 -282 -94z" />
    <glyph glyph-name="Udieresis" unicode="&#xdc;" horiz-adv-x="1087" 
d="M588 1153v238h237v-238h-237zM268 1153v238h238v-238h-238zM492 -10q-430 0 -431 508v549h256v-484q0 -180 45 -258t167 -78q121 -1 183 63t62 177v580h256v-1047h-256v84q-110 -94 -282 -94z" />
    <glyph glyph-name="Yacute" unicode="&#xdd;" horiz-adv-x="1005" 
d="M375 1116l-51 203l434 139l57 -229zM313 -379q-129 0 -202 29l36 239q49 -10 95 -10q106 0 106 92q0 39 -47 189l-289 887h271l221 -717l225 717h264l-313 -979q-82 -256 -160 -352t-207 -95z" />
    <glyph glyph-name="Thorn" unicode="&#xde;" horiz-adv-x="1206" 
d="M625 217q125 0 214 90t89 211t-89 211t-214 90t-214 -90t-89 -211t89 -211t214 -90zM66 -354v1755h256v-438q133 94 303 94q229 0 389 -157t160 -381t-161 -383t-388 -159q-168 0 -303 93v-424h-256z" />
    <glyph glyph-name="germandbls" unicode="&#xdf;" horiz-adv-x="948" 
d="M66 0v1020q0 160 114 270t277 111q163 0 277 -111t114 -262t-94 -256q162 -131 162 -329q0 -199 -130 -321q-129 -122 -329 -122h-80v238h80q86 0 149 60q64 60 64 141t-60 141t-145 59h-88v238h92q55 0 94 43t39 101t-43 100t-102 42t-103 -42t-43 -101v-1020h-245z" />
    <glyph glyph-name="agrave" unicode="&#xe0;" horiz-adv-x="1206" 
d="M760 1116l-441 113l58 229l434 -139zM569 217q123 0 213 90t90 211t-90 211t-213 90t-213 -90t-90 -211t90 -211t213 -90zM569 -23q-227 0 -388 159t-161 383t160 381t389 157q170 0 303 -94v84h256v-1047h-256v70q-135 -93 -303 -93z" />
    <glyph glyph-name="aacute" unicode="&#xe1;" horiz-adv-x="1206" 
d="M403 1116l-51 203l434 139l58 -229zM569 217q123 0 213 90t90 211t-90 211t-213 90t-213 -90t-90 -211t90 -211t213 -90zM569 -23q-227 0 -388 159t-161 383t160 381t389 157q170 0 303 -94v84h256v-1047h-256v70q-135 -93 -303 -93z" />
    <glyph glyph-name="acircumflex" unicode="&#xe2;" horiz-adv-x="1206" 
d="M342 1130l-70 181l310 153l309 -153l-70 -181l-239 101zM569 217q123 0 213 90t90 211t-90 211t-213 90t-213 -90t-90 -211t90 -211t213 -90zM569 -23q-227 0 -388 159t-161 383t160 381t389 157q170 0 303 -94v84h256v-1047h-256v70q-135 -93 -303 -93z" />
    <glyph glyph-name="atilde" unicode="&#xe3;" horiz-adv-x="1206" 
d="M440 1407q49 0 134 -34t142 -34t136 58l70 -172q-76 -88 -189 -88q-49 1 -131 33t-129 32q-99 0 -160 -57l-73 172q98 90 200 90zM569 217q123 0 213 90t90 211t-90 211t-213 90t-213 -90t-90 -211t90 -211t213 -90zM569 -23q-227 0 -388 159t-161 383t160 381t389 157
q170 0 303 -94v84h256v-1047h-256v70q-135 -93 -303 -93z" />
    <glyph glyph-name="adieresis" unicode="&#xe4;" horiz-adv-x="1206" 
d="M623 1153v238h237v-238h-237zM303 1153v238h238v-238h-238zM569 217q123 0 213 90t90 211t-90 211t-213 90t-213 -90t-90 -211t90 -211t213 -90zM569 -23q-227 0 -388 159t-161 383t160 381t389 157q170 0 303 -94v84h256v-1047h-256v70q-135 -93 -303 -93z" />
    <glyph glyph-name="aring" unicode="&#xe5;" horiz-adv-x="1206" 
d="M582 1190q32 0 56 24t24 58q0 36 -24 60t-56 24t-57 -25q-23 -25 -23 -59t23 -59q24 -23 57 -23zM582 1094q-74 0 -126 52t-53 126q1 74 53 125t126 51t126 -51t52 -125t-52 -126t-126 -52zM569 217q123 0 213 90t90 211t-90 211t-213 90t-213 -90t-90 -211t90 -211
t213 -90zM569 -23q-227 0 -388 159t-161 383t160 381t389 157q170 0 303 -94v84h256v-1047h-256v70q-135 -93 -303 -93z" />
    <glyph glyph-name="ae" unicode="&#xe6;" horiz-adv-x="2007" 
d="M1430 819q-92 0 -168 -51t-113 -133h557q-78 184 -276 184zM578 217q123 0 213 90t90 211t-90 211t-213 90t-213 -90q-91 -90 -91 -211t90 -211t214 -90zM578 -23q-227 0 -389 159q-161 159 -161 383t160 381t390 157q170 0 303 -94v84h256v-72q135 82 293 82
q242 0 396 -162t152 -393q0 -25 -4 -70h-831q33 -102 111 -159q80 -56 186 -56t171 32t115 101l216 -119q-168 -254 -492 -254q-172 0 -313 82v-59h-256v70q-135 -93 -303 -93z" />
    <glyph glyph-name="ccedilla" unicode="&#xe7;" horiz-adv-x="1052" 
d="M516 -414q-74 0 -126 52t-52 124q0 74 52 125t126 52v43q-209 20 -350 174t-141 370t159 374q160 157 389 157q307 0 467 -252l-217 -121q-96 135 -250 135q-123 0 -213 -90t-90 -211t90 -211t213 -90q158 0 250 133l215 -119q-143 -225 -403 -249v-156h-119
q-25 0 -42 -18t-17 -45q0 -26 17 -43t42 -17t42 17t17 42h119q0 -74 -52 -125t-126 -51z" />
    <glyph glyph-name="egrave" unicode="&#xe8;" horiz-adv-x="1155" 
d="M760 1116l-441 113l58 229l434 -139zM573 819q-91 0 -167 -51t-113 -133h557q-78 184 -277 184zM594 -23q-246 0 -408 154t-162 383t160 386t396 157t389 -162q154 -162 153 -393q0 -25 -4 -70h-831q33 -102 111 -159q80 -56 186 -56t171 32t115 101l215 -119
q-167 -254 -491 -254z" />
    <glyph glyph-name="eacute" unicode="&#xe9;" horiz-adv-x="1155" 
d="M403 1116l-51 203l434 139l58 -229zM573 819q-91 0 -167 -51t-113 -133h557q-78 184 -277 184zM594 -23q-246 0 -408 154t-162 383t160 386t396 157t389 -162q154 -162 153 -393q0 -25 -4 -70h-831q33 -102 111 -159q80 -56 186 -56t171 32t115 101l215 -119
q-167 -254 -491 -254z" />
    <glyph glyph-name="ecircumflex" unicode="&#xea;" horiz-adv-x="1155" 
d="M342 1130l-70 181l310 153l309 -153l-70 -181l-239 101zM573 819q-91 0 -167 -51t-113 -133h557q-78 184 -277 184zM594 -23q-246 0 -408 154t-162 383t160 386t396 157t389 -162q154 -162 153 -393q0 -25 -4 -70h-831q33 -102 111 -159q80 -56 186 -56t171 32t115 101
l215 -119q-167 -254 -491 -254z" />
    <glyph glyph-name="edieresis" unicode="&#xeb;" horiz-adv-x="1155" 
d="M623 1153v238h237v-238h-237zM303 1153v238h238v-238h-238zM573 819q-91 0 -167 -51t-113 -133h557q-78 184 -277 184zM594 -23q-246 0 -408 154t-162 383t160 386t396 157t389 -162q154 -162 153 -393q0 -25 -4 -70h-831q33 -102 111 -159q80 -56 186 -56t171 32
t115 101l215 -119q-167 -254 -491 -254z" />
    <glyph glyph-name="igrave" unicode="&#xec;" horiz-adv-x="389" 
d="M373 1116l-441 113l58 229l434 -139zM66 0v1047h258v-1047h-258z" />
    <glyph glyph-name="iacute" unicode="&#xed;" horiz-adv-x="389" 
d="M16 1116l-51 203l434 139l58 -229zM66 0v1047h258v-1047h-258z" />
    <glyph glyph-name="icircumflex" unicode="&#xee;" horiz-adv-x="389" 
d="M-45 1130l-70 181l310 153l309 -153l-70 -181l-239 101zM66 0v1047h258v-1047h-258z" />
    <glyph glyph-name="idieresis" unicode="&#xef;" horiz-adv-x="389" 
d="M236 1153v238h237v-238h-237zM-84 1153v238h238v-238h-238zM66 0v1047h258v-1047h-258z" />
    <glyph glyph-name="eth" unicode="&#xf0;" horiz-adv-x="1161" 
d="M582 217q123 0 213 90t90 211t-90 211t-213 90t-213 -90t-90 -211t90 -211t213 -90zM582 -23q-227 0 -388 159t-161 383t160 381t389 157q25 0 65 -4l-33 63l-155 -20v176l71 10l-59 119h270l43 -84l185 26v-176l-101 -14l195 -377q66 -125 65 -258q0 -223 -160 -382
t-386 -159z" />
    <glyph glyph-name="ntilde" unicode="&#xf1;" horiz-adv-x="1095" 
d="M410 1407q49 0 134 -34q86 -34 142 -34t135 58l70 -172q-76 -88 -189 -88q-49 1 -131 33t-129 32q-98 0 -159 -57l-74 172q98 90 201 90zM66 0v1047h256v-84q111 94 282 94q430 0 430 -508v-549h-256v483q0 180 -45 258t-167 78t-182 -63q-62 -63 -62 -176v-580h-256z
" />
    <glyph glyph-name="ograve" unicode="&#xf2;" horiz-adv-x="1163" 
d="M760 1116l-441 113l58 229l434 -139zM573 217q123 0 213 90t91 211q-1 121 -91 211t-213 90t-213 -90t-90 -211t90 -211t213 -90zM573 -23q-227 0 -388 159t-161 383t160 381t389 157t389 -157t160 -381t-161 -383t-388 -159z" />
    <glyph glyph-name="oacute" unicode="&#xf3;" horiz-adv-x="1163" 
d="M403 1116l-51 203l434 139l58 -229zM573 217q123 0 213 90t91 211q-1 121 -91 211t-213 90t-213 -90t-90 -211t90 -211t213 -90zM573 -23q-227 0 -388 159t-161 383t160 381t389 157t389 -157t160 -381t-161 -383t-388 -159z" />
    <glyph glyph-name="ocircumflex" unicode="&#xf4;" horiz-adv-x="1163" 
d="M342 1130l-70 181l310 153l309 -153l-70 -181l-239 101zM573 217q123 0 213 90t91 211q-1 121 -91 211t-213 90t-213 -90t-90 -211t90 -211t213 -90zM573 -23q-227 0 -388 159t-161 383t160 381t389 157t389 -157t160 -381t-161 -383t-388 -159z" />
    <glyph glyph-name="otilde" unicode="&#xf5;" horiz-adv-x="1163" 
d="M440 1407q49 0 134 -34t142 -34t136 58l70 -172q-76 -88 -189 -88q-49 1 -131 33t-129 32q-99 0 -160 -57l-73 172q98 90 200 90zM573 217q123 0 213 90t91 211q-1 121 -91 211t-213 90t-213 -90t-90 -211t90 -211t213 -90zM573 -23q-227 0 -388 159t-161 383t160 381
t389 157t389 -157t160 -381t-161 -383t-388 -159z" />
    <glyph glyph-name="odieresis" unicode="&#xf6;" horiz-adv-x="1163" 
d="M623 1153v238h237v-238h-237zM303 1153v238h238v-238h-238zM573 217q123 0 213 90t91 211q-1 121 -91 211t-213 90t-213 -90t-90 -211t90 -211t213 -90zM573 -23q-227 0 -388 159t-161 383t160 381t389 157t389 -157t160 -381t-161 -383t-388 -159z" />
    <glyph glyph-name="divide" unicode="&#xf7;" horiz-adv-x="868" 
d="M305 803v246h258v-246h-258zM25 479v254h819v-254h-819zM305 164v246h258v-246h-258z" />
    <glyph glyph-name="oslash" unicode="&#xf8;" horiz-adv-x="1163" 
d="M582 819q-123 0 -213 -90q-90 -91 -90 -201t61 -190l342 463q-45 18 -100 18zM582 217q123 0 213 90q90 89 90 201t-66 194l-346 -466q52 -19 109 -19zM582 -23q-135 0 -254 62l-29 -39h-209l100 137q-158 158 -158 382t161 381q160 157 389 157q129 0 247 -58l35 48h209
l-106 -144q163 -158 163 -383t-160 -384t-388 -159z" />
    <glyph glyph-name="ugrave" unicode="&#xf9;" horiz-adv-x="1087" 
d="M725 1116l-440 113l57 229l434 -139zM492 -10q-430 0 -431 508v549h256v-484q0 -180 45 -258t167 -78q121 -1 183 63t62 177v580h256v-1047h-256v84q-110 -94 -282 -94z" />
    <glyph glyph-name="uacute" unicode="&#xfa;" horiz-adv-x="1087" 
d="M369 1116l-52 203l435 139l57 -229zM492 -10q-430 0 -431 508v549h256v-484q0 -180 45 -258t167 -78q121 -1 183 63t62 177v580h256v-1047h-256v84q-110 -94 -282 -94z" />
    <glyph glyph-name="ucircumflex" unicode="&#xfb;" horiz-adv-x="1087" 
d="M307 1130l-69 181l309 153l309 -153l-70 -181l-239 101zM492 -10q-430 0 -431 508v549h256v-484q0 -180 45 -258t167 -78q121 -1 183 63t62 177v580h256v-1047h-256v84q-110 -94 -282 -94z" />
    <glyph glyph-name="udieresis" unicode="&#xfc;" horiz-adv-x="1087" 
d="M588 1153v238h237v-238h-237zM268 1153v238h238v-238h-238zM492 -10q-430 0 -431 508v549h256v-484q0 -180 45 -258t167 -78q121 -1 183 63t62 177v580h256v-1047h-256v84q-110 -94 -282 -94z" />
    <glyph glyph-name="yacute" unicode="&#xfd;" horiz-adv-x="1005" 
d="M330 1116l-51 203l434 139l57 -229zM313 -379q-129 0 -202 29l36 239q49 -10 95 -10q106 0 106 92q0 39 -47 189l-289 887h271l221 -717l225 717h264l-313 -979q-82 -256 -160 -352t-207 -95z" />
    <glyph glyph-name="thorn" unicode="&#xfe;" horiz-adv-x="1206" 
d="M625 217q125 0 214 90t89 211t-89 211t-214 90t-214 -90t-89 -211t89 -211t214 -90zM66 -354v1755h256v-438q133 94 303 94q229 0 389 -157t160 -381t-161 -383t-388 -159q-168 0 -303 93v-424h-256z" />
    <glyph glyph-name="ydieresis" unicode="&#xff;" horiz-adv-x="1005" 
d="M549 1153v238h237v-238h-237zM229 1153v238h238v-238h-238zM313 -379q-129 0 -202 29l36 239q49 -10 95 -10q106 0 106 92q0 39 -47 189l-289 887h271l221 -717l225 717h264l-313 -979q-82 -256 -160 -352t-207 -95z" />
    <glyph glyph-name="Amacron" unicode="&#x100;" horiz-adv-x="1206" 
d="M303 1157v229h557v-229h-557zM569 217q123 0 213 90t90 211t-90 211t-213 90t-213 -90t-90 -211t90 -211t213 -90zM569 -23q-227 0 -388 159t-161 383t160 381t389 157q170 0 303 -94v84h256v-1047h-256v70q-135 -93 -303 -93z" />
    <glyph glyph-name="amacron" unicode="&#x101;" horiz-adv-x="1206" 
d="M303 1157v229h557v-229h-557zM569 217q123 0 213 90t90 211t-90 211t-213 90t-213 -90t-90 -211t90 -211t213 -90zM569 -23q-227 0 -388 159t-161 383t160 381t389 157q170 0 303 -94v84h256v-1047h-256v70q-135 -93 -303 -93z" />
    <glyph glyph-name="Abreve" unicode="&#x102;" horiz-adv-x="1206" 
d="M582 1133q-96 0 -174 48t-121 130l162 90q43 -84 133 -84t133 84l162 -90q-43 -82 -121 -130t-174 -48zM569 217q123 0 213 90t90 211t-90 211t-213 90t-213 -90t-90 -211t90 -211t213 -90zM569 -23q-227 0 -388 159t-161 383t160 381t389 157q170 0 303 -94v84h256
v-1047h-256v70q-135 -93 -303 -93z" />
    <glyph glyph-name="abreve" unicode="&#x103;" horiz-adv-x="1206" 
d="M582 1133q-96 0 -174 48t-121 130l162 90q43 -84 133 -84t133 84l162 -90q-43 -82 -121 -130t-174 -48zM569 217q123 0 213 90t90 211t-90 211t-213 90t-213 -90t-90 -211t90 -211t213 -90zM569 -23q-227 0 -388 159t-161 383t160 381t389 157q170 0 303 -94v84h256
v-1047h-256v70q-135 -93 -303 -93z" />
    <glyph glyph-name="Aogonek" unicode="&#x104;" horiz-adv-x="1198" 
d="M573 217q123 0 213 90t91 211q-1 121 -91 211t-213 90t-213 -90t-90 -211t90 -211t213 -90zM950 -373q-80 0 -134 45t-54 121q0 127 115 207v70q-135 -92 -304 -93q-227 0 -388 159t-161 383t160 381t389 157q170 0 304 -94v84h256v-1047h-111q-104 -102 -104 -164
q0 -72 73 -72h68v-137h-109z" />
    <glyph glyph-name="aogonek" unicode="&#x105;" horiz-adv-x="1198" 
d="M573 217q123 0 213 90t91 211q-1 121 -91 211t-213 90t-213 -90t-90 -211t90 -211t213 -90zM950 -373q-80 0 -134 45t-54 121q0 127 115 207v70q-135 -92 -304 -93q-227 0 -388 159t-161 383t160 381t389 157q170 0 304 -94v84h256v-1047h-111q-104 -102 -104 -164
q0 -72 73 -72h68v-137h-109z" />
    <glyph glyph-name="Cacute" unicode="&#x106;" horiz-adv-x="1052" 
d="M449 1116l-52 203l434 139l58 -229zM573 -23q-227 0 -388 159t-161 383t160 381t389 157q307 0 467 -252l-217 -121q-96 135 -250 135q-123 0 -213 -90t-90 -211t90 -211t213 -90q158 0 250 133l215 -119q-162 -254 -465 -254z" />
    <glyph glyph-name="cacute" unicode="&#x107;" horiz-adv-x="1052" 
d="M403 1116l-51 203l434 139l58 -229zM573 -23q-227 0 -388 159t-161 383t160 381t389 157q307 0 467 -252l-217 -121q-96 135 -250 135q-123 0 -213 -90t-90 -211t90 -211t213 -90q158 0 250 133l215 -119q-162 -254 -465 -254z" />
    <glyph glyph-name="Ccircumflex" unicode="&#x108;" horiz-adv-x="1052" 
d="M342 1130l-70 181l310 153l309 -153l-70 -181l-239 101zM573 -23q-227 0 -388 159t-161 383t160 381t389 157q307 0 467 -252l-217 -121q-96 135 -250 135q-123 0 -213 -90t-90 -211t90 -211t213 -90q158 0 250 133l215 -119q-162 -254 -465 -254z" />
    <glyph glyph-name="ccircumflex" unicode="&#x109;" horiz-adv-x="1052" 
d="M342 1130l-70 181l310 153l309 -153l-70 -181l-239 101zM573 -23q-227 0 -388 159t-161 383t160 381t389 157q307 0 467 -252l-217 -121q-96 135 -250 135q-123 0 -213 -90t-90 -211t90 -211t213 -90q158 0 250 133l215 -119q-162 -254 -465 -254z" />
    <glyph glyph-name="Cdotaccent" unicode="&#x10a;" horiz-adv-x="1052" 
d="M453 1143v258h258v-258h-258zM573 -23q-227 0 -388 159t-161 383t160 381t389 157q307 0 467 -252l-217 -121q-96 135 -250 135q-123 0 -213 -90t-90 -211t90 -211t213 -90q158 0 250 133l215 -119q-162 -254 -465 -254z" />
    <glyph glyph-name="cdotaccent" unicode="&#x10b;" horiz-adv-x="1052" 
d="M453 1143v258h258v-258h-258zM573 -23q-227 0 -388 159t-161 383t160 381t389 157q307 0 467 -252l-217 -121q-96 135 -250 135q-123 0 -213 -90t-90 -211t90 -211t213 -90q158 0 250 133l215 -119q-162 -254 -465 -254z" />
    <glyph glyph-name="Ccaron" unicode="&#x10c;" horiz-adv-x="1052" 
d="M582 1112l-318 133l78 205l240 -123l239 123l78 -205zM573 -23q-227 0 -388 159t-161 383t160 381t389 157q307 0 467 -252l-217 -121q-96 135 -250 135q-123 0 -213 -90t-90 -211t90 -211t213 -90q158 0 250 133l215 -119q-162 -254 -465 -254z" />
    <glyph glyph-name="ccaron" unicode="&#x10d;" horiz-adv-x="1052" 
d="M582 1112l-318 133l78 205l240 -123l239 123l78 -205zM573 -23q-227 0 -388 159t-161 383t160 381t389 157q307 0 467 -252l-217 -121q-96 135 -250 135q-123 0 -213 -90t-90 -211t90 -211t213 -90q158 0 250 133l215 -119q-162 -254 -465 -254z" />
    <glyph glyph-name="Dcaron" unicode="&#x10e;" horiz-adv-x="1206" 
d="M1206 1151v250h246v-238l-43 -139h-141l18 127h-80zM573 217q123 0 213 90t91 211q-1 121 -91 211t-213 90t-213 -90t-90 -211t90 -211t213 -90zM573 -23q-227 0 -388 159t-161 383t160 381t389 157q170 0 304 -94v438h256v-1401h-256v70q-136 -93 -304 -93z" />
    <glyph glyph-name="dcaron" unicode="&#x10f;" horiz-adv-x="1206" 
d="M1206 1151v250h246v-238l-43 -139h-141l18 127h-80zM573 217q123 0 213 90t91 211q-1 121 -91 211t-213 90t-213 -90t-90 -211t90 -211t213 -90zM573 -23q-227 0 -388 159t-161 383t160 381t389 157q170 0 304 -94v438h256v-1401h-256v70q-136 -93 -304 -93z" />
    <glyph glyph-name="Dcroat" unicode="&#x110;" horiz-adv-x="1226" 
d="M582 217q123 0 213 90t90 211t-90 211t-213 90t-213 -90t-90 -211t90 -211t213 -90zM582 -23q-227 0 -388 159t-161 383t160 381t389 157q170 0 303 -94v129h-197v229h197v80h256v-80h104v-229h-104v-1092h-256v70q-135 -93 -303 -93z" />
    <glyph glyph-name="dcroat" unicode="&#x111;" horiz-adv-x="1234" 
d="M582 217q123 0 213 90t90 211t-90 211t-213 90t-213 -90t-90 -211t90 -211t213 -90zM582 -23q-227 0 -388 159t-161 383t160 381t389 157q170 0 303 -94v129h-197v229h197v80h256v-80h104v-229h-104v-1092h-256v70q-135 -93 -303 -93z" />
    <glyph glyph-name="Emacron" unicode="&#x112;" horiz-adv-x="1155" 
d="M303 1157v229h557v-229h-557zM573 819q-91 0 -167 -51t-113 -133h557q-78 184 -277 184zM594 -23q-246 0 -408 154t-162 383t160 386t396 157t389 -162q154 -162 153 -393q0 -25 -4 -70h-831q33 -102 111 -159q80 -56 186 -56t171 32t115 101l215 -119
q-167 -254 -491 -254z" />
    <glyph glyph-name="emacron" unicode="&#x113;" horiz-adv-x="1155" 
d="M303 1157v229h557v-229h-557zM573 819q-91 0 -167 -51t-113 -133h557q-78 184 -277 184zM594 -23q-246 0 -408 154t-162 383t160 386t396 157t389 -162q154 -162 153 -393q0 -25 -4 -70h-831q33 -102 111 -159q80 -56 186 -56t171 32t115 101l215 -119
q-167 -254 -491 -254z" />
    <glyph glyph-name="Ebreve" unicode="&#x114;" horiz-adv-x="1155" 
d="M582 1133q-96 0 -174 48t-121 130l162 90q43 -84 133 -84t133 84l162 -90q-43 -82 -121 -130t-174 -48zM573 819q-91 0 -167 -51t-113 -133h557q-78 184 -277 184zM594 -23q-246 0 -408 154t-162 383t160 386t396 157t389 -162q154 -162 153 -393q0 -25 -4 -70h-831
q33 -102 111 -159q80 -56 186 -56t171 32t115 101l215 -119q-167 -254 -491 -254z" />
    <glyph glyph-name="ebreve" unicode="&#x115;" horiz-adv-x="1155" 
d="M582 1133q-96 0 -174 48t-121 130l162 90q43 -84 133 -84t133 84l162 -90q-43 -82 -121 -130t-174 -48zM573 819q-91 0 -167 -51t-113 -133h557q-78 184 -277 184zM594 -23q-246 0 -408 154t-162 383t160 386t396 157t389 -162q154 -162 153 -393q0 -25 -4 -70h-831
q33 -102 111 -159q80 -56 186 -56t171 32t115 101l215 -119q-167 -254 -491 -254z" />
    <glyph glyph-name="Edotaccent" unicode="&#x116;" horiz-adv-x="1155" 
d="M453 1143v258h258v-258h-258zM573 819q-91 0 -167 -51t-113 -133h557q-78 184 -277 184zM594 -23q-246 0 -408 154t-162 383t160 386t396 157t389 -162q154 -162 153 -393q0 -25 -4 -70h-831q33 -102 111 -159q80 -56 186 -56t171 32t115 101l215 -119
q-167 -254 -491 -254z" />
    <glyph glyph-name="edotaccent" unicode="&#x117;" horiz-adv-x="1155" 
d="M453 1143v258h258v-258h-258zM573 819q-91 0 -167 -51t-113 -133h557q-78 184 -277 184zM594 -23q-246 0 -408 154t-162 383t160 386t396 157t389 -162q154 -162 153 -393q0 -25 -4 -70h-831q33 -102 111 -159q80 -56 186 -56t171 32t115 101l215 -119
q-167 -254 -491 -254z" />
    <glyph glyph-name="Eogonek" unicode="&#x118;" horiz-adv-x="1146" 
d="M573 819q-91 0 -167 -51t-113 -133h557q-78 184 -277 184zM651 -373q-80 0 -134 45t-54 121q0 117 88 184q-236 21 -381 169t-145 372t159 382q160 157 396 157t389 -162q154 -162 153 -393q0 -25 -4 -70h-831q33 -102 111 -159q80 -56 186 -56t171 32t115 101l215 -119
q-139 -209 -374 -243q-92 -92 -93 -152q0 -72 74 -72h68v-137h-109z" />
    <glyph glyph-name="eogonek" unicode="&#x119;" horiz-adv-x="1146" 
d="M573 819q-91 0 -167 -51t-113 -133h557q-78 184 -277 184zM651 -373q-80 0 -134 45t-54 121q0 117 88 184q-236 21 -381 169t-145 372t159 382q160 157 396 157t389 -162q154 -162 153 -393q0 -25 -4 -70h-831q33 -102 111 -159q80 -56 186 -56t171 32t115 101l215 -119
q-139 -209 -374 -243q-92 -92 -93 -152q0 -72 74 -72h68v-137h-109z" />
    <glyph glyph-name="Ecaron" unicode="&#x11a;" horiz-adv-x="1155" 
d="M582 1112l-318 133l78 205l240 -123l239 123l78 -205zM573 819q-91 0 -167 -51t-113 -133h557q-78 184 -277 184zM594 -23q-246 0 -408 154t-162 383t160 386t396 157t389 -162q154 -162 153 -393q0 -25 -4 -70h-831q33 -102 111 -159q80 -56 186 -56t171 32t115 101
l215 -119q-167 -254 -491 -254z" />
    <glyph glyph-name="ecaron" unicode="&#x11b;" horiz-adv-x="1155" 
d="M582 1112l-318 133l78 205l240 -123l239 123l78 -205zM573 819q-91 0 -167 -51t-113 -133h557q-78 184 -277 184zM594 -23q-246 0 -408 154t-162 383t160 386t396 157t389 -162q154 -162 153 -393q0 -25 -4 -70h-831q33 -102 111 -159q80 -56 186 -56t171 32t115 101
l215 -119q-167 -254 -491 -254z" />
    <glyph glyph-name="Gcircumflex" unicode="&#x11c;" horiz-adv-x="1206" 
d="M342 1130l-70 181l310 153l309 -153l-70 -181l-239 101zM573 217q123 0 213 90t91 211q-1 121 -91 211t-213 90t-213 -90t-90 -211t90 -211t213 -90zM589 -379q-258 0 -454 105l92 221q179 -88 321 -88t235 62t94 165q-133 -106 -304 -106q-229 0 -389 156t-160 381
q0 226 160 383t389 157q170 0 304 -94v84h256v-920q0 -238 -143 -372t-401 -134z" />
    <glyph glyph-name="gcircumflex" unicode="&#x11d;" horiz-adv-x="1206" 
d="M342 1130l-70 181l310 153l309 -153l-70 -181l-239 101zM573 217q123 0 213 90t91 211q-1 121 -91 211t-213 90t-213 -90t-90 -211t90 -211t213 -90zM589 -379q-258 0 -454 105l92 221q179 -88 321 -88t235 62t94 165q-133 -106 -304 -106q-229 0 -389 156t-160 381
q0 226 160 383t389 157q170 0 304 -94v84h256v-920q0 -238 -143 -372t-401 -134z" />
    <glyph glyph-name="Gbreve" unicode="&#x11e;" horiz-adv-x="1206" 
d="M582 1133q-96 0 -174 48t-121 130l162 90q43 -84 133 -84t133 84l162 -90q-43 -82 -121 -130t-174 -48zM573 217q123 0 213 90t91 211q-1 121 -91 211t-213 90t-213 -90t-90 -211t90 -211t213 -90zM589 -379q-258 0 -454 105l92 221q179 -88 321 -88t235 62t94 165
q-133 -106 -304 -106q-229 0 -389 156t-160 381q0 226 160 383t389 157q170 0 304 -94v84h256v-920q0 -238 -143 -372t-401 -134z" />
    <glyph glyph-name="gbreve" unicode="&#x11f;" horiz-adv-x="1206" 
d="M582 1133q-96 0 -174 48t-121 130l162 90q43 -84 133 -84t133 84l162 -90q-43 -82 -121 -130t-174 -48zM573 217q123 0 213 90t91 211q-1 121 -91 211t-213 90t-213 -90t-90 -211t90 -211t213 -90zM589 -379q-258 0 -454 105l92 221q179 -88 321 -88t235 62t94 165
q-133 -106 -304 -106q-229 0 -389 156t-160 381q0 226 160 383t389 157q170 0 304 -94v84h256v-920q0 -238 -143 -372t-401 -134z" />
    <glyph glyph-name="Gdotaccent" unicode="&#x120;" horiz-adv-x="1206" 
d="M453 1143v258h258v-258h-258zM573 217q123 0 213 90t91 211q-1 121 -91 211t-213 90t-213 -90t-90 -211t90 -211t213 -90zM589 -379q-258 0 -454 105l92 221q179 -88 321 -88t235 62t94 165q-133 -106 -304 -106q-229 0 -389 156t-160 381q0 226 160 383t389 157
q170 0 304 -94v84h256v-920q0 -238 -143 -372t-401 -134z" />
    <glyph glyph-name="gdotaccent" unicode="&#x121;" horiz-adv-x="1206" 
d="M453 1143v258h258v-258h-258zM573 217q123 0 213 90t91 211q-1 121 -91 211t-213 90t-213 -90t-90 -211t90 -211t213 -90zM589 -379q-258 0 -454 105l92 221q179 -88 321 -88t235 62t94 165q-133 -106 -304 -106q-229 0 -389 156t-160 381q0 226 160 383t389 157
q170 0 304 -94v84h256v-920q0 -238 -143 -372t-401 -134z" />
    <glyph glyph-name="Gcommaaccent" unicode="&#x122;" horiz-adv-x="1206" 
d="M459 1251v250h246v-237l-43 -140h-142l19 127h-80zM573 217q123 0 213 90t91 211q-1 121 -91 211t-213 90t-213 -90t-90 -211t90 -211t213 -90zM589 -379q-258 0 -454 105l92 221q179 -88 321 -88t235 62t94 165q-133 -106 -304 -106q-229 0 -389 156t-160 381
q0 226 160 383t389 157q170 0 304 -94v84h256v-920q0 -238 -143 -372t-401 -134z" />
    <glyph glyph-name="gcommaaccent" unicode="&#x123;" horiz-adv-x="1206" 
d="M459 1251v250h246v-237l-43 -140h-142l19 127h-80zM573 217q123 0 213 90t91 211q-1 121 -91 211t-213 90t-213 -90t-90 -211t90 -211t213 -90zM589 -379q-258 0 -454 105l92 221q179 -88 321 -88t235 62t94 165q-133 -106 -304 -106q-229 0 -389 156t-160 381
q0 226 160 383t389 157q170 0 304 -94v84h256v-920q0 -238 -143 -372t-401 -134z" />
    <glyph glyph-name="Hcircumflex" unicode="&#x124;" horiz-adv-x="1095" 
d="M66 0v1401h256v-438q111 94 282 94q430 0 430 -508v-549h-256v483q0 180 -45 258t-167 78t-182 -63q-62 -63 -62 -176v-580h-256zM420 1153l-72 184l256 127l256 -127l-72 -184l-184 78z" />
    <glyph glyph-name="hcircumflex" unicode="&#x125;" horiz-adv-x="1095" 
d="M66 0v1401h256v-438q111 94 282 94q430 0 430 -508v-549h-256v483q0 180 -45 258t-167 78t-182 -63q-62 -63 -62 -176v-580h-256zM420 1153l-72 184l256 127l256 -127l-72 -184l-184 78z" />
    <glyph glyph-name="Hbar" unicode="&#x126;" horiz-adv-x="1124" 
d="M94 0v1092h-104v229h104v80h256v-80h197v-229h-197v-129q111 94 283 94q430 0 430 -508v-549h-256v483q0 180 -45 258q-44 78 -166 78t-184 -63t-62 -176v-580h-256z" />
    <glyph glyph-name="hbar" unicode="&#x127;" horiz-adv-x="1124" 
d="M94 0v1092h-104v229h104v80h256v-80h197v-229h-197v-129q111 94 283 94q430 0 430 -508v-549h-256v483q0 180 -45 258q-44 78 -166 78t-184 -63t-62 -176v-580h-256z" />
    <glyph glyph-name="Itilde" unicode="&#x128;" horiz-adv-x="389" 
d="M53 1407q49 0 134 -34t141 -34t137 58l70 -172q-76 -88 -189 -88q-49 1 -131 33t-129 32q-99 0 -160 -57l-73 172q98 90 200 90zM66 0v1047h258v-1047h-258z" />
    <glyph glyph-name="itilde" unicode="&#x129;" horiz-adv-x="389" 
d="M53 1407q49 0 134 -34t141 -34t137 58l70 -172q-76 -88 -189 -88q-49 1 -131 33t-129 32q-99 0 -160 -57l-73 172q98 90 200 90zM66 0v1047h258v-1047h-258z" />
    <glyph glyph-name="Imacron" unicode="&#x12a;" horiz-adv-x="389" 
d="M-84 1157v229h557v-229h-557zM66 0v1047h258v-1047h-258z" />
    <glyph glyph-name="imacron" unicode="&#x12b;" horiz-adv-x="389" 
d="M-84 1157v229h557v-229h-557zM66 0v1047h258v-1047h-258z" />
    <glyph glyph-name="Ibreve" unicode="&#x12c;" horiz-adv-x="389" 
d="M195 1133q-96 0 -175 48q-78 48 -120 130l161 90q41 -84 133 -84t134 84l161 -90q-43 -82 -121 -130t-173 -48zM66 0v1047h258v-1047h-258z" />
    <glyph glyph-name="ibreve" unicode="&#x12d;" horiz-adv-x="389" 
d="M195 1133q-96 0 -175 48q-78 48 -120 130l161 90q41 -84 133 -84t134 84l161 -90q-43 -82 -121 -130t-173 -48zM66 0v1047h258v-1047h-258z" />
    <glyph glyph-name="Iogonek" unicode="&#x12e;" horiz-adv-x="389" 
d="M66 1143v258h258v-258h-258zM137 -373q-80 0 -134 45t-54 121q0 127 117 207v1047h258v-1047h-115q-105 -102 -105 -169t74 -67h68v-137h-109z" />
    <glyph glyph-name="iogonek" unicode="&#x12f;" horiz-adv-x="389" 
d="M66 1143v258h258v-258h-258zM137 -373q-80 0 -134 45t-54 121q0 127 117 207v1047h258v-1047h-115q-105 -102 -105 -169t74 -67h68v-137h-109z" />
    <glyph glyph-name="Idotaccent" unicode="&#x130;" horiz-adv-x="389" 
d="M66 1143v258h258v-258h-258zM66 0v1047h258v-1047h-258z" />
    <glyph glyph-name="dotlessi" unicode="&#x131;" horiz-adv-x="389" 
d="M66 0v1047h258v-1047h-258z" />
    <glyph glyph-name="IJ" unicode="&#x132;" horiz-adv-x="737" 
d="M414 1143v258h258v-258h-258zM414 80v967h258v-967q0 -236 -116 -335t-333 -99l19 248q94 14 133 52t39 134zM66 1143v258h258v-258h-258zM66 0v1047h258v-1047h-258z" />
    <glyph glyph-name="ij" unicode="&#x133;" horiz-adv-x="737" 
d="M414 1143v258h258v-258h-258zM414 80v967h258v-967q0 -236 -116 -335t-333 -99l19 248q94 14 133 52t39 134zM66 1143v258h258v-258h-258zM66 0v1047h258v-1047h-258z" />
    <glyph glyph-name="Jcircumflex" unicode="&#x134;" horiz-adv-x="389" 
d="M-45 1130l-70 181l310 153l309 -153l-70 -181l-239 101zM66 70v977h258v-977q0 -236 -116 -336t-333 -99l19 248q94 14 133 52t39 135z" />
    <glyph glyph-name="jcircumflex" unicode="&#x135;" horiz-adv-x="389" 
d="M-45 1130l-70 181l310 153l309 -153l-70 -181l-239 101zM66 70v977h258v-977q0 -236 -116 -336t-333 -99l19 248q94 14 133 52t39 135z" />
    <glyph glyph-name="Kcommaaccent" unicode="&#x136;" horiz-adv-x="997" 
d="M369 -344v250h245v-238l-43 -139h-141l19 127h-80zM66 0v1401h258v-680l327 326h310l-390 -400l428 -647h-307l-309 453l-59 -62v-391h-258z" />
    <glyph glyph-name="kcommaaccent" unicode="&#x137;" horiz-adv-x="997" 
d="M369 -344v250h245v-238l-43 -139h-141l19 127h-80zM66 0v1401h258v-680l327 326h310l-390 -400l428 -647h-307l-309 453l-59 -62v-391h-258z" />
    <glyph glyph-name="Lacute" unicode="&#x139;" horiz-adv-x="389" 
d="M61 1470l-51 203l434 139l58 -229zM66 0v1401h258v-1401h-258z" />
    <glyph glyph-name="lacute" unicode="&#x13a;" horiz-adv-x="389" 
d="M16 1470l-51 203l434 139l58 -229zM66 0v1401h258v-1401h-258z" />
    <glyph glyph-name="Lcommaaccent" unicode="&#x13b;" horiz-adv-x="389" 
d="M72 -344v250h245v-238l-43 -139h-141l19 127h-80zM66 0v1401h258v-1401h-258z" />
    <glyph glyph-name="lcommaaccent" unicode="&#x13c;" horiz-adv-x="389" 
d="M72 -344v250h245v-238l-43 -139h-141l19 127h-80zM66 0v1401h258v-1401h-258z" />
    <glyph glyph-name="Lcaron" unicode="&#x13d;" horiz-adv-x="667" 
d="M389 1151v250h246v-238l-43 -139h-141l18 127h-80zM66 0v1401h258v-1401h-258z" />
    <glyph glyph-name="lcaron" unicode="&#x13e;" horiz-adv-x="667" 
d="M389 1151v250h246v-238l-43 -139h-141l18 127h-80zM66 0v1401h258v-1401h-258z" />
    <glyph glyph-name="Ldot" unicode="&#x13f;" horiz-adv-x="655" 
d="M393 393v258h258v-258h-258zM66 0v1401h258v-1401h-258z" />
    <glyph glyph-name="ldot" unicode="&#x140;" horiz-adv-x="655" 
d="M393 393v258h258v-258h-258zM66 0v1401h258v-1401h-258z" />
    <glyph glyph-name="Lslash" unicode="&#x141;" horiz-adv-x="550" 
d="M143 0v680l-123 -16v176l123 16v545h258v-508l129 18v-176l-129 -18v-717h-258z" />
    <glyph glyph-name="lslash" unicode="&#x142;" horiz-adv-x="550" 
d="M143 0v680l-123 -16v176l123 16v545h258v-508l129 18v-176l-129 -18v-717h-258z" />
    <glyph glyph-name="Nacute" unicode="&#x143;" horiz-adv-x="1095" 
d="M418 1116l-51 203l434 139l57 -229zM66 0v1047h256v-84q111 94 282 94q430 0 430 -508v-549h-256v483q0 180 -45 258t-167 78t-182 -63q-62 -63 -62 -176v-580h-256z" />
    <glyph glyph-name="nacute" unicode="&#x144;" horiz-adv-x="1095" 
d="M373 1116l-51 203l434 139l57 -229zM66 0v1047h256v-84q111 94 282 94q430 0 430 -508v-549h-256v483q0 180 -45 258t-167 78t-182 -63q-62 -63 -62 -176v-580h-256z" />
    <glyph glyph-name="Ncommaaccent" unicode="&#x145;" horiz-adv-x="1095" 
d="M428 -344v250h246v-238l-43 -139h-142l19 127h-80zM66 0v1047h256v-84q111 94 282 94q430 0 430 -508v-549h-256v483q0 180 -45 258t-167 78t-182 -63q-62 -63 -62 -176v-580h-256z" />
    <glyph glyph-name="ncommaaccent" unicode="&#x146;" horiz-adv-x="1095" 
d="M428 -344v250h246v-238l-43 -139h-142l19 127h-80zM66 0v1047h256v-84q111 94 282 94q430 0 430 -508v-549h-256v483q0 180 -45 258t-167 78t-182 -63q-62 -63 -62 -176v-580h-256z" />
    <glyph glyph-name="Ncaron" unicode="&#x147;" horiz-adv-x="1095" 
d="M551 1112l-318 133l78 205l240 -123l240 123l77 -205zM66 0v1047h256v-84q111 94 282 94q430 0 430 -508v-549h-256v483q0 180 -45 258t-167 78t-182 -63q-62 -63 -62 -176v-580h-256z" />
    <glyph glyph-name="ncaron" unicode="&#x148;" horiz-adv-x="1095" 
d="M551 1112l-318 133l78 205l240 -123l240 123l77 -205zM66 0v1047h256v-84q111 94 282 94q430 0 430 -508v-549h-256v483q0 180 -45 258t-167 78t-182 -63q-62 -63 -62 -176v-580h-256z" />
    <glyph glyph-name="Eng" unicode="&#x14a;" horiz-adv-x="1095" 
d="M778 80v403q0 180 -45 258t-167 78t-182 -63q-62 -63 -62 -176v-580h-256v1047h256v-84q111 94 282 94q430 0 430 -508v-469q0 -236 -114 -335t-332 -99l18 248q94 14 133 52t39 134z" />
    <glyph glyph-name="eng" unicode="&#x14b;" horiz-adv-x="1095" 
d="M778 80v403q0 180 -45 258t-167 78t-182 -63q-62 -63 -62 -176v-580h-256v1047h256v-84q111 94 282 94q430 0 430 -508v-469q0 -236 -114 -335t-332 -99l18 248q94 14 133 52t39 134z" />
    <glyph glyph-name="Omacron" unicode="&#x14c;" horiz-adv-x="1163" 
d="M303 1157v229h557v-229h-557zM573 217q123 0 213 90t91 211q-1 121 -91 211t-213 90t-213 -90t-90 -211t90 -211t213 -90zM573 -23q-227 0 -388 159t-161 383t160 381t389 157t389 -157t160 -381t-161 -383t-388 -159z" />
    <glyph glyph-name="omacron" unicode="&#x14d;" horiz-adv-x="1163" 
d="M303 1157v229h557v-229h-557zM573 217q123 0 213 90t91 211q-1 121 -91 211t-213 90t-213 -90t-90 -211t90 -211t213 -90zM573 -23q-227 0 -388 159t-161 383t160 381t389 157t389 -157t160 -381t-161 -383t-388 -159z" />
    <glyph glyph-name="Obreve" unicode="&#x14e;" horiz-adv-x="1163" 
d="M582 1133q-96 0 -174 48t-121 130l162 90q43 -84 133 -84t133 84l162 -90q-43 -82 -121 -130t-174 -48zM573 217q123 0 213 90t91 211q-1 121 -91 211t-213 90t-213 -90t-90 -211t90 -211t213 -90zM573 -23q-227 0 -388 159t-161 383t160 381t389 157t389 -157t160 -381
t-161 -383t-388 -159z" />
    <glyph glyph-name="obreve" unicode="&#x14f;" horiz-adv-x="1163" 
d="M582 1133q-96 0 -174 48t-121 130l162 90q43 -84 133 -84t133 84l162 -90q-43 -82 -121 -130t-174 -48zM573 217q123 0 213 90t91 211q-1 121 -91 211t-213 90t-213 -90t-90 -211t90 -211t213 -90zM573 -23q-227 0 -388 159t-161 383t160 381t389 157t389 -157t160 -381
t-161 -383t-388 -159z" />
    <glyph glyph-name="Ohungarumlaut" unicode="&#x150;" horiz-adv-x="1163" 
d="M702 1137l-129 125l209 249l150 -143zM383 1137l-129 125l209 249l149 -143zM573 217q123 0 213 90t91 211q-1 121 -91 211t-213 90t-213 -90t-90 -211t90 -211t213 -90zM573 -23q-227 0 -388 159t-161 383t160 381t389 157t389 -157t160 -381t-161 -383t-388 -159z" />
    <glyph glyph-name="ohungarumlaut" unicode="&#x151;" horiz-adv-x="1163" 
d="M702 1137l-129 125l209 249l150 -143zM383 1137l-129 125l209 249l149 -143zM573 217q123 0 213 90t91 211q-1 121 -91 211t-213 90t-213 -90t-90 -211t90 -211t213 -90zM573 -23q-227 0 -388 159t-161 383t160 381t389 157t389 -157t160 -381t-161 -383t-388 -159z" />
    <glyph glyph-name="OE" unicode="&#x152;" horiz-adv-x="2007" 
d="M1430 819q-92 0 -168 -51t-113 -133h557q-78 184 -276 184zM578 217q123 0 213 90t90 211t-90 211t-213 90t-213 -90q-91 -90 -91 -211t90 -211t214 -90zM578 -23q-227 0 -389 159q-161 159 -161 383t160 381t390 157q262 0 426 -197q164 197 416 197t406 -162t152 -393
q0 -25 -4 -70h-831q33 -102 111 -159q80 -56 186 -56t171 32t115 101l216 -119q-168 -254 -492 -254q-285 0 -449 197q-165 -197 -423 -197z" />
    <glyph glyph-name="oe" unicode="&#x153;" horiz-adv-x="2007" 
d="M1430 819q-92 0 -168 -51t-113 -133h557q-78 184 -276 184zM578 217q123 0 213 90t90 211t-90 211t-213 90t-213 -90q-91 -90 -91 -211t90 -211t214 -90zM578 -23q-227 0 -389 159q-161 159 -161 383t160 381t390 157q262 0 426 -197q164 197 416 197t406 -162t152 -393
q0 -25 -4 -70h-831q33 -102 111 -159q80 -56 186 -56t171 32t115 101l216 -119q-168 -254 -492 -254q-285 0 -449 197q-165 -197 -423 -197z" />
    <glyph glyph-name="Racute" unicode="&#x154;" horiz-adv-x="659" 
d="M195 1116l-52 203l435 139l57 -229zM66 0v1047h258v-101q109 109 309 111l-17 -273q-170 0 -231 -59t-61 -193v-532h-258z" />
    <glyph glyph-name="racute" unicode="&#x155;" horiz-adv-x="657" 
d="M150 1116l-52 203l434 139l58 -229zM66 0v1047h258v-101q109 109 309 111l-17 -273q-170 0 -231 -59t-61 -193v-532h-258z" />
    <glyph glyph-name="Rcommaaccent" unicode="&#x156;" horiz-adv-x="657" 
d="M70 -344v250h245v-238l-43 -139h-141l19 127h-80zM66 0v1047h258v-101q109 109 309 111l-17 -273q-170 0 -231 -59t-61 -193v-532h-258z" />
    <glyph glyph-name="rcommaaccent" unicode="&#x157;" horiz-adv-x="657" 
d="M70 -344v250h245v-238l-43 -139h-141l19 127h-80zM66 0v1047h258v-101q109 109 309 111l-17 -273q-170 0 -231 -59t-61 -193v-532h-258z" />
    <glyph glyph-name="Rcaron" unicode="&#x158;" horiz-adv-x="669" 
d="M328 1112l-318 133l78 205l240 -123l239 123l78 -205zM66 0v1047h258v-101q109 109 309 111l-17 -273q-170 0 -231 -59t-61 -193v-532h-258z" />
    <glyph glyph-name="rcaron" unicode="&#x159;" horiz-adv-x="669" 
d="M328 1112l-318 133l78 205l240 -123l239 123l78 -205zM66 0v1047h258v-101q109 109 309 111l-17 -273q-170 0 -231 -59t-61 -193v-532h-258z" />
    <glyph glyph-name="Sacute" unicode="&#x15a;" horiz-adv-x="987" 
d="M346 1116l-51 203l434 139l57 -229zM967 324q0 -172 -127 -260t-343 -87t-340 95t-132 264h272q6 -68 57 -112q50 -44 140 -44t136 32t46 69t-22 62t-81 36q-59 10 -112 16q-208 24 -304 94q-42 31 -75 91t-33 137q0 154 115 247q116 93 316 93t317 -92t129 -250h-262
q-4 39 -14 65t-52 50q-41 24 -113 24q-73 0 -115 -25t-42 -60t14 -47q14 -13 36 -29t80 -25q57 -9 131 -21q280 -46 348 -180q30 -59 30 -143z" />
    <glyph glyph-name="sacute" unicode="&#x15b;" horiz-adv-x="987" 
d="M301 1116l-51 203l434 139l57 -229zM967 324q0 -172 -127 -260t-343 -87t-340 95t-132 264h272q6 -68 57 -112q50 -44 140 -44t136 32t46 69t-22 62t-81 36q-59 10 -112 16q-208 24 -304 94q-42 31 -75 91t-33 137q0 154 115 247q116 93 316 93t317 -92t129 -250h-262
q-4 39 -14 65t-52 50q-41 24 -113 24q-73 0 -115 -25t-42 -60t14 -47q14 -13 36 -29t80 -25q57 -9 131 -21q280 -46 348 -180q30 -59 30 -143z" />
    <glyph glyph-name="Scircumflex" unicode="&#x15c;" horiz-adv-x="987" 
d="M240 1130l-70 181l309 153l309 -153l-69 -181l-240 101zM967 324q0 -172 -127 -260t-343 -87t-340 95t-132 264h272q6 -68 57 -112q50 -44 140 -44t136 32t46 69t-22 62t-81 36q-59 10 -112 16q-208 24 -304 94q-42 31 -75 91t-33 137q0 154 115 247q116 93 316 93
t317 -92t129 -250h-262q-4 39 -14 65t-52 50q-41 24 -113 24q-73 0 -115 -25t-42 -60t14 -47q14 -13 36 -29t80 -25q57 -9 131 -21q280 -46 348 -180q30 -59 30 -143z" />
    <glyph glyph-name="scircumflex" unicode="&#x15d;" horiz-adv-x="987" 
d="M240 1130l-70 181l309 153l309 -153l-69 -181l-240 101zM967 324q0 -172 -127 -260t-343 -87t-340 95t-132 264h272q6 -68 57 -112q50 -44 140 -44t136 32t46 69t-22 62t-81 36q-59 10 -112 16q-208 24 -304 94q-42 31 -75 91t-33 137q0 154 115 247q116 93 316 93
t317 -92t129 -250h-262q-4 39 -14 65t-52 50q-41 24 -113 24q-73 0 -115 -25t-42 -60t14 -47q14 -13 36 -29t80 -25q57 -9 131 -21q280 -46 348 -180q30 -59 30 -143z" />
    <glyph glyph-name="Scedilla" unicode="&#x15e;" horiz-adv-x="987" 
d="M453 -414q-74 0 -126 52q-53 52 -53 124q0 74 52 125t127 52v41q-201 10 -312 103t-116 253h272q6 -68 57 -112q50 -44 140 -44t136 32t46 69t-22 62t-81 36q-59 10 -112 16q-208 24 -304 94q-42 31 -75 91t-33 137q0 154 115 247q116 93 316 93t317 -92t129 -250h-262
q-4 39 -14 65t-52 50q-41 24 -113 24q-73 0 -115 -25t-42 -60t14 -47q14 -13 36 -29t80 -25q57 -9 131 -21q280 -46 348 -180q30 -59 30 -143q0 -158 -108 -244t-288 -98v-156h-118q-25 0 -42 -18t-17 -45q0 -26 16 -43q18 -17 43 -17t42 17t17 42h119q0 -74 -52 -125
t-126 -51z" />
    <glyph glyph-name="scedilla" unicode="&#x15f;" horiz-adv-x="987" 
d="M453 -414q-74 0 -126 52q-53 52 -53 124q0 74 52 125t127 52v41q-201 10 -312 103t-116 253h272q6 -68 57 -112q50 -44 140 -44t136 32t46 69t-22 62t-81 36q-59 10 -112 16q-208 24 -304 94q-42 31 -75 91t-33 137q0 154 115 247q116 93 316 93t317 -92t129 -250h-262
q-4 39 -14 65t-52 50q-41 24 -113 24q-73 0 -115 -25t-42 -60t14 -47q14 -13 36 -29t80 -25q57 -9 131 -21q280 -46 348 -180q30 -59 30 -143q0 -158 -108 -244t-288 -98v-156h-118q-25 0 -42 -18t-17 -45q0 -26 16 -43q18 -17 43 -17t42 17t17 42h119q0 -74 -52 -125
t-126 -51z" />
    <glyph glyph-name="Scaron" unicode="&#x160;" horiz-adv-x="987" 
d="M479 1112l-317 133l78 205l239 -123l240 123l78 -205zM967 324q0 -172 -127 -260t-343 -87t-340 95t-132 264h272q6 -68 57 -112q50 -44 140 -44t136 32t46 69t-22 62t-81 36q-59 10 -112 16q-208 24 -304 94q-42 31 -75 91t-33 137q0 154 115 247q116 93 316 93t317 -92
t129 -250h-262q-4 39 -14 65t-52 50q-41 24 -113 24q-73 0 -115 -25t-42 -60t14 -47q14 -13 36 -29t80 -25q57 -9 131 -21q280 -46 348 -180q30 -59 30 -143z" />
    <glyph glyph-name="scaron" unicode="&#x161;" horiz-adv-x="987" 
d="M479 1112l-317 133l78 205l239 -123l240 123l78 -205zM967 324q0 -172 -127 -260t-343 -87t-340 95t-132 264h272q6 -68 57 -112q50 -44 140 -44t136 32t46 69t-22 62t-81 36q-59 10 -112 16q-208 24 -304 94q-42 31 -75 91t-33 137q0 154 115 247q116 93 316 93t317 -92
t129 -250h-262q-4 39 -14 65t-52 50q-41 24 -113 24q-73 0 -115 -25t-42 -60t14 -47q14 -13 36 -29t80 -25q57 -9 131 -21q280 -46 348 -180q30 -59 30 -143z" />
    <glyph glyph-name="Tcommaaccent" unicode="&#x162;" horiz-adv-x="698" 
d="M209 -344v250h246v-238l-43 -139h-142l19 127h-80zM623 -6q-238 0 -362 94t-124 342v379h-125v238h125v274h258v-274h236v-238h-236v-379q0 -108 48 -146t219 -40l16 -250h-55z" />
    <glyph glyph-name="tcommaaccent" unicode="&#x163;" horiz-adv-x="698" 
d="M209 -344v250h246v-238l-43 -139h-142l19 127h-80zM623 -6q-238 0 -362 94t-124 342v379h-125v238h125v274h258v-274h236v-238h-236v-379q0 -108 48 -146t219 -40l16 -250h-55z" />
    <glyph glyph-name="Tcaron" unicode="&#x164;" horiz-adv-x="946" 
d="M668 1071v250h245v-238l-43 -139h-141l19 127h-80zM623 -6q-238 0 -362 94t-124 342v379h-125v238h125v274h258v-274h236v-238h-236v-379q0 -108 48 -146t219 -40l16 -250h-55z" />
    <glyph glyph-name="tcaron" unicode="&#x165;" horiz-adv-x="946" 
d="M668 1071v250h245v-238l-43 -139h-141l19 127h-80zM623 -6q-238 0 -362 94t-124 342v379h-125v238h125v274h258v-274h236v-238h-236v-379q0 -108 48 -146t219 -40l16 -250h-55z" />
    <glyph glyph-name="Tbar" unicode="&#x166;" horiz-adv-x="702" 
d="M635 -6q-238 0 -362 94t-123 342v23h-125v237h125v119h-125v238h125v274h258v-274h235v-238h-235v-119h235v-237h-235v-23q0 -108 48 -146t218 -40l16 -250h-55z" />
    <glyph glyph-name="tbar" unicode="&#x167;" horiz-adv-x="702" 
d="M635 -6q-238 0 -362 94t-123 342v23h-125v237h125v119h-125v238h125v274h258v-274h235v-238h-235v-119h235v-237h-235v-23q0 -108 48 -146t218 -40l16 -250h-55z" />
    <glyph glyph-name="Utilde" unicode="&#x168;" horiz-adv-x="1087" 
d="M406 1407q49 0 134 -34q86 -34 142 -34t135 58l70 -172q-76 -88 -189 -88q-49 1 -131 33t-129 32q-98 0 -159 -57l-74 172q98 90 201 90zM492 -10q-430 0 -431 508v549h256v-484q0 -180 45 -258t167 -78q121 -1 183 63t62 177v580h256v-1047h-256v84q-110 -94 -282 -94z
" />
    <glyph glyph-name="utilde" unicode="&#x169;" horiz-adv-x="1087" 
d="M406 1407q49 0 134 -34q86 -34 142 -34t135 58l70 -172q-76 -88 -189 -88q-49 1 -131 33t-129 32q-98 0 -159 -57l-74 172q98 90 201 90zM492 -10q-430 0 -431 508v549h256v-484q0 -180 45 -258t167 -78q121 -1 183 63t62 177v580h256v-1047h-256v84q-110 -94 -282 -94z
" />
    <glyph glyph-name="Umacron" unicode="&#x16a;" horiz-adv-x="1087" 
d="M268 1157v229h557v-229h-557zM492 -10q-430 0 -431 508v549h256v-484q0 -180 45 -258t167 -78q121 -1 183 63t62 177v580h256v-1047h-256v84q-110 -94 -282 -94z" />
    <glyph glyph-name="umacron" unicode="&#x16b;" horiz-adv-x="1087" 
d="M268 1157v229h557v-229h-557zM492 -10q-430 0 -431 508v549h256v-484q0 -180 45 -258t167 -78q121 -1 183 63t62 177v580h256v-1047h-256v84q-110 -94 -282 -94z" />
    <glyph glyph-name="Ubreve" unicode="&#x16c;" horiz-adv-x="1087" 
d="M547 1133q-96 0 -174 48t-121 130l162 90q41 -84 133 -84t133 84l162 -90q-43 -82 -121 -130t-174 -48zM492 -10q-430 0 -431 508v549h256v-484q0 -180 45 -258t167 -78q121 -1 183 63t62 177v580h256v-1047h-256v84q-110 -94 -282 -94z" />
    <glyph glyph-name="ubreve" unicode="&#x16d;" horiz-adv-x="1087" 
d="M547 1133q-96 0 -174 48t-121 130l162 90q41 -84 133 -84t133 84l162 -90q-43 -82 -121 -130t-174 -48zM492 -10q-430 0 -431 508v549h256v-484q0 -180 45 -258t167 -78q121 -1 183 63t62 177v580h256v-1047h-256v84q-110 -94 -282 -94z" />
    <glyph glyph-name="Uring" unicode="&#x16e;" horiz-adv-x="1087" 
d="M547 1190q33 0 57 24t23 58q0 36 -24 60q-25 24 -57 24t-56 -25t-24 -59t24 -59q24 -23 57 -23zM547 1094q-74 0 -126 52t-52 126t52 125t126 51t126 -51t52 -125t-52 -126t-126 -52zM492 -10q-430 0 -431 508v549h256v-484q0 -180 45 -258t167 -78q121 -1 183 63t62 177
v580h256v-1047h-256v84q-110 -94 -282 -94z" />
    <glyph glyph-name="uring" unicode="&#x16f;" horiz-adv-x="1087" 
d="M547 1190q33 0 57 24t23 58q0 36 -24 60q-25 24 -57 24t-56 -25t-24 -59t24 -59q24 -23 57 -23zM547 1094q-74 0 -126 52t-52 126t52 125t126 51t126 -51t52 -125t-52 -126t-126 -52zM492 -10q-430 0 -431 508v549h256v-484q0 -180 45 -258t167 -78q121 -1 183 63t62 177
v580h256v-1047h-256v84q-110 -94 -282 -94z" />
    <glyph glyph-name="Uhungarumlaut" unicode="&#x170;" horiz-adv-x="1087" 
d="M668 1137l-129 125l209 249l149 -143zM348 1137l-129 125l209 249l150 -143zM492 -10q-430 0 -431 508v549h256v-484q0 -180 45 -258t167 -78q121 -1 183 63t62 177v580h256v-1047h-256v84q-110 -94 -282 -94z" />
    <glyph glyph-name="uhungarumlaut" unicode="&#x171;" horiz-adv-x="1087" 
d="M668 1137l-129 125l209 249l149 -143zM348 1137l-129 125l209 249l150 -143zM492 -10q-430 0 -431 508v549h256v-484q0 -180 45 -258t167 -78q121 -1 183 63t62 177v580h256v-1047h-256v84q-110 -94 -282 -94z" />
    <glyph glyph-name="Uogonek" unicode="&#x172;" horiz-adv-x="1087" 
d="M838 -373q-80 0 -135 45q-54 45 -54 121q0 127 117 207v84q-111 -94 -283 -94q-430 0 -430 508v549h256v-484q0 -180 45 -258t167 -78q121 -1 183 63t62 177v580h256v-1047h-113q-104 -102 -104 -164q0 -72 74 -72h67v-137h-108z" />
    <glyph glyph-name="uogonek" unicode="&#x173;" horiz-adv-x="1087" 
d="M838 -373q-80 0 -135 45q-54 45 -54 121q0 127 117 207v84q-111 -94 -283 -94q-430 0 -430 508v549h256v-484q0 -180 45 -258t167 -78q121 -1 183 63t62 177v580h256v-1047h-113q-104 -102 -104 -164q0 -72 74 -72h67v-137h-108z" />
    <glyph glyph-name="Wcircumflex" unicode="&#x174;" horiz-adv-x="1552" 
d="M545 1130l-70 181l309 153l310 -153l-70 -181l-240 101zM309 0l-297 1047h258l189 -678l190 678h264l189 -678l190 678h248l-297 -1047h-297l-172 623l-172 -623h-293z" />
    <glyph glyph-name="wcircumflex" unicode="&#x175;" horiz-adv-x="1552" 
d="M545 1130l-70 181l309 153l310 -153l-70 -181l-240 101zM309 0l-297 1047h258l189 -678l190 678h264l189 -678l190 678h248l-297 -1047h-297l-172 623l-172 -623h-293z" />
    <glyph glyph-name="Ycircumflex" unicode="&#x176;" horiz-adv-x="1005" 
d="M268 1130l-69 181l309 153l309 -153l-69 -181l-240 101zM313 -379q-129 0 -202 29l36 239q49 -10 95 -10q106 0 106 92q0 39 -47 189l-289 887h271l221 -717l225 717h264l-313 -979q-82 -256 -160 -352t-207 -95z" />
    <glyph glyph-name="ycircumflex" unicode="&#x177;" horiz-adv-x="1005" 
d="M268 1130l-69 181l309 153l309 -153l-69 -181l-240 101zM313 -379q-129 0 -202 29l36 239q49 -10 95 -10q106 0 106 92q0 39 -47 189l-289 887h271l221 -717l225 717h264l-313 -979q-82 -256 -160 -352t-207 -95z" />
    <glyph glyph-name="Ydieresis" unicode="&#x178;" horiz-adv-x="1005" 
d="M549 1153v238h237v-238h-237zM229 1153v238h238v-238h-238zM313 -379q-129 0 -202 29l36 239q49 -10 95 -10q106 0 106 92q0 39 -47 189l-289 887h271l221 -717l225 717h264l-313 -979q-82 -256 -160 -352t-207 -95z" />
    <glyph glyph-name="Zacute" unicode="&#x179;" horiz-adv-x="974" 
d="M354 1116l-51 203l434 139l58 -229zM29 0v227l555 590h-529v230h867v-230l-555 -590h591v-227h-929z" />
    <glyph glyph-name="zacute" unicode="&#x17a;" horiz-adv-x="974" 
d="M309 1116l-51 203l434 139l58 -229zM29 0v227l555 590h-529v230h867v-230l-555 -590h591v-227h-929z" />
    <glyph glyph-name="Zdotaccent" unicode="&#x17b;" horiz-adv-x="974" 
d="M358 1143v258h258v-258h-258zM29 0v227l555 590h-529v230h867v-230l-555 -590h591v-227h-929z" />
    <glyph glyph-name="zdotaccent" unicode="&#x17c;" horiz-adv-x="974" 
d="M358 1143v258h258v-258h-258zM29 0v227l555 590h-529v230h867v-230l-555 -590h591v-227h-929z" />
    <glyph glyph-name="Zcaron" unicode="&#x17d;" horiz-adv-x="974" 
d="M487 1112l-317 133l78 205l239 -123l240 123l78 -205zM29 0v227l555 590h-529v230h867v-230l-555 -590h591v-227h-929z" />
    <glyph glyph-name="zcaron" unicode="&#x17e;" horiz-adv-x="974" 
d="M487 1112l-317 133l78 205l239 -123l240 123l78 -205zM29 0v227l555 590h-529v230h867v-230l-555 -590h591v-227h-929z" />
    <glyph glyph-name="florin" unicode="&#x192;" horiz-adv-x="661" 
d="M141 694h-104v238h104v45q0 258 121 347t389 89l-18 -250q-150 0 -192 -37t-42 -149v-45h195v-238h-195v-559q0 -229 -107 -327t-310 -109v256q98 12 129 51t30 129v559z" />
    <glyph glyph-name="Scommaaccent" unicode="&#x218;" horiz-adv-x="987" 
d="M379 -344v250h246v-238l-43 -139h-142l19 127h-80zM967 324q0 -172 -127 -260t-343 -87t-340 95t-132 264h272q6 -68 57 -112q50 -44 140 -44t136 32t46 69t-22 62t-81 36q-59 10 -112 16q-208 24 -304 94q-42 31 -75 91t-33 137q0 154 115 247q116 93 316 93t317 -92
t129 -250h-262q-4 39 -14 65t-52 50q-41 24 -113 24q-73 0 -115 -25t-42 -60t14 -47q14 -13 36 -29t80 -25q57 -9 131 -21q280 -46 348 -180q30 -59 30 -143z" />
    <glyph glyph-name="scommaaccent" unicode="&#x219;" horiz-adv-x="987" 
d="M379 -344v250h246v-238l-43 -139h-142l19 127h-80zM967 324q0 -172 -127 -260t-343 -87t-340 95t-132 264h272q6 -68 57 -112q50 -44 140 -44t136 32t46 69t-22 62t-81 36q-59 10 -112 16q-208 24 -304 94q-42 31 -75 91t-33 137q0 154 115 247q116 93 316 93t317 -92
t129 -250h-262q-4 39 -14 65t-52 50q-41 24 -113 24q-73 0 -115 -25t-42 -60t14 -47q14 -13 36 -29t80 -25q57 -9 131 -21q280 -46 348 -180q30 -59 30 -143z" />
    <glyph glyph-name="dotlessj" unicode="&#x237;" horiz-adv-x="389" 
d="M66 70v977h258v-977q0 -236 -116 -336t-333 -99l19 248q94 14 133 52t39 135z" />
    <glyph glyph-name="schwa" unicode="&#x259;" horiz-adv-x="1163" 
d="M582 215q92 0 168 51t112 133h-557q78 -184 277 -184zM576 -23q-236 0 -390 162t-153 393q0 25 4 70h831q-33 102 -111 159q-79 56 -185 56t-172 -32q-65 -32 -115 -101l-215 119q168 254 491 254q246 0 408 -154q161 -154 161 -383t-160 -386q-158 -157 -394 -157z" />
    <glyph glyph-name="circumflex" unicode="&#x2c6;" horiz-adv-x="819" 
d="M170 1034l-70 180l310 154l309 -154l-70 -180l-239 101z" />
    <glyph glyph-name="caron" unicode="&#x2c7;" horiz-adv-x="819" 
d="M410 1016l-318 133l78 205l240 -123l239 123l78 -205z" />
    <glyph glyph-name="breve" unicode="&#x2d8;" horiz-adv-x="819" 
d="M410 1036q-96 0 -174 48t-121 130l161 91q44 -84 134 -84t133 84l162 -91q-43 -82 -121 -130t-174 -48z" />
    <glyph glyph-name="dotaccent" unicode="&#x2d9;" horiz-adv-x="819" 
d="M281 1047v258h258v-258h-258z" />
    <glyph glyph-name="ring" unicode="&#x2da;" horiz-adv-x="819" 
d="M410 1094q32 0 56 24t23 58q1 36 -23 60t-56 24t-57 -25q-23 -25 -23 -59t23 -59q24 -23 57 -23zM410 997q-74 1 -126 53t-53 126q1 74 53 124t126 52q74 0 126 -52t52 -124q0 -74 -52 -126t-126 -53z" />
    <glyph glyph-name="ogonek" unicode="&#x2db;" horiz-adv-x="819" 
d="M440 -373q-80 0 -134 45t-54 121q0 131 131 217h141q-117 -111 -116 -174q0 -72 73 -72h68v-137h-109z" />
    <glyph glyph-name="tilde" unicode="&#x2dc;" horiz-adv-x="819" 
d="M268 1311q49 0 134 -34q86 -34 142 -34t136 57l70 -172q-76 -88 -189 -88q-49 0 -131 33t-129 33q-99 0 -160 -57l-73 172q98 90 200 90z" />
    <glyph glyph-name="hungarumlaut" unicode="&#x2dd;" horiz-adv-x="819" 
d="M530 1040l-129 125l209 250l150 -143zM211 1040l-129 125l209 250l149 -143z" />
    <glyph glyph-name="Wgrave" unicode="&#x1e80;" horiz-adv-x="1552" 
d="M918 1116l-441 113l58 229l434 -139zM309 0l-297 1047h258l189 -678l190 678h264l189 -678l190 678h248l-297 -1047h-297l-172 623l-172 -623h-293z" />
    <glyph glyph-name="wgrave" unicode="&#x1e81;" horiz-adv-x="1552" 
d="M963 1116l-441 113l58 229l434 -139zM309 0l-297 1047h258l189 -678l190 678h264l189 -678l190 678h248l-297 -1047h-297l-172 623l-172 -623h-293z" />
    <glyph glyph-name="Wacute" unicode="&#x1e82;" horiz-adv-x="1552" 
d="M651 1116l-51 203l434 139l58 -229zM309 0l-297 1047h258l189 -678l190 678h264l189 -678l190 678h248l-297 -1047h-297l-172 623l-172 -623h-293z" />
    <glyph glyph-name="wacute" unicode="&#x1e83;" horiz-adv-x="1552" 
d="M606 1116l-51 203l434 139l58 -229zM309 0l-297 1047h258l189 -678l190 678h264l189 -678l190 678h248l-297 -1047h-297l-172 623l-172 -623h-293z" />
    <glyph glyph-name="Wdieresis" unicode="&#x1e84;" horiz-adv-x="1552" 
d="M825 1153v238h238v-238h-238zM506 1153v238h237v-238h-237zM309 0l-297 1047h258l189 -678l190 678h264l189 -678l190 678h248l-297 -1047h-297l-172 623l-172 -623h-293z" />
    <glyph glyph-name="wdieresis" unicode="&#x1e85;" horiz-adv-x="1552" 
d="M825 1153v238h238v-238h-238zM506 1153v238h237v-238h-237zM309 0l-297 1047h258l189 -678l190 678h264l189 -678l190 678h248l-297 -1047h-297l-172 623l-172 -623h-293z" />
    <glyph glyph-name="Ygrave" unicode="&#x1ef2;" horiz-adv-x="1005" 
d="M641 1116l-440 113l57 229l434 -139zM313 -379q-129 0 -202 29l36 239q49 -10 95 -10q106 0 106 92q0 39 -47 189l-289 887h271l221 -717l225 717h264l-313 -979q-82 -256 -160 -352t-207 -95z" />
    <glyph glyph-name="ygrave" unicode="&#x1ef3;" horiz-adv-x="1005" 
d="M686 1116l-440 113l57 229l434 -139zM313 -379q-129 0 -202 29l36 239q49 -10 95 -10q106 0 106 92q0 39 -47 189l-289 887h271l221 -717l225 717h264l-313 -979q-82 -256 -160 -352t-207 -95z" />
    <glyph glyph-name="endash" unicode="&#x2013;" horiz-adv-x="1138" 
d="M66 401v242h1007v-242h-1007z" />
    <glyph glyph-name="emdash" unicode="&#x2014;" horiz-adv-x="1753" 
d="M66 401v242h1622v-242h-1622z" />
    <glyph glyph-name="quoteleft" unicode="&#x2018;" horiz-adv-x="387" 
d="M66 1012v250l43 139h151l-18 -127h80v-262h-256z" />
    <glyph glyph-name="quoteright" unicode="&#x2019;" horiz-adv-x="387" 
d="M66 1139v262h256v-250l-43 -139h-152l18 127h-79z" />
    <glyph glyph-name="quotesinglbase" unicode="&#x201a;" horiz-adv-x="387" 
d="M66 0v262h256v-250l-43 -139h-152l18 127h-79z" />
    <glyph glyph-name="quotedblleft" unicode="&#x201c;" horiz-adv-x="708" 
d="M387 1012v250l43 139h152l-19 -127h80v-262h-256zM66 1012v250l43 139h151l-18 -127h80v-262h-256z" />
    <glyph glyph-name="quotedblright" unicode="&#x201d;" horiz-adv-x="708" 
d="M387 1139v262h256v-250l-43 -139h-151l18 127h-80zM66 1139v262h256v-250l-43 -139h-152l18 127h-79z" />
    <glyph glyph-name="quotedblbase" unicode="&#x201e;" horiz-adv-x="708" 
d="M387 0v262h256v-250l-43 -139h-151l18 127h-80zM66 0v262h256v-250l-43 -139h-152l18 127h-79z" />
    <glyph glyph-name="dagger" unicode="&#x2020;" horiz-adv-x="802" 
d="M272 -293v1102h-235v238h235v354h258v-354h236v-238h-236v-1102h-258z" />
    <glyph glyph-name="daggerdbl" unicode="&#x2021;" horiz-adv-x="802" 
d="M272 -293v373h-235v237h235v492h-235v238h235v354h258v-354h236v-238h-236v-492h236v-237h-236v-373h-258z" />
    <glyph glyph-name="bullet" unicode="&#x2022;" horiz-adv-x="524" 
d="M66 326v393h393v-393h-393z" />
    <glyph glyph-name="ellipsis" unicode="&#x2026;" horiz-adv-x="1167" 
d="M844 0v270h258v-270h-258zM455 0v270h258v-270h-258zM66 0v270h258v-270h-258z" />
    <glyph glyph-name="perthousand" unicode="&#x2030;" horiz-adv-x="2269" 
d="M399 0l574 1401h246l-574 -1401h-246zM1907 162q45 0 75 33t31 75v207q0 47 -31 78q-32 31 -76 31t-75 -31t-31 -78v-207q0 -44 31 -76t76 -32zM1907 -23q-127 0 -212 86t-85 207v207q0 123 85 208t212 85t212 -85t85 -208v-207q0 -121 -85 -207t-212 -86zM1247 162
q45 0 76 33t31 75v207q0 47 -31 78t-76 31t-76 -31t-30 -78v-207q1 -44 31 -76t75 -32zM1247 -23q-127 0 -212 86t-85 207v207q0 123 85 208t212 85t212 -85t85 -208v-207q0 -121 -85 -207t-212 -86zM362 803q45 0 76 33t31 75v207q0 47 -31 78t-76 31q-46 0 -76 -31
t-30 -78v-207q0 -43 30 -75t76 -33zM362 618q-128 0 -212 86t-84 207v207q0 123 85 208t211 85t212 -85q85 -85 85 -208v-207q0 -121 -85 -207t-212 -86z" />
    <glyph glyph-name="guilsinglleft" unicode="&#x2039;" horiz-adv-x="667" 
d="M344 78l-246 440l246 443h225l-245 -443l245 -440h-225z" />
    <glyph glyph-name="guilsinglright" unicode="&#x203a;" horiz-adv-x="667" 
d="M98 78l246 440l-246 443h226l245 -443l-245 -440h-226z" />
    <glyph glyph-name="Euro" unicode="&#x20ac;" horiz-adv-x="1101" 
d="M674 -23q-193 0 -324 113t-155 285h-170v176h165v92h-165v176h168q16 178 149 298t332 120q272 0 409 -211l-209 -129q-68 102 -200 102q-82 0 -149 -51t-85 -129h328v-176h-332v-92h332v-176h-322q24 -70 88 -115t140 -45q133 0 200 102l209 -129q-137 -211 -409 -211z
" />
    <glyph glyph-name="trademark" unicode="&#x2122;" horiz-adv-x="1665" 
d="M590 555v670h190v-72q55 80 177 80t186 -94q86 94 223 94q250 0 250 -326v-352h-209v309q0 106 -18 152q-17 46 -71 47q-54 0 -88 -37t-34 -98v-373h-186v309q0 106 -22 152t-82 47q-60 0 -93 -37t-33 -98v-373h-190zM135 866v195h-86v164h86v176h191v-176h155v-164h-155
v-195q0 -70 30 -94t144 -24l12 -195q-205 -7 -291 59t-86 254z" />
    <glyph glyph-name="minus" unicode="&#x2212;" horiz-adv-x="868" 
d="M25 479v254h819v-254h-819z" />
    <glyph glyph-name="notequal" unicode="&#x2260;" horiz-adv-x="868" 
d="M25 295v254h297l30 115h-327v254h395l61 233h197l-62 -233h228v-254h-295l-31 -115h326v-254h-391l-62 -234h-196l61 234h-231z" />
    <glyph glyph-name="lessequal" unicode="&#x2264;" horiz-adv-x="868" 
d="M25 68v245h458l-458 187v217l819 330v-275l-445 -166l445 -162v-376h-819z" />
    <glyph glyph-name="greaterequal" unicode="&#x2265;" horiz-adv-x="868" 
d="M25 68v376l444 162l-444 166v275l819 -330v-217l-459 -187h459v-245h-819z" />
    <glyph glyph-name="commaaccent" unicode="&#xf6c3;" horiz-adv-x="819" 
d="M287 -250v250h245v-238l-43 -139h-141l19 127h-80z" />
    <glyph glyph-name="f_i" unicode="&#xfb01;" horiz-adv-x="1091" 
d="M768 1143v258h258v-258h-258zM768 0v1047h258v-1047h-258zM141 0v694h-104v238h104v45q0 246 132 346t419 90l-18 -250q-176 0 -225 -38t-50 -148v-45h236v-238h-236v-694h-258z" />
    <glyph glyph-name="f_l" unicode="&#xfb02;" horiz-adv-x="1091" 
d="M768 0v1401h258v-1401h-258zM141 0v694h-104v238h104v45q0 246 132 346t419 90l-18 -250q-176 0 -225 -38t-50 -148v-45h236v-238h-236v-694h-258z" />
    <glyph glyph-name="space.en" 
 />
    <glyph glyph-name="space.em" horiz-adv-x="2048" 
 />
    <glyph glyph-name="space.thin" horiz-adv-x="409" 
 />
    <glyph glyph-name="zero.salt_slash" horiz-adv-x="1019" 
d="M283 442q0 -84 51 -145l176 700q-94 -1 -161 -67t-66 -160v-328zM737 770q0 82 -55 148l-172 -703q94 0 161 67t66 160v328zM510 -23q-203 -1 -338 135t-135 330v328q0 195 135 330t338 135t338 -135t135 -330v-328q0 -195 -135 -330t-338 -135z" />
    <glyph glyph-name="ruble" horiz-adv-x="1144" 
d="M432 578h221q88 0 145 60q56 60 56 145t-59 143t-145 59q-86 0 -152 -58t-66 -141v-208zM176 0v90h-151v176h151v103h-151v176h151v667h256v-84q96 94 221 95q183 0 315 -128q132 -129 132 -313t-128 -314t-319 -130h-221v-72h270v-176h-270v-90h-256z" />
    <glyph glyph-name="prime" horiz-adv-x="573" 
d="M127 850l61 551h279l-119 -551h-221z" />
    <glyph glyph-name="primedbl" horiz-adv-x="946" 
d="M479 850l62 551h278l-119 -551h-221zM127 850l61 551h279l-119 -551h-221z" />
    <glyph glyph-name="zero.tab" 
d="M512 215q94 0 161 67t66 160v328q0 94 -66 161q-67 67 -161 67t-161 -68q-67 -66 -66 -160v-328q1 -94 67 -160t160 -67zM512 -23q-203 -1 -338 135t-135 330v328q0 195 135 330t338 135t338 -135t135 -330v-328q0 -195 -135 -330t-338 -135z" />
    <glyph glyph-name="zero.tab_salt_slash" 
d="M285 442q0 -84 51 -145l176 700q-94 -1 -161 -67t-66 -160v-328zM739 770q0 82 -55 148l-172 -703q94 0 161 67t66 160v328zM512 -23q-203 -1 -338 135t-135 330v328q0 195 135 330t338 135t338 -135t135 -330v-328q0 -195 -135 -330t-338 -135z" />
    <glyph glyph-name="one.tab" 
d="M438 0v973h-151v239h409v-1212h-258z" />
    <glyph glyph-name="two.tab" 
d="M127 0v238l483 436q82 74 82 148t-52 126q-52 51 -120 51t-116 -35q-48 -36 -62 -90l-227 66q47 139 157 217q111 78 240 78q174 0 295 -120t121 -290q0 -104 -38 -180t-130 -156l-297 -251h465v-238h-801z" />
    <glyph glyph-name="three.tab" 
d="M920 428q0 -186 -134 -318t-325 -133q-137 0 -248 70t-166 184l217 121q23 -61 77 -99t131 -38q77 1 139 63t63 150q0 88 -62 148t-142 61q-81 0 -140 -39l-111 197l254 180h-348v237h727v-237l-195 -139q119 -55 191 -165t72 -243z" />
    <glyph glyph-name="four.tab" 
d="M592 410v368l-248 -368h248zM592 0v172h-539v238l539 802h258v-802h117v-238h-117v-172h-258z" />
    <glyph glyph-name="five.tab" 
d="M477 -23q-137 0 -248 69t-166 183l218 123q23 -61 77 -99t130 -38q78 1 140 63t62 150t-61 148t-152 61q-125 0 -186 -109l-201 115l68 569h669v-237h-460l-13 -117q61 16 123 16q193 0 326 -130t133 -316t-134 -318t-325 -133z" />
    <glyph glyph-name="six.tab" 
d="M520 215q88 1 150 63t63 150q0 88 -61 148q-60 60 -150 61q-90 0 -151 -60q-61 -61 -61 -149t60 -150q62 -62 150 -63zM520 -23q-194 1 -326 131t-133 318q0 106 62 225l293 561h276l-178 -338q203 0 334 -130t131 -316t-133 -318t-326 -133z" />
    <glyph glyph-name="seven.tab" 
d="M102 975v237h816v-237l-455 -975h-275l455 975h-541z" />
    <glyph glyph-name="eight.tab" 
d="M420 903q0 -41 30 -71t69 -31q40 1 71 31t31 71t-31 72t-71 31q-39 0 -69 -31t-30 -72zM520 213q74 0 126 52t52 126t-52 124t-127 50t-126 -50t-51 -124t52 -126t126 -52zM520 -23q-172 0 -293 121t-121 301t144 301q-66 88 -66 215t98 223t237 97q141 0 239 -96
q98 -95 98 -223t-68 -214q146 -123 146 -303t-121 -301t-293 -121z" />
    <glyph glyph-name="nine.tab" 
d="M519 575q89 1 151 61t61 148q0 88 -61 150q-62 62 -150 63q-88 0 -150 -62q-62 -63 -62 -151t60 -148q62 -60 151 -61zM520 1235q192 0 326 -130q133 -130 133 -319q0 -106 -61 -225l-293 -561h-277l178 338q-204 0 -334 130t-130 316t132 318q134 132 326 133z" />
    <glyph glyph-name="plus.tab" 
d="M383 184v295h-281v254h281v295h258v-295h281v-254h-281v-295h-258z" />
    <glyph glyph-name="minus.tab" 
d="M102 479v254h820v-254h-820z" />
    <glyph glyph-name="multiply.tab" 
d="M305 197l-182 184l211 227l-211 228l184 182l205 -219l205 219l184 -182l-213 -228l213 -227l-182 -184l-207 221z" />
    <glyph glyph-name="divide.tab" 
d="M383 803v246h258v-246h-258zM102 479v254h820v-254h-820zM383 164v246h258v-246h-258z" />
    <glyph glyph-name="equal.tab" 
d="M102 664v254h820v-254h-820zM102 295v254h820v-254h-820z" />
    <glyph glyph-name="less.tab" 
d="M913 168l-819 332v217l819 330v-275l-448 -166l448 -162v-276z" />
    <glyph glyph-name="greater.tab" 
d="M113 168v276l448 162l-448 166v275l819 -330v-217z" />
    <glyph glyph-name="dollar.tab" 
d="M342 852q0 -57 96 -86v166q-96 -18 -96 -80zM578 268q55 12 86 42t30 67q0 68 -116 92v-201zM438 -82v150q-186 16 -288 109t-109 247h272q0 -47 32 -89t93 -61v213q-373 49 -372 318q0 141 98 232t274 106v149h140v-151q164 -17 259 -107t105 -231h-262
q-12 104 -102 127v-191q94 -14 155 -32q61 -19 125 -55q126 -72 125 -236q0 -164 -111 -250t-294 -98v-150h-140z" />
    <glyph glyph-name="cent.tab" 
d="M252 606q0 -80 40 -148t109 -110v516q-69 -42 -109 -110t-40 -148zM401 -82v168q-175 50 -285 194t-110 327t111 325t284 192v168h258v-155q233 -41 363 -244l-217 -121q-61 84 -146 117v-567q84 31 146 116l215 -119q-133 -209 -361 -245v-156h-258z" />
    <glyph glyph-name="Euro.tab" 
d="M635 -23q-193 0 -324 113t-155 285h-170v176h166v92h-166v176h168q16 178 149 298t332 120q272 0 409 -211l-208 -129q-68 102 -201 102q-82 0 -149 -51t-85 -129h328v-176h-332v-92h332v-176h-321q25 -70 88 -115t139 -45q133 0 201 102l208 -129q-137 -211 -409 -211z
" />
    <glyph glyph-name="sterling.tab" 
d="M20 526v176h115q-14 55 -14 123q0 178 118 295t324 117q272 0 410 -211l-209 -129q-68 102 -201 102q-90 0 -143 -51t-53 -121t14 -125h317v-176h-254q72 -170 78 -297q61 -14 103 -14q133 0 200 102l209 -129q-62 -98 -164 -154t-189 -56t-203 28t-205 28t-193 -61
l-19 265q90 49 209 51q-14 98 -71 237h-179z" />
    <glyph glyph-name="yen.tab" 
d="M383 0v150h-291v176h291v92h-291v176h209l-307 618h278l240 -497l240 497h278l-307 -618h211v-176h-293v-92h293v-176h-293v-150h-258z" />
    <glyph glyph-name="ruble.tab" 
d="M319 578h222q88 0 144 60t56 145t-59 143t-145 59q-86 0 -152 -58t-66 -141v-208zM63 0v90h-151v176h151v103h-151v176h151v667h256v-84q96 94 222 95q184 0 315 -128q131 -129 131 -313t-128 -314t-318 -130h-222v-72h271v-176h-271v-90h-256z" />
    <glyph glyph-name="florin.tab" 
d="M324 135v559h-105v238h105v45q0 258 120 347q121 89 390 89l-19 -250q-149 0 -191 -37t-42 -149v-45h194v-238h-194v-559q0 -229 -108 -327t-310 -109v256q98 12 129 51t31 129z" />
    <glyph glyph-name="numbersign.tab" 
d="M393 502h217l19 209h-217zM-37 272v230h197l18 209h-215v229h234l24 272h234l-25 -272h217l25 272h233l-24 -272h180v-229h-199l-18 -209h217v-230h-236l-22 -272h-234l23 272h-217l-23 -272h-233l22 272h-178z" />
    <glyph glyph-name="section.tab" 
d="M508 788q-154 0 -154 -76t142 -98q41 -4 59 -4q106 0 107 76q0 102 -154 102zM950 288q0 -148 -118 -230q-118 -81 -319 -81q-203 1 -317 89t-122 245h254q0 -57 50 -103t134 -46t127 31t43 75t-49 66q-49 20 -128 30t-121 17q-118 23 -197 81q-38 30 -64 83
q-27 53 -27 123q0 131 101 221q-101 76 -101 215t106 225t294 86q186 0 296 -85t119 -232h-243q-9 122 -147 124q-87 1 -127 -21q-40 -21 -40 -53q0 -60 81 -84q61 -16 144 -27t138 -26q151 -41 203 -135q31 -58 30 -143q0 -143 -96 -223q96 -74 96 -222z" />
    <glyph glyph-name="paragraph.tab" 
d="M782 0v1401h144v-1401h-144zM516 0v504q-193 0 -326 130t-133 317t134 319t325 131h143v-1401h-143z" />
    <glyph glyph-name="percent.tab" 
d="M106 0l574 1401h246l-574 -1401h-246zM954 162q45 0 76 33t31 75v207q0 47 -31 78t-76 31q-46 0 -76 -31t-30 -78v-207q0 -44 30 -76t76 -32zM954 -23q-127 0 -212 86t-85 207v207q0 123 85 208t212 85t212 -85t85 -208v-207q0 -121 -85 -207t-212 -86zM70 803
q46 0 76 33t30 75v207q0 47 -31 78t-75 31t-76 -31q-31 -31 -31 -78v-207q0 -43 31 -75t76 -33zM70 618q-127 0 -212 86t-85 207v207q0 123 85 208t212 85t212 -85t85 -208v-207q0 -121 -85 -207t-212 -86z" />
    <glyph glyph-name="perthousand.tab" horiz-adv-x="2048" 
d="M289 0l573 1401h246l-573 -1401h-246zM1796 162q45 0 76 33t31 75v207q0 47 -31 78t-76 31t-76 -31t-30 -78v-207q0 -44 30 -76t76 -32zM1796 -23q-127 0 -212 86t-85 207v207q0 123 85 208t212 85t212 -85t85 -208v-207q0 -121 -85 -207t-212 -86zM1137 162q45 0 75 33
t31 75v207q0 47 -31 78q-32 31 -76 31t-75 -31t-31 -78v-207q0 -44 31 -76t76 -32zM1137 -23q-127 0 -212 86t-85 207v207q0 123 85 208t212 85t212 -85t85 -208v-207q0 -121 -85 -207t-212 -86zM252 803q45 0 76 33t30 75v207q0 47 -30 78q-31 31 -76 31t-76 -31t-31 -78
v-207q0 -43 31 -75t76 -33zM252 618q-127 0 -212 86t-85 207v207q0 123 85 208t212 85t212 -85t85 -208v-207q0 -121 -85 -207t-212 -86z" />
    <glyph glyph-name="degree.tab" 
d="M512 721q53 0 92 39t39 92v76q0 53 -39 92t-92 39t-91 -39t-38 -92v-76q0 -53 38 -92t91 -39zM512 543q-135 0 -224 90t-89 219v76q0 129 89 219t224 90t225 -90t90 -219v-76q0 -129 -90 -219t-225 -90z" />
    <glyph glyph-name="prime.tab" 
d="M352 850l62 551h278l-119 -551h-221z" />
    <glyph glyph-name="primedbl.tab" horiz-adv-x="946" 
d="M479 850l62 551h278l-119 -551h-221zM127 850l61 551h279l-119 -551h-221z" />
    <glyph glyph-name="period.tab" horiz-adv-x="512" 
d="M127 0v270h258v-270h-258z" />
    <glyph glyph-name="comma.tab" horiz-adv-x="512" 
d="M127 0v270h258v-258l-43 -139h-152l19 127h-82z" />
    <glyph glyph-name="colon.tab" horiz-adv-x="512" 
d="M127 633v270h258v-270h-258zM127 141v271h258v-271h-258z" />
    <glyph glyph-name="semicolon.tab" horiz-adv-x="512" 
d="M127 633v270h258v-270h-258zM127 143v271h258v-258l-43 -140h-152l19 127h-82z" />
    <glyph glyph-name="parenleft.tab" 
d="M307 654q0 472 328 810l182 -161q-264 -271 -264 -651t266 -652l-182 -160q-330 342 -330 814z" />
    <glyph glyph-name="parenright.tab" 
d="M471 652q0 380 -264 651l182 161q328 -338 328 -810t-330 -814l-182 160q266 272 266 652z" />
    <glyph glyph-name="endash.tab" 
d="M-143 401v242h1007v-242h-1007z" />
    <glyph glyph-name="asterisk.tab" 
d="M430 772v176l-151 -88l-78 139l151 88l-151 89l78 139l151 -88v174h164v-174l151 88l78 -139l-153 -89l153 -88l-78 -139l-151 88v-176h-164z" />
    <glyph glyph-name="periodcentered.tab" horiz-adv-x="512" 
d="M127 393v258h258v-258h-258z" />
    <glyph glyph-name="space.tab" horiz-adv-x="512" 
 />
    <glyph glyph-name="space.tab_en" 
 />
    <glyph glyph-name="space.tab_em" horiz-adv-x="2048" 
 />
    <glyph glyph-name="space.tab_thin" horiz-adv-x="256" 
 />
    <glyph glyph-name="i.trk" horiz-adv-x="389" 
d="M66 1143v258h258v-258h-258zM66 0v1047h258v-1047h-258z" />
    <glyph glyph-name="space.thin_fra" horiz-adv-x="397" 
 />
    <glyph glyph-name="fi" horiz-adv-x="1091" 
d="M768 1143v258h258v-258h-258zM768 0v1047h258v-1047h-258zM141 0v694h-104v238h104v45q0 246 132 346t419 90l-18 -250q-176 0 -225 -38t-50 -148v-45h236v-238h-236v-694h-258z" />
    <glyph glyph-name="fl" horiz-adv-x="1091" 
d="M768 0v1401h258v-1401h-258zM141 0v694h-104v238h104v45q0 246 132 346t419 90l-18 -250q-176 0 -225 -38t-50 -148v-45h236v-238h-236v-694h-258z" />
    <glyph glyph-name="ampersand.alt" horiz-adv-x="1277" 
d="M540 1186q-56 0 -85 -33t-29 -91t74 -173q152 86 151 182q0 47 -27 81q-28 34 -84 34zM498 215q108 0 200 92q-164 139 -282 283q-147 -84 -148 -189q0 -76 61 -131t169 -55zM510 -23q-228 0 -356 123t-129 303q0 133 68 221q69 87 190 154q-103 172 -103 312t98 236
q98 97 262 97q165 0 261 -94t96 -250q0 -229 -258 -372q94 -106 211 -209l184 268l205 -143l-190 -281q113 -78 223 -145l-119 -220q-80 43 -252 170q-163 -170 -391 -170z" />
    <glyph glyph-name="braceleft.tab" 
d="M365 217q0 94 -33 134t-148 52v244q115 12 148 52t33 135v143q0 269 141 357q74 46 164 62t225 17l-18 -250q-162 0 -208 -38t-46 -148v-143q0 -188 -146 -310q145 -121 146 -307v-143q0 -111 46 -149t208 -38l18 -249q-279 0 -405 90t-125 346v143z" />
    <glyph glyph-name="braceright.tab" 
d="M401 74v143q0 186 146 307q-145 121 -146 310v143q0 111 -46 149t-208 37l-18 250q135 0 225 -16q90 -17 164 -63q143 -90 141 -357v-143q0 -94 33 -134t148 -53v-244q-115 -12 -148 -52t-33 -134v-143q1 -256 -125 -346t-405 -90l18 249q162 0 208 38t46 149z" />
    <glyph glyph-name="bracketleft.tab" 
d="M324 -354v1755h493v-238h-235v-1280h235v-237h-493z" />
    <glyph glyph-name="bracketright.tab" 
d="M207 -354v237h235v1280h-235v238h493v-1755h-493z" />
    <glyph glyph-name="copyright.sups" horiz-adv-x="768" 
d="M384 784q114 0 197 83t83 194t-83 193t-197 83q-114 0 -197 -83q-83 -84 -83 -194t83 -193t197 -83zM406 874q-96 0 -149 54q-54 54 -54 133q0 78 54 131q53 53 149 53t149 -84l-90 -57q-29 33 -68 33t-61 -23q-22 -22 -21 -54q0 -32 22 -54q21 -22 59 -23q38 0 69 35
l90 -60q-53 -84 -149 -84zM385 707q-150 0 -255 103q-105 102 -105 250t104 250t255 103q151 0 255 -102q104 -101 104 -249t-104 -252t-254 -103z" />
    <glyph glyph-name="registered.sups" horiz-adv-x="768" 
d="M266 879v358h113v-47q45 51 135 51l-4 -111q-78 0 -104 -17t-27 -64v-170h-113zM384 784q114 0 197 83t83 194t-83 193t-197 83q-114 0 -197 -83q-83 -84 -83 -194t83 -193t197 -83zM385 707q-150 0 -255 103q-105 102 -105 250t104 250t255 103q151 0 255 -102
q104 -101 104 -249t-104 -252t-254 -103z" />
    <glyph glyph-name="trademark.sups" horiz-adv-x="1296" 
d="M498 715v540h133v-57q35 66 131 66t151 -82q51 82 166 82q168 0 168 -265v-284h-131v266q0 84 -15 122t-61 38t-70 -29t-24 -80v-317h-131v266q0 82 -18 121t-72 39q-94 0 -94 -109v-317h-133zM127 944v201h-78v110h78v146h133v-146h129v-110h-129v-201q0 -52 28 -74
t115 -22l9 -135q-150 -4 -218 45t-67 186z" />
    <glyph glyph-name="f.alt" horiz-adv-x="626" 
d="M66 0v977q0 258 130 347t420 89l-18 -250q-174 0 -224 -38t-50 -148v-45h235v-238h-235v-694h-258z" />
    <glyph glyph-name="t.alt" horiz-adv-x="612" 
d="M539 -6q-238 0 -362 94t-124 342v891h258v-274h236v-238h-236v-379q0 -108 48 -146t219 -40l16 -250h-55z" />
    </font>
</defs>
</svg>
