<?xml version="1.0" encoding="utf-8"?>
<!-- Generator: Adobe Illustrator 16.0.0, SVG Export Plug-In . SVG Version: 6.00 Build 0)  -->
<!DOCTYPE svg PUBLIC "-//W3C//DTD SVG 1.1//EN" "http://www.w3.org/Graphics/SVG/1.1/DTD/svg11.dtd">
<svg version="1.1" id="Layer_1" xmlns="http://www.w3.org/2000/svg" xmlns:xlink="http://www.w3.org/1999/xlink" x="0px" y="0px"
	 width="60px" height="300px" viewBox="0 0 60 300" enable-background="new 0 0 60 300" xml:space="preserve">
<path d="M33.2,249.7c0-0.1,0-0.2,0-0.3c-0.1-1.5,1.1-2.7,2.6-2.8c1.5-0.1,2.7,1.1,2.8,2.6c0.1,1.5-1.1,2.7-2.6,2.8
	c-0.1,0-0.2,0-0.3,0c-0.1,0-0.1,0-0.1,0.1c-0.2,0.2,0.4,0.2,0,1.2c0,0,0,0.1,0,0.2c0,0.4-0.2,1.6-0.3,2.2c0.1,0.1,0.1,0.1,0.1,0.4
	c0,0.3-0.1,1-0.2,1.5c-0.1,0.4-0.3,0.5-0.4,0.6c-0.2,0.8-0.3,1.5-0.8,2.5c-0.1,0.8-0.1,1-0.3,1.3c0,1.1,0,1.3-0.8,3
	c-0.2,0.8,0,1.4,0.1,2.3c0.2,0.9,0.8,1.3,0.8,2.2c0.1,2.1,0.1,3.6-0.4,5.3l0.4,1c0.5,0.2,1.7,0.9,1,1.9c1,0.5,2.4,1.1,3.6,2.2
	c0.5,0.4,1,0.9,1.4,1.4c0.9,0.2,0.8,0.2,1.4,0.6c1.9,1.2,4.9,3.6,6.6,5.3c0.3,0.2,0.4,0.3,0.7,0.5c0,0.1,0,0.1,0,0.1
	c-0.1,0.2-0.1,0.2-0.2,0.4c0.1,0.1,0.3,0.2,0.4,0.3c0.1,0,0.1,0,0.3-0.1c0.2,0.2,0.5,0.4,0.6,0.4c0.3-0.1,0.3,0,0.5-0.3
	c0.1-0.1,0.2,0,0.2,0c0.1-0.1,0.3-0.3,0.6-0.5c0.2-0.1,0.6-0.1,0.6-0.1c0.1,0,0.1,0.1,0.1,0.2c-0.2,0.1-0.5,0.2-0.7,0.3
	c-0.4,0.4-0.8,1-0.8,1c0.8-0.1,1.3,0.1,2,0.1c0.4,0,0.7,0,1-0.3c0,0,0.4-0.3,0.7-0.4c0.3-0.1,0.6,0,0.9,0.2c0.2,0.2,0.3,0.2,0,0.6
	c-0.1,0.1-0.3,0.3-0.5,0.5c-0.4,0.3-0.9,0.8-1.4,1.2c-0.5,0.4-1.1,0.7-1.5,0.9c-0.9,0.6-0.7,0.5-1.5,1.1c-0.1,0.1-0.3,0.2-0.5,0.3
	c-0.3,0.2-0.4,0-0.6-0.3c0,0-0.1-0.1-0.2-0.4c-0.1-0.3-0.2-0.6-0.2-0.6c-0.2,0-0.9-0.9-0.9-1.1c-0.2,0-0.8-0.7-0.9-0.9l-0.6-0.5
	c-0.7,0.1-0.9-0.3-2.7-1.7c-0.2,0-0.5-0.1-1-0.5c-0.8-0.7-2.8-2.3-3.1-2.4c-0.4-0.2-0.8-0.4-1.1-0.6c-0.4-0.1-0.6-0.1-0.8-0.2
	c-0.2-0.1-0.4-0.1-0.9-0.2c-0.8-0.1-1.7-0.5-2.5-0.9c-0.4-0.2-0.7-0.3-1.1-0.5c-0.8-0.3-1.4-0.6-1.9-0.8c-0.2,0-1.1-0.3-1.6-0.6
	c-0.2-0.1-0.3-0.2-0.4-0.2c-0.3-0.1-0.4,0-0.5,0.1c-0.6,0.3-1.2,0.6-1.8,0.8c-0.5,0.3-1,0.5-1.5,0.8c-0.4,0.2-1,0.5-1.5,0.7
	c0,0-1.5,0.7-2.3,1c-0.7,0.6-2.2,1.5-3.1,2c-0.4,0.2-1.3,0.7-1.7,0.8c-0.2,0.2-1,0.7-1.7,1.2c-0.5,0.3-0.9,0.6-0.9,0.6
	c-0.3,0.2-0.3,0.4-0.8,0.1c-0.2,0.1-0.3,0.2-0.4,0.3c-0.4,0.3-0.4,0.2-0.6,0.2c-0.3,0.2-0.3,0.1-0.5,0.4c-0.2,0.2,0,0.2-0.3,0.3
	c-0.1,0-0.1,0.1-0.2,0.2c-0.3,0.2-0.3,0.8-0.9,0.8c-0.4,0.2-0.3,0.6-0.6,0.5c0,0.3-0.5,0.6-0.6,0.6c-0.8,0.3-0.8-0.3-1.8,0.1
	c-0.1,0.1-0.3,0.2-0.5,0.2c-0.4,0.1-0.9,0-1.2-0.3c-0.5-0.4-0.9-1.1-0.9-1.1c-0.1-0.4-0.1-0.6,0.4-0.9c0.2-0.1,0.2-0.2,0.6-0.2
	c0.2-0.1,0.1,0,0.4-0.1c0.2-0.1,0.2,0,0.5,0c0.1,0,0.2-0.1,0.3-0.1c0.3-0.1,0.5-0.2,0.5-0.2s0.1-0.1,0.3,0c0.2-0.1,0.5-0.2,0.6-0.3
	c0-0.4,0-0.3,0.2-0.5c0.2-0.2,0.2-0.1,0.4,0c0.1,0,0.1,0,0.1-0.1c0-0.2-0.2-0.3-0.1-0.7c-0.1-0.2-0.2-0.4-0.1-0.5
	c0-0.1,0.1-0.2,0.2-0.2c0.1,0,0.1,0,0.2,0.1c0.1,0.1,0.1,0.4,0.1,0.4c0,0.3,0.1,0.7,0.4,0.5c0.2-0.2,0.2-0.7,0.6-0.6l0.3,0.2
	c0.2-0.2,0.2-0.2,0.4-0.3c0,0-0.2-0.2,0-0.4c0.1-0.1,0.3-0.2,0.6-0.5c0.8-0.8,1.2-1.2,2-1.8c1.7-1.3,3.5-2.2,4.7-2.6
	c0.4-0.5,0.8-0.8,1.6-0.8c1.1-1.7,3-3.1,3.5-3.4c0.4-0.6,0.5-0.6,1-0.7c0.4-0.3,0.5-0.3,0.6-0.6c0.2-0.6-0.3-2.4,1.1-2.4
	c0.3-0.4,0.2-0.3,0.6-0.7c-0.2-0.5-0.3-1-0.3-1.4c0,0-0.5-0.4-0.4-0.9c-0.2-0.3-0.6-0.9-0.8-1.2c-0.1,0-0.1,0-0.2,0
	c-0.1,0-0.2,0-0.3,0c-0.2,0.5-0.5,0.6-0.8,0.7c-0.7,1.4-1,2-2.9,3.2c-0.8,0.8-1.1,1.8-1,1.8c-0.1,0.3-0.1,0.7,0,0.9
	c-0.1,0.3-0.1,0.3-0.1,0.3c0,0.1,0.1,0.3,0.3,0.3c0.2,0.1,0.5,0.1,0.4,0.3c0,0.3-0.5,0.3-0.7,0.2c-0.8-0.1-0.5-0.6-1-0.5
	c-0.4,0.2-0.5,1-1.2,0.8c-0.1-0.1-0.1-0.2,0-0.3c0.1-0.2,0.2-0.3,0.2-0.4c-0.4,0.1-1.2,0.4-1.2,0.4c-0.4,0.1-0.8-0.1-0.4-0.3
	c0.2-0.1,0.4-0.1,0.7-0.3c0,0,0.2-0.2-0.1-0.1c-0.3,0.1-0.8,0.2-1.2,0.1c0,0-0.7-0.1-0.8-0.2c-0.1-0.1-0.2-0.3,0.1-0.3
	c0.3,0,1-0.1,1.6-0.2c0.3-0.1,0.8-0.4,1.1-0.5c0,0,0.3-0.4,0.5-0.5c0.3-0.3,0.5-0.5,0.8-0.8c0.3-0.5,0.5-1.3,1.4-2.5
	c0.4-0.6,0.9-1.2,1.5-1.8c0,0,0.2-0.9,1-1.6c0.2-0.4,0.4-0.9,0.7-1.3c0.1-0.2,0.2-0.3,0.3-0.5c0.2-0.4,0.5-1,1.4-1.1
	c0,0,0.4-0.3,0.6-0.5c0.2-0.2,0.2-0.5,0.4-0.7c-0.3-0.3-1-0.9-1.1-1.6c-0.1-0.8,0.2-1.4,0.7-1.9c0.5-0.5,1.1-0.8,1.8-0.7
	c0.8,0.1,1,0.4,1.3,0.7c0.3,0.3,0.4,0.1,0.5,0.4c0.7,0.2,0.7,0.1,0.7,0.6c0.1,0.2,0.3,0.3,0.3,0.6c0.3-0.5,0.3-0.6,1-1.1
	c0.2-0.4,0.3-0.9,0.4-1.3c0.1-0.4,0.3-0.8,0.4-1.1c-0.1-0.9,0.2-1,0.5-1.8c-0.1-0.1,0-0.1,0-0.3c0.1-0.5,0.4-1.2,0.5-1.7
	c0,0,0-0.2,0.2-0.2c0.2-0.6,0.4-1.6,0.5-1.8c0.2-0.6,0.1-0.8,0-1.1c0-0.1,0-0.3-0.1-0.4c-0.2-0.4-0.4-0.8-0.5-1.1
	C33.3,250.5,33.2,249.7,33.2,249.7C33.1,249.3,33.2,249.7,33.2,249.7"/>
<g>
	<polygon points="23.8,90.5 29.8,74.7 26,74.7 20,90.5 	"/>
	<polygon points="13,90.5 15.5,84.1 15.1,90.5 18.9,90.5 24.9,74.7 21.1,74.7 18.7,81.1 19.1,74.7 15,74.7 8.9,90.5 	"/>
	<path d="M42,89.1l0.7-1.8h-3.4l1.4-3.6h3.4l1.1-3h-3.4l1.1-2.9l3.4,0l1.2-3.1h-3.4h-2h-1.7H40h-3.6l-3.4,3.9l1.5-3.9h-3.8l-6,15.7
		h3.8l2.2-5.9l0.1,5.9H34h0.7h1.6c-7.6,1.8-13.8,3.3-18.8,4.7c-4.3,1.2-7,0.5-8.2-0.6C7.4,92.9,6.7,89,9.4,84.3
		C7.2,85.9-2.9,96,2.6,102.9c2.6,3.3,7.5,3.2,15.9-0.4C37,94.4,47.2,90.2,59,84.9C52.8,86.5,47.2,87.9,42,89.1z M34.7,88.5l0-7.1
		l4.9-5.7L34.7,88.5z"/>
</g>
<g>
	<g>
		<g>
			<path d="M50.4,28.4c-0.3,0.6-0.8,1.4-1.3,1.9l-38,0c-0.3-0.4-0.9-1.2-1.2-1.8L50.4,28.4"/>
			<path d="M47.6,32.2c-0.5,0.7-1.2,1.3-1.9,1.7l-31.2,0c-0.6-0.4-1.2-1-1.8-1.7L47.6,32.2"/>
			<path d="M43.2,35.7c-3.4,2.5-7.1,3.8-9.9,4c0-1,0-2.5,0.3-4L43.2,35.7"/>
			<path d="M54,16c0.3,3.1-0.7,6.8-2.6,10.6l-14,0c0.5-0.9,1.2-1.7,1.9-2.6C43.3,19.2,49.6,16.3,54,16"/>
			<path d="M26.8,39.7c-2.7-0.2-6.4-1.5-9.8-4l9.7,0C26.8,37.2,26.8,38.6,26.8,39.7"/>
			<path d="M30.1,40c-1.1-1-2-2.5-3-4.3l6,0C32.2,37.5,31.1,38.9,30.1,40"/>
			<path d="M23,26.6l-14.1,0C7,22.8,6.1,19.1,6.4,16c4.3,0.3,10.6,3.2,14.7,8C21.7,24.9,22.5,25.7,23,26.6"/>
			<path d="M36.2,26.6l-12.1,0c-0.2-1.1-0.2-2.1-0.2-3.4c0-6.6,2.9-13.5,6.3-16.6c3.3,3.1,6.2,9.9,6.2,16.6
				C36.4,24.5,36.3,25.5,36.2,26.6"/>
			<path fill-rule="evenodd" clip-rule="evenodd" d="M52.9,42.4c0.6,0,1,0.5,1,1.1c0,0.6-0.5,1-1,1c-0.6,0-1-0.5-1-1
				C51.9,42.9,52.3,42.4,52.9,42.4 M52.9,42.5c-0.5,0-0.9,0.4-0.9,0.9c0,0.5,0.4,0.9,0.9,0.9c0.5,0,0.9-0.4,0.9-0.9
				C53.8,43,53.4,42.5,52.9,42.5z M53.1,43.5c0.1,0,0.2,0,0.2,0.2v0.3h-0.2v-0.1c0-0.2,0-0.3-0.2-0.3h-0.2v0.5h-0.2v-1.2l0.4,0
				c0.2,0,0.4,0.1,0.4,0.3C53.3,43.3,53.2,43.5,53.1,43.5z M52.7,43.1v0.3h0.2c0.1,0,0.2,0,0.2-0.1c0-0.1-0.1-0.2-0.2-0.2H52.7z"/>
			<path d="M50.3,53.3c2,0,3.7-0.8,3.7-2.8c0-1.1-0.8-1.9-2.1-2.2c-1.3-0.3-3-0.3-3-1.1c0.1-0.6,0.6-0.7,1.4-0.7
				c1.2,0,1.3,0.7,1.3,1.1h2c-0.1-1.6-1.4-2.7-3.5-2.7c-2.1,0-3.4,1.1-3.4,2.6c0,0.9,0.4,1.6,1.1,2c0.5,0.2,1.2,0.4,2.1,0.6
				c0.9,0.1,1.7,0.2,1.7,0.8c0,0.4-0.4,0.9-1.4,0.9c-1.4,0-1.7-0.8-1.7-1.3h-2.1C46.7,52.2,48.1,53.3,50.3,53.3"/>
			<path fill-rule="evenodd" clip-rule="evenodd" d="M41.4,53.3c0.9,0,1.7-0.3,2.4-0.7v0.5h2l0-8.1l-2,0v0.6
				c-0.7-0.5-1.5-0.7-2.4-0.7c-2.3,0-4.3,1.8-4.3,4.2C37.2,51.4,39.1,53.3,41.4,53.3 M39.2,49.1c0-1.3,1.1-2.4,2.4-2.4
				c1.2,0,2.3,1.1,2.3,2.4c0,1.2-1,2.3-2.3,2.3C40.2,51.4,39.2,50.3,39.2,49.1z"/>
			<path fill-rule="evenodd" clip-rule="evenodd" d="M34.5,42.2v3.4c-0.7-0.5-1.5-0.7-2.4-0.7c-2.3,0-4.2,1.8-4.2,4.2
				c0,2.3,1.9,4.2,4.2,4.2c0.9,0,1.8-0.3,2.4-0.7v0.5h2l0-10.9H34.5 M29.8,49.1c0-1.3,1.1-2.4,2.3-2.4c1.3,0,2.4,1.1,2.4,2.4
				c0,1.2-1.1,2.3-2.4,2.3C30.9,51.4,29.8,50.3,29.8,49.1z"/>
			<path fill-rule="evenodd" clip-rule="evenodd" d="M27,53.1V45l-2,0l0,8.1H27 M25,44.2h2l0-2h-2V44.2z"/>
			<path fill-rule="evenodd" clip-rule="evenodd" d="M19.6,53.3c0.9,0,1.7-0.3,2.4-0.7v0.5l2,0l0-10.9h-2l0,3.4
				c-0.7-0.5-1.5-0.7-2.4-0.7c-2.3,0-4.3,1.8-4.3,4.2C15.3,51.4,17.3,53.3,19.6,53.3 M17.3,49.1c0-1.3,1.1-2.4,2.4-2.4
				c1.2,0,2.3,1.1,2.3,2.4c0,1.2-1.1,2.3-2.3,2.3C18.4,51.4,17.3,50.3,17.3,49.1z"/>
			<path fill-rule="evenodd" clip-rule="evenodd" d="M10.2,53.3c0.9,0,1.7-0.3,2.5-0.7v0.5h2V45h-2v0.6c-0.7-0.5-1.6-0.7-2.5-0.7
				c-2.3,0-4.2,1.8-4.2,4.2C6,51.4,7.9,53.3,10.2,53.3 M7.9,49.1c0-1.3,1.1-2.4,2.3-2.4c1.3,0,2.4,1.1,2.4,2.4
				c0,1.2-1.1,2.3-2.4,2.3C9,51.4,7.9,50.3,7.9,49.1z"/>
		</g>
	</g>
</g>
<g>
	<path d="M5,223.5h1.1v-2.2c0-0.4,0-0.9,0.2-1.2c0.2-0.3,0.6-0.4,0.8-0.4c0.9,0,0.9,1.1,0.9,1.5v2.3h1.1V221c0-0.4,0-1.1-0.4-1.7
		c-0.4-0.5-1-0.6-1.4-0.6c-0.7,0-1.1,0.4-1.3,0.6v-0.4H5V223.5"/>
	<path fill-rule="evenodd" clip-rule="evenodd" d="M10.6,220.8c0.2-0.9,0.9-1.1,1.3-1.1c0.6,0,1.1,0.3,1.3,1.1H10.6 M14.3,221.7
		c0-0.2,0.1-0.3,0.1-0.6c0-1.2-0.9-2.5-2.4-2.5c-1.4,0-2.5,1.2-2.5,2.5c0,1.4,1.1,2.5,2.5,2.5c1.1,0,2-0.8,2.3-1.6H13
		c-0.2,0.4-0.6,0.6-1.1,0.6c-0.8,0-1.2-0.7-1.3-1H14.3z"/>
	<polyline points="15.8,223.5 16.4,223.5 17.3,220.5 17.3,220.5 18.2,223.5 18.9,223.5 20.6,218.9 19.4,218.9 18.6,221.7 
		18.6,221.7 17.8,218.9 16.9,218.9 16.1,221.7 16.1,221.7 15.3,218.9 14.1,218.9 15.8,223.5 	"/>
	<path fill-rule="evenodd" clip-rule="evenodd" d="M23.8,221.1c0-0.7,0.5-1.4,1.4-1.4c0.7,0,1.4,0.5,1.4,1.5c0,0.9-0.6,1.5-1.3,1.5
		C24.6,222.7,23.8,222.2,23.8,221.1 M22.8,223.5h1V223c0.3,0.3,0.7,0.7,1.6,0.7c1.7,0,2.3-1.6,2.3-2.5c0-1.2-0.9-2.5-2.4-2.5
		c-0.5,0-1.1,0.2-1.5,0.6v-2h-1.1V223.5z"/>
	<path fill-rule="evenodd" clip-rule="evenodd" d="M31.9,221.2c0,0.9-0.6,1.5-1.4,1.5c-0.8,0-1.4-0.6-1.4-1.4c0-0.7,0.5-1.5,1.4-1.5
		C31.2,219.7,31.9,220.2,31.9,221.2 M33,218.9h-1v0.6h0c0-0.1-0.6-0.7-1.6-0.7c-1.3,0-2.3,1-2.3,2.5c0,1.6,1.1,2.5,2.3,2.5
		c0.6,0,1.3-0.3,1.6-0.7v0.6h1V218.9z"/>
	<rect x="33.6" y="217.3" width="1.1" height="6.2"/>
	<path fill-rule="evenodd" clip-rule="evenodd" d="M38.9,221.2c0,0.9-0.6,1.5-1.4,1.5c-0.8,0-1.4-0.6-1.4-1.4c0-0.7,0.5-1.5,1.4-1.5
		C38.2,219.7,38.9,220.2,38.9,221.2 M39.9,218.9h-1v0.6h0c0-0.1-0.6-0.7-1.6-0.7c-1.3,0-2.3,1-2.3,2.5c0,1.6,1.1,2.5,2.3,2.5
		c0.6,0,1.3-0.3,1.6-0.7v0.6h1V218.9z"/>
	<path d="M40.5,223.5h1.1v-2.2c0-0.4,0-0.9,0.2-1.2c0.2-0.3,0.6-0.4,0.8-0.4c0.9,0,0.9,1.1,0.9,1.5v2.3h1.1V221c0-0.4,0-1.1-0.4-1.7
		c-0.4-0.5-1-0.6-1.4-0.6c-0.7,0-1.1,0.4-1.3,0.6v-0.4h-1V223.5"/>
	<path d="M48.7,222c-0.3,0.5-0.7,0.6-1,0.6c-0.8,0-1.4-0.7-1.4-1.5c0-1,0.7-1.5,1.4-1.5c0.7,0,1,0.4,1.1,0.7h1.3
		c-0.5-1.4-1.8-1.7-2.4-1.7c-1.3,0-2.5,1-2.5,2.5c0,1.6,1.3,2.5,2.5,2.5c1.1,0,2-0.6,2.3-1.7H48.7"/>
	<path fill-rule="evenodd" clip-rule="evenodd" d="M51.3,220.8c0.2-0.9,0.9-1.1,1.3-1.1c0.6,0,1.1,0.3,1.3,1.1H51.3 M54.9,221.7
		c0-0.2,0.1-0.3,0.1-0.6c0-1.2-0.9-2.5-2.4-2.5c-1.4,0-2.5,1.2-2.5,2.5c0,1.4,1.1,2.5,2.5,2.5c1.1,0,2-0.8,2.3-1.6h-1.2
		c-0.2,0.4-0.6,0.6-1.1,0.6c-0.8,0-1.2-0.7-1.3-1H54.9z"/>
	<path fill-rule="evenodd" clip-rule="evenodd" d="M30.9,202.7l1.7-3l5.9-0.4l0.2-0.4l-5.4-0.4l1.3-2.2l10.1,0
		c3.1,0,5.4,1.1,4.5,4.4c-0.3,1-1.5,3.5-5.2,4.5c0.8,0.1,2.7,1,2.4,3.2c-0.6,4-5.8,5.9-8.6,5.9l-11.9,0l-0.6-2.3l6.2-0.4l0.2-0.4
		l-6.8-0.4l-0.7-2.7l9.6-0.6l0.2-0.4L16.7,206l0.8-1.4l18.6-1.2l0.2-0.4L30.9,202.7 M38.7,203.3l1.7,0c1.1,0,2.3-0.5,2.8-1.6
		c0.4-1-0.1-1.8-0.9-1.8l-1.7,0L38.7,203.3z M36.7,206.7l-2.1,3.6h2c0.9,0,2.6-0.5,3.1-1.8c0.5-1.2-0.4-1.8-1-1.8L36.7,206.7z
		 M21.7,212.2l-1.2,2.1l-8.6,0l0.8-1.4L21.7,212.2z M22.3,196.3l6.9,0l0.5,2l-8.2-0.5L22.3,196.3z M30.1,199.8l0.8,2.9l-11.8-0.8
		l0.8-1.4L30.1,199.8z M24.1,208l-1.5,2.6l-8.3-0.5l0.8-1.4L24.1,208z"/>
</g>
<g>
	<path id="XMLID_66_" d="M32,137.5c-0.2,0-0.3,0.6-0.6,0.9c-0.2,0.2-0.5,0.2-0.7,0.5c-0.1,0.1,0,0.3-0.1,0.4
		c-0.1,0.3-0.6,0.4-0.6,0.8c0,0.4,0.4,0.5,0.7,0.8c0.3,0.2,0.3,0.4,0.6,0.5c0.3,0.1,0.7-0.2,1-0.1c0.3,0.1,0.6,0.1,0.6,0.4
		c0.1,0.3,0,0.7-0.4,0.7c-0.1,0-0.6-0.2-1.3-0.1c-0.8,0.1-1.6,0.3-1.7,1.2c0,0.5,0.5,1,1.1,0.9c0.4-0.1,0.2-0.5,0.4-0.8
		c0.3-0.3,1.9,1,3.4,1c0.6,0,1.1-0.2,1.6-0.6c0,0,0.1-0.1,0.2-0.1c0.1,0,0.2,0.1,0.2,0.1c1.2,1,2.1,2.9,6.5,2.9
		c0.6,0,1.3,0.3,1.9,0.8c0.5,0.5,0.8,1.2,1.1,2c0.4,1.1,1.2,2.2,2.4,3.4c0.1,0.1,1.1,0.8,1.1,0.9c0,0,0.1,0.2,0.1,0.3
		c0,0.7-0.1,2.9,1.4,2.9c0.4,0,0.3-0.2,0.3-0.4c0-0.4-0.1-0.7,0.1-1.1c0.3-0.5-0.6-0.8-0.5-1.9c0-0.8-0.7-0.7-1-1.3
		c-0.2-0.4-0.4-0.6-0.4-1c0.1-2.6-0.5-4.2-0.9-4.6c-0.2-0.3-0.4-0.4-0.2-0.6c1.3-0.9,1.6-1.7,1.6-1.7c0.7-1.6,1.3-3.2,2.2-3.8
		c0.2-0.1,0.6-0.5,0.9-0.6c0.8-0.4,1.2-0.6,1.5-0.8c0.4-0.4,0.7-1.1,0.3-1.6c-0.4-0.6-1.2-0.1-1.6,0.1c-2.4,1.4-2.8,4-3.6,5.4
		c-0.7,1.2-1.8,2-2.7,2.1c-0.7,0-1.5-0.1-2.3-0.4c-1.9-0.8-3-1.9-3.2-2.1c-0.5-0.4-4.5-4.3-7.7-4.5c0,0-0.4-0.8-0.5-0.8
		c-0.2,0-0.5,0.5-0.7,0.5C32.4,138.1,32.1,137.5,32,137.5"/>
	<path id="XMLID_65_" d="M17.8,160.8c-0.3,0-0.6-0.3-0.6-0.6v-10.1h-3.3v11.1c0,0.5,0.4,1,1,1h5.8c0.5,0,1-0.4,1-1v-11.1h-3.3v10.1
		C18.3,160.6,18.1,160.8,17.8,160.8"/>
	<path id="XMLID_64_" d="M28.9,150.2h-5c-0.6,0-1.1,0.5-1.1,1.1v11h3.3v-10.1c0-0.3,0.3-0.6,0.6-0.6c0.3,0,0.6,0.2,0.6,0.5v10.1h3.3
		v-10.1c0-0.3,0.3-0.5,0.6-0.5c0.3,0,0.6,0.2,0.6,0.6v10.1h3.3v-11c0-0.6-0.5-1.1-1.1-1.1H28.9z"/>
	<path d="M11.7,159.2H8.3v3H5v-12.1h6.7c0.6,0,1.1,0.5,1.1,1.1v6.9C12.8,158.8,12.3,159.2,11.7,159.2 M9.4,152.2
		c0-0.3-0.3-0.6-0.6-0.6H8.3v6.1h0.6c0.3,0,0.6-0.2,0.6-0.6V152.2z"/>
	<path d="M47.8,161.1c0,0.8-0.7,1.5-1.5,1.5c-0.8,0-1.5-0.7-1.5-1.5c0-0.8,0.7-1.5,1.5-1.5C47.2,159.6,47.8,160.3,47.8,161.1
		 M46.3,159.8c-0.7,0-1.2,0.6-1.2,1.3c0,0.7,0.6,1.3,1.2,1.3c0.7,0,1.2-0.6,1.2-1.3C47.6,160.4,47,159.8,46.3,159.8L46.3,159.8z"/>
	<path d="M47,162h-0.4l-0.5-0.7v0.7h-0.3v-1.7h0.3c0.5,0,0.7,0.2,0.7,0.5c0,0.2-0.1,0.4-0.3,0.5l0,0L47,162z M46.2,161
		c0.2,0,0.4-0.1,0.4-0.2c0-0.1-0.1-0.2-0.3-0.2h-0.1L46.2,161L46.2,161z"/>
	<path d="M40.5,162.3v-3h-1.1v3h-3.3v-11c0-0.6,0.5-1.1,1.1-1.1h5.6c0.6,0,1.1,0.5,1.1,1.1v11H40.5z M40.5,157.8v-5.6
		c0-0.3-0.3-0.5-0.6-0.5c-0.3,0-0.6,0.2-0.6,0.6v5.6H40.5z"/>
</g>
</svg>
