<?xml version="1.0" encoding="utf-8"?>
<!-- Generator: Adobe Illustrator 16.0.0, SVG Export Plug-In . SVG Version: 6.00 Build 0)  -->
<!DOCTYPE svg PUBLIC "-//W3C//DTD SVG 1.1//EN" "http://www.w3.org/Graphics/SVG/1.1/DTD/svg11.dtd">
<svg version="1.1" id="Layer_1" xmlns="http://www.w3.org/2000/svg" xmlns:xlink="http://www.w3.org/1999/xlink" x="0px" y="0px"
	 width="320px" height="360px" viewBox="0 0 320 360" enable-background="new 0 0 320 360" xml:space="preserve">
<g>
	<g>
		<path fill="#FFFFFF" d="M160,357.981l-6.804-3.353c-30.679-15.158-56.698-32.993-77.345-53.014
			c-16.853-16.342-30.225-34.21-39.746-53.108c-16.329-32.411-16.276-57.592-16.06-62.794V2.019h279.911v183.693
			c0.219,5.205,0.281,30.364-16.057,62.795c-9.521,18.898-22.895,36.767-39.748,53.108c-20.647,20.021-46.668,37.855-77.339,53.01
			L160,357.981z M35.32,17.295v168.762l-0.008,0.177c-0.116,2.508-0.696,25.367,14.436,55.4
			c8.751,17.372,21.112,33.862,36.737,49.015c19.506,18.914,44.225,35.831,73.47,50.281l0.045,0.021l0.053-0.026
			c29.239-14.445,53.958-31.362,73.464-50.276c15.626-15.152,27.987-31.644,36.738-49.015c15.143-30.058,14.55-52.892,14.432-55.396
			l-0.008-0.357V17.295H35.32z"/>
	</g>
	<g>
		<g>
			<path fill="#FFFFFF" d="M197.09,74.971l-12.22-17.939l-12.646,17.953l-12.222-25.927l-12.69,25.98l7.138,3.99l-6.957,9.591
				l-6.639-9.97l6.468-3.611L135.01,57.031L122.336,75.02l-16.702-22.286l11.241,47.727h43.128h42.564l11.17-47.727L197.09,74.971z
				 M122.472,88.652l-6.674-10.003l6.543-3.604l7.118,3.983L122.472,88.652z M172.426,88.542l-6.58-9.893l6.379-3.661l7.098,4.04
				L172.426,88.542z M197.141,88.339l-6.423-9.689l6.377-3.661l6.474,3.661L197.141,88.339z"/>
		</g>
	</g>
	<g>
		<path fill="#FFFFFF" d="M53.629,113.23h19.268v21.573l16.387-21.573h22.397l-20.091,25.031l20.503,32.608H89.118l-11.281-18.28
			l-4.941,6.011v12.27H53.629V113.23z"/>
		<path fill="#FFFFFF" d="M117.197,113.23h19.268v57.64h-19.268V113.23z"/>
		<path fill="#FFFFFF" d="M143.216,113.23h18.033l20.504,25.443V113.23h19.103v57.64h-17.128l-21.408-26.597v26.597h-19.104V113.23z
			"/>
		<path fill="#FFFFFF" d="M238.485,172.104c-4.501,0-8.715-0.714-12.639-2.141c-3.926-1.427-7.357-3.458-10.293-6.094
			c-2.938-2.635-5.243-5.79-6.916-9.469c-1.677-3.677-2.513-7.74-2.513-12.187v-0.165c0-4.281,0.796-8.262,2.389-11.939
			c1.591-3.678,3.814-6.861,6.67-9.552c2.853-2.689,6.216-4.789,10.086-6.299s8.083-2.265,12.64-2.265
			c4.994,0,9.482,0.77,13.463,2.306c3.98,1.537,7.535,3.679,10.664,6.422l-10.787,13.011c-1.923-1.592-3.925-2.826-6.012-3.705
			c-2.086-0.878-4.336-1.318-6.752-1.318c-1.866,0-3.596,0.344-5.187,1.029c-1.594,0.688-2.965,1.634-4.117,2.841
			c-1.153,1.208-2.047,2.635-2.677,4.282c-0.632,1.647-0.947,3.459-0.947,5.435v0.164c0,2.032,0.343,3.899,1.03,5.6
			c0.685,1.702,1.632,3.157,2.841,4.364c1.206,1.208,2.647,2.142,4.323,2.8c1.673,0.659,3.526,0.988,5.557,0.988
			c1.647,0,2.965-0.109,3.953-0.329s1.865-0.549,2.635-0.988v-5.764h-9.881v-12.27h27.913v26.617
			c-3.128,2.574-6.834,4.656-11.115,6.244C248.531,171.31,243.756,172.104,238.485,172.104z"/>
	</g>
	<g>
		<path fill="#FFFFFF" d="M98.342,186.099h-6.328v-6.083h19.845v6.083h-6.328v15.421h-7.188V186.099z"/>
		<path fill="#FFFFFF" d="M114.716,180.016h10.506c1.924,0,3.507,0.221,4.746,0.661c1.239,0.439,2.237,1.038,2.995,1.797
			c0.656,0.655,1.147,1.393,1.475,2.211c0.328,0.819,0.492,1.782,0.492,2.888v0.062c0,1.576-0.379,2.908-1.137,3.992
			c-0.758,1.087-1.792,1.946-3.103,2.582l5.007,7.311h-8.202l-4.055-6.145h-0.062h-1.474v6.145h-7.188V180.016z M125.007,190.245
			c0.86,0,1.536-0.185,2.027-0.553c0.492-0.369,0.738-0.881,0.738-1.536v-0.062c0-0.695-0.246-1.213-0.738-1.552
			c-0.492-0.337-1.157-0.507-1.997-0.507h-3.133v4.209H125.007z"/>
		<path fill="#FFFFFF" d="M145.405,179.862h7.127l9.062,21.657h-7.803l-1.136-2.888h-7.526l-1.106,2.888h-7.68L145.405,179.862z
			 M150.873,193.532l-1.966-5.223l-1.966,5.223H150.873z"/>
		<path fill="#FFFFFF" d="M163.775,180.016h7.188v21.504h-7.188V180.016z"/>
		<path fill="#FFFFFF" d="M174.711,180.016h6.728l7.649,9.492v-9.492h7.127v21.504h-6.39l-7.986-9.922v9.922h-7.128V180.016z"/>
		<path fill="#FFFFFF" d="M199.901,180.016h18.34v5.898h-11.273v2.181h10.506v5.192h-10.506v2.334h11.428v5.898h-18.494V180.016z"/>
		<path fill="#FFFFFF" d="M221.559,180.016h10.507c1.925,0,3.507,0.221,4.747,0.661c1.238,0.439,2.237,1.038,2.995,1.797
			c0.655,0.655,1.146,1.393,1.475,2.211c0.327,0.819,0.491,1.782,0.491,2.888v0.062c0,1.576-0.379,2.908-1.137,3.992
			c-0.759,1.087-1.792,1.946-3.103,2.582l5.007,7.311h-8.202l-4.056-6.145h-0.061h-1.475v6.145h-7.189V180.016z M231.851,190.245
			c0.86,0,1.536-0.185,2.027-0.553c0.491-0.369,0.737-0.881,0.737-1.536v-0.062c0-0.695-0.246-1.213-0.737-1.552
			c-0.491-0.337-1.157-0.507-1.997-0.507h-3.133v4.209H231.851z"/>
		<path fill="#FFFFFF" d="M254,201.919c-2.191,0-4.234-0.302-6.129-0.906s-3.527-1.511-4.899-2.718l3.84-4.578
			c1.168,0.901,2.396,1.547,3.687,1.935c1.29,0.391,2.57,0.584,3.84,0.584c0.655,0,1.126-0.081,1.413-0.246
			c0.286-0.163,0.431-0.388,0.431-0.675v-0.062c0-0.307-0.211-0.562-0.631-0.768c-0.419-0.204-1.203-0.419-2.35-0.645
			c-1.209-0.246-2.36-0.532-3.456-0.86c-1.096-0.327-2.059-0.748-2.888-1.259c-0.829-0.513-1.489-1.152-1.981-1.921
			c-0.491-0.769-0.736-1.726-0.736-2.873v-0.061c0-1.023,0.198-1.977,0.598-2.856c0.4-0.881,0.983-1.649,1.751-2.305
			c0.769-0.655,1.721-1.167,2.857-1.536c1.137-0.368,2.442-0.553,3.917-0.553c2.09,0,3.917,0.246,5.483,0.737
			c1.567,0.491,2.976,1.229,4.224,2.211l-3.501,4.854c-1.025-0.737-2.105-1.274-3.241-1.613c-1.137-0.338-2.207-0.507-3.211-0.507
			c-0.533,0-0.927,0.082-1.183,0.246s-0.384,0.38-0.384,0.646v0.062c0,0.144,0.041,0.275,0.123,0.398
			c0.081,0.123,0.23,0.242,0.444,0.354c0.216,0.112,0.508,0.22,0.876,0.322c0.369,0.103,0.84,0.205,1.414,0.308
			c1.372,0.246,2.62,0.542,3.747,0.89c1.127,0.35,2.094,0.794,2.903,1.338c0.809,0.542,1.434,1.191,1.874,1.949
			c0.439,0.759,0.66,1.68,0.66,2.766v0.061c0,1.128-0.225,2.141-0.675,3.042c-0.451,0.901-1.087,1.664-1.905,2.288
			c-0.819,0.626-1.817,1.106-2.995,1.444S255.434,201.919,254,201.919z"/>
	</g>
	<g>
		<g>
			<path fill="#FFFFFF" d="M61.631,195.491c-1.184,0-2.283-0.205-3.298-0.614c-1.016-0.408-1.899-0.972-2.651-1.688
				c-0.753-0.715-1.341-1.56-1.764-2.531c-0.424-0.972-0.636-2.012-0.636-3.123v-0.044c0-1.109,0.215-2.15,0.646-3.123
				c0.431-0.971,1.022-1.818,1.775-2.542c0.752-0.723,1.64-1.292,2.663-1.708c1.022-0.417,2.125-0.625,3.309-0.625
				c1.183,0,2.282,0.204,3.298,0.613c1.015,0.409,1.899,0.972,2.651,1.688c0.752,0.715,1.34,1.561,1.764,2.531
				c0.423,0.972,0.635,2.013,0.635,3.122v0.044c0,1.111-0.215,2.152-0.646,3.124c-0.431,0.971-1.022,1.818-1.775,2.541
				c-0.752,0.724-1.64,1.293-2.663,1.71C63.917,195.282,62.814,195.491,61.631,195.491z M61.675,190.954
				c0.481,0,0.92-0.095,1.314-0.284c0.395-0.19,0.73-0.442,1.008-0.757c0.277-0.313,0.489-0.676,0.635-1.085
				c0.146-0.408,0.219-0.84,0.219-1.293v-0.044c0-0.452-0.077-0.887-0.23-1.304c-0.153-0.416-0.369-0.785-0.646-1.106
				c-0.278-0.321-0.614-0.577-1.008-0.768c-0.395-0.189-0.84-0.285-1.337-0.285c-0.482,0-0.92,0.096-1.314,0.285
				c-0.395,0.19-0.731,0.442-1.008,0.756c-0.277,0.315-0.489,0.677-0.635,1.086c-0.146,0.408-0.219,0.84-0.219,1.292v0.044
				c0,0.453,0.077,0.888,0.23,1.305c0.153,0.416,0.369,0.785,0.646,1.106c0.277,0.321,0.614,0.577,1.008,0.768
				C60.733,190.859,61.178,190.954,61.675,190.954z"/>
			<path fill="#FFFFFF" d="M71.427,179.821h12.842v4.383h-7.714v1.951h7.166v3.987h-7.166v5.02h-5.128V179.821z"/>
		</g>
		<g>
			<g>
				<rect x="53.637" y="197.876" fill="#FFFFFF" width="30.117" height="3.662"/>
			</g>
		</g>
	</g>
	<g>
		<g>
			<path fill="#FFFFFF" d="M170.387,249.538c-0.652,0-1.162,0.036-1.434,0.062l-3.203,19.446c0.313,0.032,0.857,0.075,1.55,0.075
				c3.939,0,10.768-1.277,12.219-9.841c0.512-2.96,0.073-5.29-1.304-6.925C176.151,249.904,172.424,249.538,170.387,249.538z"/>
		</g>
		<g>
			<path fill="#FFFFFF" d="M159.995,220.563c-21.783,0-39.438,17.65-39.438,39.434c0,21.796,17.655,39.451,39.438,39.451
				c21.787,0,39.447-17.655,39.447-39.451C199.441,238.214,181.781,220.563,159.995,220.563z M133.352,279.071
				c-0.855,0-1.354-0.091-1.375-0.095l-0.274-0.052l1.211-9.267l0.39,0.004c13.508,0,15.985-28.135,16.009-28.42l0.022-0.271h9.317
				l-0.049,0.34C153.398,276.349,137.959,279.071,133.352,279.071z M168.043,277.966h-12.761l0.057-0.343l6.07-36.728h12.643
				c4.953,0,8.978,1.655,11.638,4.786c2.896,3.406,4.052,8.454,3.17,13.848C187.392,268.409,180.25,277.966,168.043,277.966z"/>
		</g>
	</g>
</g>
</svg>
